<?xml version="1.0" encoding="utf-8"?>
<!-- Generator: Adobe Illustrator 28.1.0, SVG Export Plug-In . SVG Version: 6.00 Build 0)  -->
<svg version="1.1" id="Capa_1" xmlns="http://www.w3.org/2000/svg" xmlns:xlink="http://www.w3.org/1999/xlink" x="0px" y="0px"
	 viewBox="0 0 100 30" style="enable-background:new 0 0 100 30;" xml:space="preserve">
<style type="text/css">
	.st0{opacity:0.5;fill:#F7CE65;enable-background:new    ;}
	.st1{fill:#F7CE65;}
	.st2{font-family:'Arial-BoldMT';}
	.st3{font-size:1.5px;}
	.st4{fill:#444444;}
	.st5{font-family:'ArialMT';}
	.st6{font-size:1px;}
	.st7{opacity:0.5;fill:#DA4F40;enable-background:new    ;}
	.st8{fill:#DA4F40;}
	.st9{fill:none;}
	.st10{fill:none;stroke:#1D1D1B;stroke-width:0.5;stroke-miterlimit:10;}
	.st11{font-size:2px;}
	.st12{font-family:'Arial-ItalicMT';}
	.st13{fill:#FFFFFF;}
</style>
<g id="Cuadros">
	<g>
		<rect x="69.8" y="9.8" class="st0" width="30.2" height="8.2"/>
		<rect x="69.8" y="17.2" class="st1" width="30.2" height="1.5"/>
	</g>
	<g>
		<rect x="34.9" y="9.8" class="st0" width="30.2" height="8.2"/>
		<rect x="34.9" y="17.2" class="st1" width="30.2" height="1.5"/>
	</g>
	<g>
		<text transform="matrix(1 0 0 1 40.25 13.27)" class="st2 st3">Seminario de Licenciatura I</text>
		<text transform="matrix(1 0 0 1 44.72 14.77)" class="st4 st5 st6">(Primer semestre-2025)</text>
	</g>
	<g>
		<text transform="matrix(1 0 0 1 78.17 13.3)" class="st2 st3">Proyecto de</text>
		<text transform="matrix(1 0 0 1 87.17 13.3)" class="st2 st3">T</text>
		<text transform="matrix(1 0 0 1 88.06 13.3)" class="st2 st3">itulo I</text>
		<text transform="matrix(1 0 0 1 79.84 14.8)" class="st4 st5 st6">(Primer semestre-2025)</text>
	</g>
	<g>
		<g>
			<rect x="34.9" class="st0" width="30.2" height="8.2"/>
			<rect x="34.9" y="7.4" class="st1" width="30.2" height="1.5"/>
		</g>
		<g>
			<text transform="matrix(1 0 0 1 44.22 3.5)" class="st2 st3">Práctica Laboral</text>
			<text transform="matrix(1 0 0 1 38.77 5)" class="st4 st5 st6">(Segundo semestre-2024 y Primer semestre-2025)</text>
		</g>
	</g>
	<g>
		<rect x="69.8" class="st0" width="30.2" height="8.2"/>
		<rect x="69.8" y="7.4" class="st1" width="30.2" height="1.5"/>
	</g>
	<g>
		<text transform="matrix(1 0 0 1 77.9 3.52)" class="st2 st3">Práctica Profesional</text>
		<text transform="matrix(1 0 0 1 73.83 5.02)" class="st4 st5 st6">(Segundo semestre-2024 y Primer semestre-2025)</text>
	</g>
	<g>
		<rect y="9.8" class="st7" width="30.1" height="8.2"/>
		<rect y="17.2" class="st8" width="30.1" height="1.5"/>
	</g>
	<g>
		<text transform="matrix(1 0 0 1 10.92 13.27)" class="st2 st3">Proyecto IV</text>
		<text transform="matrix(1 0 0 1 3.76 14.77)" class="st4 st5 st6">(Segundo semestre-2024 y Primer semestre-2025)</text>
	</g>
	<g>
		<rect y="0" class="st9" width="30.1" height="8.2"/>
		<rect y="7.4" class="st9" width="30.1" height="1.5"/>
	</g>
</g>
<g>
	<line class="st10" x1="15.1" y1="21.6" x2="15.1" y2="18.8"/>
	<line class="st10" x1="0" y1="19" x2="100" y2="19"/>
	<line class="st10" x1="50" y1="21.7" x2="50" y2="19"/>
	<line class="st10" x1="84.9" y1="21.7" x2="84.9" y2="19"/>
</g>
<g>
	<text transform="matrix(1 0 0 1 10.28 23.8101)" class="st5 st11">Ciclo básico</text>
	<text transform="matrix(1 0 0 1 8.78 25.8101)" class="st12 st11">Semestre I a IV</text>
</g>
<g>
	<text transform="matrix(1 0 0 1 41.33 23.85)" class="st5 st11">Ciclo Especializado</text>
	<text transform="matrix(1 0 0 1 42.16 25.85)" class="st12 st11">Semestre V a VIII</text>
</g>
<g>
	<text transform="matrix(1 0 0 1 77.42 23.84)" class="st5 st11">Ciclo Profesional</text>
	<text transform="matrix(1 0 0 1 77.64 25.84)" class="st12 st11">Semestre IX a X</text>
</g>
<g>
	<g id="Simbología">
		<g>
			<g>
				<rect x="19" y="28" class="st7" width="2" height="1.9"/>
				<rect x="19" y="29.7" class="st8" width="2" height="0.3"/>
			</g>
			<g>
				<text transform="matrix(1.1 0 0 1 21.6899 29.3701)" class="st5 st6">Ambas menciones</text>
			</g>
		</g>
	</g>
	<g>
		<rect y="28" class="st0" width="2" height="1.9"/>
		<rect y="29.7" class="st1" width="2" height="0.3"/>
	</g>
	<g>
		<text transform="matrix(1.1 0 0 1 2.6802 29.3398)" class="st5 st6">Mención industrial y servicios</text>
	</g>
</g>
<rect x="47" y="7.7" class="st9" width="5.9" height="1"/>
<text transform="matrix(1 0 0 1 47.2478 8.4649)" class="st5 st6">(AUD8I002)</text>
<rect x="82" y="7.7" class="st9" width="5.9" height="1"/>
<text transform="matrix(1 0 0 1 82.1778 8.4639)" class="st5 st6">(AUD9I002)</text>
<rect x="82.2" y="17.5" class="st9" width="5.9" height="1"/>
<text transform="matrix(1 0 0 1 82.449 18.2349)" class="st5 st6">(AUD9I001)</text>
<rect x="47.4" y="17.5" class="st9" width="5.9" height="1"/>
<text transform="matrix(1 0 0 1 47.6585 18.2349)" class="st5 st6">(AUD7I002)</text>
<g>
	<rect x="11" y="17.5" class="st9" width="5.9" height="1"/>
	<text transform="matrix(1 0 0 1 11.0296 18.2249)" class="st13 st5 st6">(AUD40001)</text>
</g>
</svg>
