<?xml version="1.0" encoding="utf-8"?>
<!-- Generator: Adobe Illustrator 28.1.0, SVG Export Plug-In . SVG Version: 6.00 Build 0)  -->
<svg version="1.1" id="Capa_1" xmlns="http://www.w3.org/2000/svg" xmlns:xlink="http://www.w3.org/1999/xlink" x="0px" y="0px"
	 viewBox="0 0 100 20" style="enable-background:new 0 0 100 20;" xml:space="preserve">
<style type="text/css">
	.st0{opacity:0.5;fill:#F7CE65;enable-background:new    ;}
	.st1{fill:#F7CE65;}
	.st2{font-family:'ArialMT';}
	.st3{font-size:1px;}
	.st4{opacity:0.5;fill:#DA4F40;enable-background:new    ;}
	.st5{fill:#DA4F40;}
	.st6{font-family:'Arial-BoldMT';}
	.st7{font-size:1.5px;}
	.st8{fill:#444444;}
	.st9{fill:#FFFFFF;}
	.st10{fill:#1D1D1B;}
	.st11{fill:none;stroke:#1D1D1B;stroke-width:0.5;stroke-miterlimit:10;}
	.st12{font-size:2px;}
	.st13{font-family:'Arial-ItalicMT';}
</style>
<g id="Simbología">
	<g>
		<rect y="17.9" class="st0" width="2" height="1.9"/>
		<rect y="19.6" class="st1" width="2" height="0.3"/>
	</g>
	<g>
		<text transform="matrix(1.1 0 0 1 2.6802 19.2598)" class="st2 st3">Mención industrial y servicios</text>
	</g>
	<g>
		<g>
			<rect x="19.5" y="18" class="st4" width="2" height="1.9"/>
			<rect x="19.5" y="19.7" class="st5" width="2" height="0.3"/>
		</g>
		<g>
			<text transform="matrix(1.1 0 0 1 22.1802 19.3599)" class="st2 st3">Ambas menciones</text>
		</g>
	</g>
</g>
<g id="Cuadros">
	<g>
		<rect x="69.8" class="st0" width="30.2" height="8.2"/>
		<rect x="69.8" y="7.4" class="st1" width="30.2" height="1.5"/>
	</g>
	<g>
		<rect y="0.1" class="st4" width="30.1" height="8.2"/>
		<rect y="7.5" class="st5" width="30.1" height="1.5"/>
	</g>
	<g>
		<text transform="matrix(1 0 0 1 10.95 3.59)" class="st6 st7">Proyecto IV</text>
		<text transform="matrix(1 0 0 1 9.43 5.09)" class="st8 st2 st3">(Segundo semestre-2024)</text>
	</g>
	<g>
		<text transform="matrix(1 0 0 1 77.97 3.52)" class="st6 st7">Proyecto de Título I</text>
		<text transform="matrix(1 0 0 1 79.64 5.02)" class="st8 st2 st3">(Primer semestre-2025)</text>
	</g>
	<g>
		<text transform="matrix(1 0 0 1 12.0551 8.58)" class="st9 st2 st3">(AUD40001)</text>
	</g>
	<g>
		<text transform="matrix(1 0 0 1 82.2307 8.54)" class="st10 st2 st3">(AUD9I001)</text>
	</g>
</g>
<g id="Línea">
	<g>
		<line class="st11" x1="15.1" y1="11.8" x2="15.1" y2="9.1"/>
		<line class="st11" x1="0" y1="9.2" x2="100" y2="9.2"/>
		<line class="st11" x1="50" y1="12" x2="50" y2="9.2"/>
		<line class="st11" x1="84.9" y1="12" x2="84.9" y2="9.2"/>
	</g>
	<g>
		<text transform="matrix(1 0 0 1 10.28 14.04)" class="st2 st12">Ciclo básico</text>
		<text transform="matrix(1 0 0 1 8.78 16.04)" class="st13 st12">Semestre I a IV</text>
	</g>
	<g>
		<text transform="matrix(1 0 0 1 41.33 14.0699)" class="st2 st12">Ciclo Especializado</text>
		<text transform="matrix(1 0 0 1 42.16 16.0699)" class="st13 st12">Semestre V a VIII</text>
	</g>
	<g>
		<text transform="matrix(1 0 0 1 77.42 14.0601)" class="st2 st12">Ciclo Profesional</text>
		<text transform="matrix(1 0 0 1 77.64 16.0601)" class="st13 st12">Semestre IX a X</text>
	</g>
</g>
</svg>
