<?xml version="1.0" encoding="UTF-8"?>
<svg id="Capa_1" data-name="Capa 1" xmlns="http://www.w3.org/2000/svg" viewBox="0 0 100 40">
  <defs>
    <style>
      .cls-1 {
        letter-spacing: 0em;
      }

      .cls-1, .cls-2, .cls-3, .cls-4, .cls-5, .cls-6, .cls-7, .cls-8, .cls-9, .cls-10, .cls-11, .cls-12 {
        isolation: isolate;
      }

      .cls-1, .cls-6, .cls-8, .cls-9, .cls-10, .cls-12 {
        font-family: ArialMT, Arial;
      }

      .cls-1, .cls-8, .cls-9 {
        fill: #fff;
      }

      .cls-1, .cls-8, .cls-9, .cls-10, .cls-12 {
        font-size: 1px;
      }

      .cls-2, .cls-7 {
        font-family: Arial-BoldMT, Arial;
        font-size: 1.5px;
        font-weight: 700;
      }

      .cls-13, .cls-14 {
        fill: none;
      }

      .cls-15, .cls-3 {
        fill: #1f5592;
      }

      .cls-3, .cls-4 {
        opacity: .5;
      }

      .cls-4, .cls-16 {
        fill: #da4f40;
      }

      .cls-6, .cls-11 {
        font-size: 2px;
      }

      .cls-7 {
        letter-spacing: -.11em;
      }

      .cls-9, .cls-17 {
        letter-spacing: -.02em;
      }

      .cls-18 {
        letter-spacing: -.08em;
      }

      .cls-10 {
        fill: #444;
      }

      .cls-11 {
        font-family: Arial-ItalicMT, Arial;
        font-style: italic;
      }

      .cls-14 {
        stroke: #1d1d1b;
        stroke-miterlimit: 10;
        stroke-width: .5px;
      }
    </style>
  </defs>
  <g>
    <rect class="cls-3" x="69.84" y="19.55" width="30.15" height="8.25"/>
    <rect class="cls-15" x="69.84" y="27" width="30.15" height="1.49"/>
  </g>
  <g class="cls-5">
    <text class="cls-2" transform="translate(76.72 23.08)"><tspan x="0" y="0">Proyecto de Título I y II</tspan></text>
    <text class="cls-10" transform="translate(79.65 24.58)"><tspan x="0" y="0">(Primer semestre-2025)</tspan></text>
  </g>
  <g>
    <g>
      <rect class="cls-3" x="34.92" y="0" width="30.15" height="8.2"/>
      <rect class="cls-15" x="34.92" y="7.44" width="30.15" height="1.5"/>
    </g>
    <g class="cls-5">
      <text class="cls-2" transform="translate(40.7 2.51)"><tspan x="0" y="0">E</tspan></text>
      <text class="cls-7" transform="translate(41.7 2.51)"><tspan x="0" y="0">T</tspan></text>
      <text class="cls-2" transform="translate(42.45 2.51)"><tspan x="0" y="0">. Diseño y visualización </tspan></text>
      <text class="cls-2" transform="translate(44.62 4.51)"><tspan x="0" y="0">de información</tspan></text>
      <text class="cls-10" transform="translate(44.19 6.01)"><tspan x="0" y="0">(Segundo semestre-2024)</tspan></text>
    </g>
    <g class="cls-5">
      <text class="cls-8" transform="translate(47.33 8.5)"><tspan class="cls-17" x="0" y="0">(</tspan><tspan class="cls-18" x=".31" y="0">A</tspan></text>
      <text class="cls-8" transform="translate(48.2 8.5)"><tspan x="0" y="0">UD5</tspan></text>
      <text class="cls-1" transform="translate(50.11 8.5)"><tspan x="0" y="0">V</tspan></text>
      <text class="cls-8" transform="translate(50.7 8.5)"><tspan x="0" y="0">027)</tspan></text>
    </g>
  </g>
  <g>
    <rect class="cls-3" x="34.92" y="19.58" width="30.15" height="8.2"/>
    <rect class="cls-15" x="34.92" y="27.02" width="30.15" height="1.5"/>
  </g>
  <g class="cls-5">
    <text class="cls-2" transform="translate(40.83 22.08)"><tspan x="0" y="0">Métodos de Investigación </tspan></text>
    <text class="cls-2" transform="translate(45.25 24.08)"><tspan x="0" y="0">Cuantitativos</tspan></text>
    <text class="cls-10" transform="translate(44.19 25.58)"><tspan x="0" y="0">(Segundo semestre-2024)</tspan></text>
  </g>
  <g class="cls-5">
    <text class="cls-8" transform="translate(47.25 28.07)"><tspan class="cls-17" x="0" y="0">(</tspan><tspan class="cls-18" x=".31" y="0">A</tspan></text>
    <text class="cls-8" transform="translate(48.12 28.07)"><tspan x="0" y="0">UD6</tspan></text>
    <text class="cls-1" transform="translate(50.05 28.07)"><tspan x="0" y="0">V</tspan></text>
    <text class="cls-8" transform="translate(50.65 28.07)"><tspan x="0" y="0">002)</tspan></text>
  </g>
  <g>
    <rect class="cls-13" x="69.84" y="9.77" width="30.15" height="8.25"/>
    <rect class="cls-13" x="69.84" y="17.22" width="30.15" height="1.49"/>
  </g>
  <g>
    <g>
      <rect class="cls-3" x="34.93" y="9.79" width="30.15" height="8.24"/>
      <rect class="cls-15" x="34.93" y="17.24" width="30.15" height="1.49"/>
    </g>
    <g class="cls-5">
      <text class="cls-2" transform="translate(39 13.29)"><tspan x="0" y="0">Seminario de Licenciatura I y II</tspan></text>
      <text class="cls-10" transform="translate(44.72 14.79)"><tspan x="0" y="0">(Primer semestre-2025)</tspan></text>
    </g>
    <g class="cls-5">
      <text class="cls-8" transform="translate(44.3 18.27)"><tspan class="cls-17" x="0" y="0">(</tspan><tspan class="cls-18" x=".31" y="0">A</tspan></text>
      <text class="cls-8" transform="translate(45.17 18.27)"><tspan x="0" y="0">UD7</tspan></text>
      <text class="cls-1" transform="translate(47.02 18.27)"><tspan x="0" y="0">V</tspan></text>
      <text class="cls-8" transform="translate(47.62 18.27)"><tspan x="0" y="0">002) | </tspan></text>
      <text class="cls-8" transform="translate(50.4 18.27)"><tspan class="cls-17" x="0" y="0">(</tspan><tspan class="cls-18" x=".31" y="0">A</tspan></text>
      <text class="cls-8" transform="translate(51.26 18.27)"><tspan x="0" y="0">UD</tspan></text>
      <text class="cls-9" transform="translate(52.62 18.27)"><tspan x="0" y="0">8</tspan></text>
      <text class="cls-1" transform="translate(53.2 18.27)"><tspan x="0" y="0">V</tspan></text>
      <text class="cls-8" transform="translate(53.79 18.27)"><tspan x="0" y="0">001)</tspan></text>
    </g>
  </g>
  <g class="cls-5">
    <text class="cls-8" transform="translate(79.4 28.03)"><tspan class="cls-17" x="0" y="0">(</tspan><tspan class="cls-18" x=".31" y="0">A</tspan></text>
    <text class="cls-8" transform="translate(80.27 28.03)"><tspan x="0" y="0">UD</tspan></text>
    <text class="cls-9" transform="translate(81.62 28.03)"><tspan x="0" y="0">9V</tspan></text>
    <text class="cls-8" transform="translate(82.78 28.03)"><tspan x="0" y="0">001) | </tspan></text>
    <text class="cls-8" transform="translate(85.38 28.03)"><tspan class="cls-17" x="0" y="0">(</tspan><tspan class="cls-18" x=".31" y="0">A</tspan></text>
    <text class="cls-8" transform="translate(86.24 28.03)"><tspan x="0" y="0">U</tspan></text>
    <text class="cls-8" transform="translate(86.92 28.03)"><tspan x="0" y="0">D</tspan></text>
    <text class="cls-8" transform="translate(87.59 28.03)"><tspan x="0" y="0">1</tspan></text>
    <text class="cls-9" transform="translate(87.96 28.03)"><tspan x="0" y="0">0V</tspan></text>
    <text class="cls-8" transform="translate(89.16 28.03)"><tspan x="0" y="0">01)</tspan></text>
  </g>
  <g>
    <rect class="cls-4" y="19.55" width="30.15" height="8.24"/>
    <rect class="cls-16" y="27" width="30.15" height="1.49"/>
  </g>
  <g class="cls-5">
    <text class="cls-2" transform="translate(5.11 23.05)"><tspan x="0" y="0">Diseño, Estética y Sociedad</tspan></text>
    <text class="cls-10" transform="translate(9.79 24.55)"><tspan x="0" y="0">(Primer semestre-2025)</tspan></text>
  </g>
  <g class="cls-5">
    <text class="cls-8" transform="translate(12.32 28.02)"><tspan class="cls-17" x="0" y="0">(</tspan><tspan class="cls-18" x=".31" y="0">A</tspan></text>
    <text class="cls-8" transform="translate(13.19 28.02)"><tspan x="0" y="0">UD30002)</tspan></text>
  </g>
  <g>
    <rect class="cls-13" y="9.75" width="30.15" height="8.24"/>
    <rect class="cls-13" y="17.2" width="30.15" height="1.49"/>
  </g>
  <g>
    <g>
      <g>
        <rect class="cls-3" x="12.58" y="37.99" width="2" height="1.92"/>
        <rect class="cls-15" x="12.58" y="39.7" width="2" height=".29"/>
      </g>
      <g class="cls-5">
        <text class="cls-12" transform="translate(15.31 39.36) scale(1.1 1)"><tspan x="0" y="0">Mención visualidad y medios</tspan></text>
      </g>
    </g>
    <g>
      <g>
        <rect class="cls-4" x="31.93" y="37.99" width="2" height="1.92"/>
        <rect class="cls-16" x="31.93" y="39.7" width="2" height=".29"/>
      </g>
      <g class="cls-5">
        <text class="cls-12" transform="translate(34.66 39.35) scale(1.1 1)"><tspan x="0" y="0">Ambas menciones</tspan></text>
      </g>
    </g>
    <g>
      <g class="cls-5">
        <text class="cls-12" transform="translate(2.53 39.4) scale(1.1 1)"><tspan x="0" y="0">Electivo troncal</tspan></text>
      </g>
      <g class="cls-5">
        <text class="cls-2" transform="translate(-.11 39.59)"><tspan x="0" y="0">E</tspan></text>
        <text class="cls-7" transform="translate(.89 39.59)"><tspan x="0" y="0">T</tspan></text>
        <text class="cls-2" transform="translate(1.64 39.59)"><tspan x="0" y="0">.</tspan></text>
      </g>
    </g>
  </g>
  <g id="Línea">
    <g>
      <line class="cls-14" x1="15.07" y1="31.4" x2="15.07" y2="28.6"/>
      <line class="cls-14" y1="28.73" x2="100" y2="28.73"/>
      <line class="cls-14" x1="50" y1="31.52" x2="50" y2="28.73"/>
      <line class="cls-14" x1="84.93" y1="31.52" x2="84.93" y2="28.73"/>
    </g>
    <g class="cls-5">
      <text class="cls-6" transform="translate(10.28 33.59)"><tspan x="0" y="0">Ciclo básico</tspan></text>
      <text class="cls-11" transform="translate(8.78 35.59)"><tspan x="0" y="0">Semestre I a IV</tspan></text>
    </g>
    <g class="cls-5">
      <text class="cls-6" transform="translate(41.33 33.63)"><tspan x="0" y="0">Ciclo Especializado</tspan></text>
      <text class="cls-11" transform="translate(42.16 35.63)"><tspan x="0" y="0">Semestre V a VIII</tspan></text>
    </g>
    <g class="cls-5">
      <text class="cls-6" transform="translate(77.42 33.62)"><tspan x="0" y="0">Ciclo Profesional</tspan></text>
      <text class="cls-11" transform="translate(77.64 35.62)"><tspan x="0" y="0">Semestre IX a X</tspan></text>
    </g>
  </g>
</svg>