<?xml version="1.0" encoding="utf-8"?>
<!-- Generator: Adobe Illustrator 28.1.0, SVG Export Plug-In . SVG Version: 6.00 Build 0)  -->
<svg version="1.1" id="Capa_1" xmlns="http://www.w3.org/2000/svg" xmlns:xlink="http://www.w3.org/1999/xlink" x="0px" y="0px"
	 viewBox="0 0 100 50" style="enable-background:new 0 0 100 50;" xml:space="preserve">
<style type="text/css">
	.st0{opacity:0.4;fill:#1F5592;enable-background:new    ;}
	.st1{fill:#1F5592;}
	.st2{font-family:'Arial-BoldMT';}
	.st3{font-size:1.5px;}
	.st4{fill:#444444;}
	.st5{font-family:'ArialMT';}
	.st6{font-size:1px;}
	.st7{fill:none;}
	.st8{opacity:0.5;fill:#DA4F40;enable-background:new    ;}
	.st9{fill:#DA4F40;}
	.st10{opacity:0.5;fill:#1F5592;enable-background:new    ;}
	.st11{fill:none;stroke:#1D1D1B;stroke-width:0.5;stroke-miterlimit:10;}
	.st12{font-size:2px;}
	.st13{font-family:'Arial-ItalicMT';}
	.st14{fill:#FFFFFF;}
	.st15{opacity:0.97;fill:#FFFFFF;}
</style>
<g>
	<g>
		<rect x="34.9" y="19.7" class="st0" width="30.2" height="8.2"/>
		<rect x="34.9" y="27.1" class="st1" width="30.2" height="1.5"/>
	</g>
	<g>
		<text transform="matrix(1 0 0 1 40.7 22.2179)" class="st2 st3">E</text>
		<text transform="matrix(1 0 0 1 41.7 22.2179)" class="st2 st3">T</text>
		<text transform="matrix(1 0 0 1 42.45 22.2179)" class="st2 st3">. Diseño y visualización</text>
		<text transform="matrix(1 0 0 1 44.62 24.2179)" class="st2 st3">de información</text>
		<text transform="matrix(1 0 0 1 44.19 25.7179)" class="st4 st5 st6">(Segundo semestre-2024)</text>
	</g>
</g>
<g>
	<rect x="34.9" y="29.5" class="st0" width="30.2" height="8.2"/>
	<rect x="34.9" y="37" class="st1" width="30.2" height="1.5"/>
</g>
<g>
	<text transform="matrix(1 0 0 1 40.83 32.0379)" class="st2 st3">Métodos de Investigación</text>
	<text transform="matrix(1 0 0 1 45.25 34.0379)" class="st2 st3">Cuantitativos</text>
	<text transform="matrix(1 0 0 1 44.19 35.5379)" class="st4 st5 st6">(Segundo semestre-2024)</text>
</g>
<g>
	<rect x="69.8" y="19.7" class="st7" width="30.2" height="8.2"/>
	<rect x="69.8" y="27.2" class="st7" width="30.2" height="1.5"/>
</g>
<g>
	<g>
		<rect x="34.9" y="10" class="st0" width="30.2" height="8.2"/>
		<rect x="34.9" y="17.4" class="st1" width="30.2" height="1.5"/>
	</g>
	<g>
		<text transform="matrix(1 0 0 1 40.2465 13.458)" class="st2 st3">Seminario de Licenciatura I</text>
		<text transform="matrix(1 0 0 1 44.7208 14.958)" class="st4 st5 st6">(Primer semestre-2025)</text>
	</g>
</g>
<g>
	<g>
		<rect x="35" y="0.2" class="st0" width="30.2" height="8.2"/>
		<rect x="35" y="7.7" class="st1" width="30.2" height="1.5"/>
	</g>
	<g>
		<text transform="matrix(1 0 0 1 40.0385 3.708)" class="st2 st3">Seminario de Licenciatura II</text>
		<text transform="matrix(1 0 0 1 44.7211 5.208)" class="st4 st5 st6">(Primer semestre-2025)</text>
	</g>
</g>
<g>
	<g>
		<rect x="69.8" y="29.5" class="st0" width="30.2" height="8.2"/>
		<rect x="69.8" y="37" class="st1" width="30.2" height="1.5"/>
	</g>
	<g>
		<text transform="matrix(1 0 0 1 76.72 33.0379)" class="st2 st3">Proyecto de Título I</text>
		<text transform="matrix(1 0 0 1 79.65 34.5379)" class="st4 st5 st6">(Primer semestre-2025)</text>
	</g>
</g>
<g>
	<g>
		<rect x="69.9" y="19.7" class="st0" width="30.2" height="8.2"/>
		<rect x="69.9" y="27.2" class="st1" width="30.2" height="1.5"/>
	</g>
	<g>
		<text transform="matrix(1 0 0 1 76.735 23.2776)" class="st2 st3">Proyecto de Título II</text>
		<text transform="matrix(1 0 0 1 79.665 24.7776)" class="st4 st5 st6">(Primer semestre-2025)</text>
	</g>
</g>
<g>
	<rect y="29.5" class="st8" width="30.1" height="8.2"/>
	<rect y="37" class="st9" width="30.1" height="1.5"/>
</g>
<g>
	<text transform="matrix(1 0 0 1 5.11 33.008)" class="st2 st3">Diseño, Estética y Sociedad</text>
	<text transform="matrix(1 0 0 1 9.79 34.508)" class="st4 st5 st6">(Primer semestre-2025)</text>
</g>
<g>
	<rect y="19.7" class="st7" width="30.1" height="8.2"/>
	<rect y="27.2" class="st7" width="30.1" height="1.5"/>
</g>
<g>
	<g>
		<g>
			<rect x="12.6" y="47.9" class="st10" width="2" height="1.9"/>
			<rect x="12.6" y="49.7" class="st1" width="2" height="0.3"/>
		</g>
		<g>
			<text transform="matrix(1.1 0 0 1 15.3101 49.3178)" class="st5 st6">Mención visualidad y medios</text>
		</g>
	</g>
	<g>
		<g>
			<rect x="31.9" y="47.9" class="st8" width="2" height="1.9"/>
			<rect x="31.9" y="49.7" class="st9" width="2" height="0.3"/>
		</g>
		<g>
			<text transform="matrix(1.1 0 0 1 34.6602 49.308)" class="st5 st6">Ambas menciones</text>
		</g>
	</g>
	<g>
		<g>
			<text transform="matrix(1.1 0 0 1 2.5303 49.3578)" class="st5 st6">Electivo troncal</text>
		</g>
		<g>
			<text transform="matrix(1 0 0 1 -0.11 49.5479)" class="st2 st3">E</text>
			<text transform="matrix(1 0 0 1 0.89 49.5479)" class="st2 st3">T</text>
			<text transform="matrix(1 0 0 1 1.64 49.5479)" class="st2 st3">.</text>
		</g>
	</g>
</g>
<g id="Línea">
	<g>
		<line class="st11" x1="15.1" y1="41.4" x2="15.1" y2="38.6"/>
		<line class="st11" x1="0" y1="38.7" x2="100" y2="38.7"/>
		<line class="st11" x1="50" y1="41.5" x2="50" y2="38.7"/>
		<line class="st11" x1="84.9" y1="41.5" x2="84.9" y2="38.7"/>
	</g>
	<g>
		<text transform="matrix(1 0 0 1 10.28 43.5479)" class="st5 st12">Ciclo básico</text>
		<text transform="matrix(1 0 0 1 8.78 45.5479)" class="st13 st12">Semestre I a IV</text>
	</g>
	<g>
		<text transform="matrix(1 0 0 1 41.33 43.5879)" class="st5 st12">Ciclo Especializado</text>
		<text transform="matrix(1 0 0 1 42.16 45.5879)" class="st13 st12">Semestre V a VIII</text>
	</g>
	<g>
		<text transform="matrix(1 0 0 1 77.42 43.5779)" class="st5 st12">Ciclo Profesional</text>
		<text transform="matrix(1 0 0 1 77.64 45.5779)" class="st13 st12">Semestre IX a X</text>
	</g>
</g>
<rect x="34.9" y="9.1" class="st14" width="30.1" height="0.8"/>
<rect x="46.2" y="27.5" class="st7" width="7.5" height="0.9"/>
<text transform="matrix(1 0 0 1 47.0529 28.1756)" class="st14 st5 st6">(AUD5V027)</text>
<rect x="46.2" y="37.4" class="st7" width="7.5" height="0.9"/>
<text transform="matrix(1 0 0 1 47.0529 38.1322)" class="st15 st5 st6">(AUD6V002)</text>
<rect x="11.3" y="37.4" class="st7" width="7.5" height="0.9"/>
<text transform="matrix(1 0 0 1 12.1831 38.1322)" class="st15 st5 st6">(AUD30002)</text>
<rect x="44.4" y="17.8" class="st7" width="11.2" height="0.9"/>
<text transform="matrix(1 0 0 1 47.0533 18.4756)" class="st15 st5 st6">(AUD7V002)</text>
<rect x="44.4" y="8" class="st7" width="11.2" height="0.9"/>
<text transform="matrix(1 0 0 1 47.0533 8.6806)" class="st15 st5 st6">(AUD8V001)</text>
<rect x="79.7" y="37.4" class="st7" width="11.2" height="0.9"/>
<text transform="matrix(1 0 0 1 82.3735 38.1322)" class="st15 st5 st6">(AUD9V001)</text>
<rect x="79.7" y="27.5" class="st7" width="11.2" height="0.9"/>
<text transform="matrix(1 0 0 1 82.3735 28.1756)" class="st15 st5 st6">(AUD10V01)</text>
</svg>
