<?xml version="1.0" encoding="utf-8"?>
<!-- Generator: Adobe Illustrator 28.1.0, SVG Export Plug-In . SVG Version: 6.00 Build 0)  -->
<svg version="1.1" id="Capa_1" xmlns="http://www.w3.org/2000/svg" xmlns:xlink="http://www.w3.org/1999/xlink" x="0px" y="0px"
	 viewBox="0 0 100 30" style="enable-background:new 0 0 100 30;" xml:space="preserve">
<style type="text/css">
	.st0{opacity:0.5;fill:#F7CE65;enable-background:new    ;}
	.st1{fill:#F7CE65;}
	.st2{font-family:'ArialMT';}
	.st3{font-size:1px;}
	.st4{opacity:0.5;fill:#DA4F40;enable-background:new    ;}
	.st5{fill:#DA4F40;}
	.st6{font-family:'Arial-BoldMT';}
	.st7{font-size:1.5px;}
	.st8{fill:#444444;}
	.st9{fill:#1D1D1B;}
	.st10{fill:#FFFFFF;}
	.st11{fill:none;stroke:#1D1D1B;stroke-width:0.5;stroke-miterlimit:10;}
	.st12{font-size:2px;}
	.st13{font-family:'Arial-ItalicMT';}
</style>
<g id="Simbología">
	<g>
		<rect x="8.5" y="28" class="st0" width="2" height="1.9"/>
		<rect x="8.5" y="29.7" class="st1" width="2" height="0.3"/>
	</g>
	<g>
		<text transform="matrix(1.1 0 0 1 11.21 29.4102)" class="st2 st3">Mención industrial y servicios</text>
	</g>
	<g>
		<g>
			<rect x="28" y="28.1" class="st4" width="2" height="1.9"/>
			<rect x="28" y="29.8" class="st5" width="2" height="0.3"/>
		</g>
		<g>
			<text transform="matrix(1.1 0 0 1 30.71 29.4302)" class="st2 st3">Ambas menciones</text>
		</g>
	</g>
	<g>
		<g>
			<text transform="matrix(1.1 0 0 1 2.2402 29.4399)" class="st2 st3">Electivo</text>
		</g>
		<g>
			<text transform="matrix(1 0 0 1 -0.11 29.62)" class="st6 st7">E.</text>
		</g>
	</g>
</g>
<g id="Cuadros">
	<g>
		<rect x="34.9" y="9.8" class="st0" width="30.2" height="8.2"/>
		<rect x="34.9" y="17.2" class="st1" width="30.2" height="1.5"/>
	</g>
	<g>
		<rect x="34.9" class="st0" width="30.2" height="8.2"/>
		<rect x="34.9" y="7.4" class="st1" width="30.2" height="1.5"/>
	</g>
	<g>
		<text transform="matrix(1 0 0 1 42.04 2.51)" class="st6 st7">E:</text>
		<text transform="matrix(1 0 0 1 43.54 2.51)" class="st6 st7"> </text>
		<text transform="matrix(1 0 0 1 43.9 2.51)" class="st6 st7">Artesanías: cultura,</text>
		<text transform="matrix(1 0 0 1 43.33 4.51)" class="st6 st7">técnica y producto</text>
		<text transform="matrix(1 0 0 1 44.71 6.01)" class="st8 st2 st3">(Primer semestre-2025)</text>
	</g>
	<g>
		<text transform="matrix(1 0 0 1 40.25 13.29)" class="st6 st7">Seminario de Licenciatura I</text>
		<text transform="matrix(1 0 0 1 44.71 14.79)" class="st8 st2 st3">(Primer semestre-2025)</text>
	</g>
	<g>
		<text transform="matrix(1 0 0 1 47.1533 8.4296)" class="st9 st2 st3">(AUD5I031)</text>
	</g>
	<g>
		<rect y="9.8" class="st4" width="30.1" height="8.2"/>
		<rect y="17.2" class="st5" width="30.1" height="1.5"/>
	</g>
	<g>
		<text transform="matrix(1 0 0 1 4.07 12.29)" class="st6 st7">Introducción a la Investigación</text>
		<text transform="matrix(1 0 0 1 10.65 14.29)" class="st6 st7">en el Diseño</text>
		<text transform="matrix(1 0 0 1 9.78 15.79)" class="st8 st2 st3">(Primer semestre-2025)</text>
	</g>
	<g>
		<text transform="matrix(1 0 0 1 12.0779 18.1892)" class="st10 st2 st3">(AUD40002)</text>
	</g>
	<g>
		<text transform="matrix(1 0 0 1 47.0533 18.1896)" class="st9 st2 st3">(AUD7I002)</text>
	</g>
</g>
<g id="Línea">
	<g>
		<line class="st11" x1="15.1" y1="21.6" x2="15.1" y2="18.8"/>
		<line class="st11" x1="0" y1="19" x2="100" y2="19"/>
		<line class="st11" x1="50" y1="21.8" x2="50" y2="19"/>
		<line class="st11" x1="84.9" y1="21.8" x2="84.9" y2="19"/>
	</g>
	<g>
		<text transform="matrix(1 0 0 1 10.28 23.8199)" class="st2 st12">Ciclo básico</text>
		<text transform="matrix(1 0 0 1 8.78 25.8199)" class="st13 st12">Semestre I a IV</text>
	</g>
	<g>
		<text transform="matrix(1 0 0 1 41.33 23.86)" class="st2 st12">Ciclo Especializado</text>
		<text transform="matrix(1 0 0 1 42.16 25.86)" class="st13 st12">Semestre V a VIII</text>
	</g>
	<g>
		<text transform="matrix(1 0 0 1 77.42 23.85)" class="st2 st12">Ciclo Profesional</text>
		<text transform="matrix(1 0 0 1 77.64 25.85)" class="st13 st12">Semestre IX a X</text>
	</g>
</g>
</svg>
