<?xml version="1.0" encoding="utf-8"?>
<!-- Generator: Adobe Illustrator 27.9.3, SVG Export Plug-In . SVG Version: 9.03 Build 53313)  -->
<svg version="1.1" id="Capa_1" xmlns="http://www.w3.org/2000/svg" xmlns:xlink="http://www.w3.org/1999/xlink" x="0px" y="0px"
	 viewBox="0 0 100 40" style="enable-background:new 0 0 100 40;" xml:space="preserve">
<style type="text/css">
	.st0{opacity:0.5;fill:#1F5592;enable-background:new    ;}
	.st1{fill:#1F5592;}
	.st2{font-family:'ArialMT';}
	.st3{font-size:1px;}
	.st4{font-family:'Arial-BoldMT';}
	.st5{font-size:1.5px;}
	.st6{opacity:0.4;fill:#1F5592;enable-background:new    ;}
	.st7{fill:#444444;}
	.st8{fill:#FFFFFF;}
	.st9{fill:none;stroke:#1D1D1B;stroke-width:0.5;stroke-miterlimit:10;}
	.st10{font-size:2px;}
	.st11{font-family:'Arial-ItalicMT';}
</style>
<g>
	<g>
		<rect x="12.6" y="38" class="st0" width="2" height="1.9"/>
		<rect x="12.6" y="39.7" class="st1" width="2" height="0.3"/>
	</g>
	<g>
		<text transform="matrix(1.1 0 0 1 15.3104 39.3398)" class="st2 st3">Mención visualidad y medios</text>
	</g>
</g>
<g>
	<g>
		<text transform="matrix(1.1 0 0 1 2.5103 39.3602)" class="st2 st3">Electivo troncal</text>
	</g>
	<g>
		<text transform="matrix(1 0 0 1 -0.12 39.54)" class="st4 st5">E</text>
		<text transform="matrix(1 0 0 1 0.88 39.54)" class="st4 st5">T</text>
		<text transform="matrix(1 0 0 1 1.63 39.54)" class="st4 st5">.</text>
	</g>
</g>
<g>
	<rect x="34.9" y="19.6" class="st6" width="30.2" height="8.2"/>
	<rect x="34.9" y="27" class="st1" width="30.2" height="1.5"/>
</g>
<g>
	<text transform="matrix(1 0 0 1 40.7 22.3199)" class="st4 st5">E</text>
	<text transform="matrix(1 0 0 1 41.7 22.3199)" class="st4 st5">T</text>
	<text transform="matrix(1 0 0 1 42.45 22.3199)" class="st4 st5">. Diseño y visualización</text>
	<text transform="matrix(1 0 0 1 44.62 23.8199)" class="st4 st5">de información</text>
	<text transform="matrix(1 0 0 1 44.72 25.3199)" class="st7 st2 st3">(Primer semestre-2025)</text>
</g>
<g>
	<text transform="matrix(1 0 0 1 47.16 28.14)" class="st8 st2 st3">(AUD5V027)</text>
</g>
<g>
	<rect x="69.8" y="19.6" class="st6" width="30.2" height="8.2"/>
	<rect x="69.8" y="27" class="st1" width="30.2" height="1.5"/>
</g>
<g>
	<text transform="matrix(1 0 0 1 77.8419 23.0792)" class="st4 st5">Proyecto de Título I</text>
	<text transform="matrix(1 0 0 1 73.65 24.56)" class="st7 st2 st3">(Segundo semestre-2024 y Primer semestre-2025)</text>
</g>
<g>
	<text transform="matrix(1 0 0 1 81.7879 28.142)" class="st8 st2 st3">(AUD9V001)</text>
</g>
<g>
	<rect x="34.9" y="9.8" class="st6" width="30.2" height="8.2"/>
	<rect x="34.9" y="17.2" class="st1" width="30.2" height="1.5"/>
</g>
<g>
	<text transform="matrix(1 0 0 1 40.2466 13.2048)" class="st4 st5">Seminario de Licenciatura I</text>
	<text transform="matrix(1 0 0 1 38.72 14.78)" class="st7 st2 st3">(Segundo semestre-2024 y Primer semestre-2025)</text>
</g>
<g>
	<text transform="matrix(1 0 0 1 47.0407 18.35)" class="st8 st2 st3">(AUD7V002)</text>
</g>
<g id="Línea">
	<g>
		<line class="st9" x1="15.1" y1="31.4" x2="15.1" y2="28.6"/>
		<line class="st9" x1="0" y1="28.7" x2="100" y2="28.7"/>
		<line class="st9" x1="50" y1="31.5" x2="50" y2="28.7"/>
		<line class="st9" x1="84.9" y1="31.5" x2="84.9" y2="28.7"/>
	</g>
	<g>
		<text transform="matrix(1 0 0 1 10.28 33.5799)" class="st2 st10">Ciclo básico</text>
		<text transform="matrix(1 0 0 1 8.78 35.5799)" class="st11 st10">Semestre I a IV</text>
	</g>
	<g>
		<text transform="matrix(1 0 0 1 41.33 33.62)" class="st2 st10">Ciclo Especializado</text>
		<text transform="matrix(1 0 0 1 42.16 35.62)" class="st11 st10">Semestre V a VIII</text>
	</g>
	<g>
		<text transform="matrix(1 0 0 1 77.42 33.61)" class="st2 st10">Ciclo Profesional</text>
		<text transform="matrix(1 0 0 1 77.64 35.61)" class="st11 st10">Semestre IX a X</text>
	</g>
</g>
<g>
	<rect x="69.8" y="9.8" class="st6" width="30.2" height="8.2"/>
	<rect x="69.8" y="17.2" class="st1" width="30.2" height="1.5"/>
</g>
<g>
	<text transform="matrix(1 0 0 1 77.8807 13.2798)" class="st4 st5">Proyecto de Título II</text>
	<text transform="matrix(1 0 0 1 73.65 14.7798)" class="st7 st2 st3">(Segundo semestre-2024 y Primer semestre-2025)</text>
</g>
<g>
	<text transform="matrix(1 0 0 1 81.6334 18.3734)" class="st8 st2 st3">(AUD10V01)</text>
</g>
<g>
	<rect x="34.9" y="0" class="st6" width="30.2" height="8.2"/>
	<rect x="34.9" y="7.4" class="st1" width="30.2" height="1.5"/>
</g>
<g>
	<text transform="matrix(1 0 0 1 39.9268 3.4509)" class="st4 st5">Seminario de Licenciatura II</text>
	<text transform="matrix(1 0 0 1 38.72 4.99)" class="st7 st2 st3">(Segundo semestre-2024 y Primer semestre-2025)</text>
</g>
<g>
	<text transform="matrix(1 0 0 1 47.0406 8.5599)" class="st8 st2 st3">(AUD8V001)</text>
</g>
</svg>
