<?xml version="1.0" encoding="UTF-8"?>
<svg id="Capa_1" data-name="Capa 1" xmlns="http://www.w3.org/2000/svg" viewBox="0 0 100 30">
  <defs>
    <style>
      .cls-1 {
        font-family: Arial-BoldMT, Arial;
        font-size: 1.5px;
        font-weight: 700;
      }

      .cls-1, .cls-2, .cls-3, .cls-4, .cls-5, .cls-6, .cls-7, .cls-8 {
        isolation: isolate;
      }

      .cls-3, .cls-4, .cls-6, .cls-8 {
        font-family: ArialMT, Arial;
      }

      .cls-3, .cls-5 {
        font-size: 2px;
      }

      .cls-4 {
        fill: #444;
      }

      .cls-4, .cls-6, .cls-8 {
        font-size: 1px;
      }

      .cls-5 {
        font-family: Arial-ItalicMT, Arial;
        font-style: italic;
      }

      .cls-6 {
        fill: #1d1d1b;
      }

      .cls-7 {
        opacity: .5;
      }

      .cls-7, .cls-9 {
        fill: #f7ce65;
      }

      .cls-10 {
        fill: none;
        stroke: #1d1d1b;
        stroke-miterlimit: 10;
        stroke-width: .5px;
      }
    </style>
  </defs>
  <g id="Simbología">
    <g>
      <g>
        <rect class="cls-7" y="28" width="2" height="1.92"/>
        <rect class="cls-9" y="29.71" width="2" height=".29"/>
      </g>
      <g class="cls-2">
        <text class="cls-8" transform="translate(2.68 29.39) scale(1.1 1)"><tspan x="0" y="0">Mención industrial y servicios</tspan></text>
      </g>
    </g>
  </g>
  <g>
    <rect class="cls-7" x="34.91" y="9.83" width="30.15" height="8.24"/>
    <rect class="cls-9" x="34.91" y="17.28" width="30.15" height="1.49"/>
  </g>
  <rect class="cls-7" x="34.85" y=".05" width="30.15" height="8.24"/>
  <rect class="cls-9" x="34.85" y="7.5" width="30.15" height="1.49"/>
  <g id="A3">
    <g>
      <rect class="cls-7" x="69.84" y="9.83" width="30.15" height="8.24"/>
      <rect class="cls-9" x="69.84" y="17.28" width="30.15" height="1.49"/>
    </g>
    <g>
      <rect class="cls-7" x="69.84" y=".05" width="30.15" height="8.24"/>
      <rect class="cls-9" x="69.84" y="7.5" width="30.15" height="1.49"/>
    </g>
  </g>
  <g class="cls-2">
    <text class="cls-1" transform="translate(40.02 13.54)"><tspan x="0" y="0">Seminario de Licenciatura II</tspan></text>
    <text class="cls-4" transform="translate(44.48 15.04)"><tspan x="0" y="0">(Primer Semestre- 2025)</tspan></text>
  </g>
  <g class="cls-2">
    <text class="cls-1" transform="translate(40.09 3.82)"><tspan x="0" y="0">Seminario Licenciatura I y II</tspan></text>
    <text class="cls-4" transform="translate(44.2 5.32)"><tspan x="0" y="0">(Segundo semestre-2024)</tspan></text>
  </g>
  <g id="T3">
    <g class="cls-2">
      <text class="cls-1" transform="translate(77.95 13.57)"><tspan x="0" y="0">Proyecto de Título I</tspan></text>
      <text class="cls-4" transform="translate(79.49 15.07)"><tspan x="0" y="0">(Primer semestre- 2025)</tspan></text>
    </g>
    <g class="cls-2">
      <text class="cls-1" transform="translate(77.85 3.76)"><tspan x="0" y="0">Proyecto de Título II</tspan></text>
      <text class="cls-4" transform="translate(79.21 5.26)"><tspan x="0" y="0">(Segundo semestre-2024)</tspan></text>
    </g>
  </g>
  <g class="cls-2">
    <text class="cls-6" transform="translate(47.37 18.37)"><tspan x="0" y="0">(AUD8I001)</tspan></text>
  </g>
  <g class="cls-2">
    <text class="cls-6" transform="translate(44.29 8.58)"><tspan x="0" y="0">(AUD7I002) | (AUD8I001)</tspan></text>
  </g>
  <g id="C3">
    <g class="cls-2">
      <text class="cls-6" transform="translate(82.27 18.32)"><tspan x="0" y="0">(AUD9I001)</tspan></text>
    </g>
    <g class="cls-2">
      <text class="cls-6" transform="translate(82.26 8.54)"><tspan x="0" y="0">(AUD10I01)</tspan></text>
    </g>
  </g>
  <g id="Línea">
    <g>
      <line class="cls-10" x1="15.06" y1="21.68" x2="15.06" y2="18.88"/>
      <line class="cls-10" x1="-.01" y1="19.01" x2="99.99" y2="19.01"/>
      <line class="cls-10" x1="49.99" y1="21.8" x2="49.99" y2="19.01"/>
      <line class="cls-10" x1="84.91" y1="21.8" x2="84.91" y2="19.01"/>
    </g>
    <g class="cls-2">
      <text class="cls-3" transform="translate(10.27 23.87)"><tspan x="0" y="0">Ciclo básico</tspan></text>
      <text class="cls-5" transform="translate(8.77 25.87)"><tspan x="0" y="0">Semestre I a IV</tspan></text>
    </g>
    <g class="cls-2">
      <text class="cls-3" transform="translate(41.32 23.91)"><tspan x="0" y="0">Ciclo Especializado</tspan></text>
      <text class="cls-5" transform="translate(42.15 25.91)"><tspan x="0" y="0">Semestre V a VIII</tspan></text>
    </g>
    <g class="cls-2">
      <text class="cls-3" transform="translate(77.41 23.9)"><tspan x="0" y="0">Ciclo Profesional</tspan></text>
      <text class="cls-5" transform="translate(77.63 25.9)"><tspan x="0" y="0">Semestre IX a X</tspan></text>
    </g>
  </g>
</svg>