<?xml version="1.0" encoding="utf-8"?>
<!-- Generator: Adobe Illustrator 28.1.0, SVG Export Plug-In . SVG Version: 6.00 Build 0)  -->
<svg version="1.1" id="Capa_1" xmlns="http://www.w3.org/2000/svg" xmlns:xlink="http://www.w3.org/1999/xlink" x="0px" y="0px"
	 viewBox="0 0 100 45" style="enable-background:new 0 0 100 45;" xml:space="preserve">
<style type="text/css">
	.st0{opacity:0.5;fill:#F7CE65;enable-background:new    ;}
	.st1{fill:#F7CE65;}
	.st2{font-family:'ArialMT';}
	.st3{font-size:1px;}
	.st4{font-family:'Arial-BoldMT';}
	.st5{font-size:1.5px;}
	.st6{fill:#444444;}
	.st7{fill:#1D1D1B;}
	.st8{fill:none;stroke:#1D1D1B;stroke-width:0.5;stroke-miterlimit:10;}
	.st9{font-size:2px;}
	.st10{font-family:'Arial-ItalicMT';}
</style>
<g id="Simbología">
	<g>
		<rect y="42.3" class="st0" width="2" height="1.9"/>
		<rect y="44" class="st1" width="2" height="0.3"/>
	</g>
	<g>
		<text transform="matrix(1.1 0 0 1 2.6802 43.6918)" class="st2 st3">Mención industrial y servicios</text>
	</g>
</g>
<g>
	<rect x="69.8" y="24.1" class="st0" width="30.2" height="8.3"/>
	<rect x="69.8" y="31.6" class="st1" width="30.2" height="1.5"/>
</g>
<g>
	<rect x="34.9" y="24.1" class="st0" width="30.2" height="8.2"/>
	<rect x="34.9" y="31.6" class="st1" width="30.2" height="1.5"/>
</g>
<g>
	<text transform="matrix(1 0 0 1 40.179 27.632)" class="st4 st5">Seminario de Licenciatura II</text>
	<text transform="matrix(1 0 0 1 39.0858 29.1119)" class="st6 st2 st3">(Primeir semestre 2025 y Segundo semestre 2024)</text>
</g>
<g>
	<text transform="matrix(1 0 0 1 77.6295 27.6318)" class="st4 st5">Proyecto de Título II</text>
	<text transform="matrix(1 0 0 1 73.4857 29.1318)" class="st6 st2 st3">(Primeir semestre 2025 y Segundo semestre 2024)</text>
</g>
<g>
	<text transform="matrix(1 0 0 1 81.9603 32.6042)" class="st7 st2 st3">(AUD10I01)</text>
</g>
<rect x="69.8" y="14.3" class="st0" width="30.2" height="8.3"/>
<rect x="69.8" y="21.8" class="st1" width="30.2" height="1.5"/>
<g>
	<text transform="matrix(1 0 0 1 77.8696 17.8594)" class="st4 st5">Proyecto de Título I</text>
	<text transform="matrix(1 0 0 1 73.4248 19.3594)" class="st6 st2 st3">(Primeir semestre 2025 y Segundo semestre 2024)</text>
</g>
<g>
	<text transform="matrix(1 0 0 1 81.8993 22.9021)" class="st7 st2 st3">(AUD9I001)</text>
</g>
<g>
	<text transform="matrix(1 0 0 1 47.3227 32.6046)" class="st7 st2 st3">(AUD8I001)</text>
</g>
<g>
	<rect x="35.1" y="14.3" class="st0" width="30.2" height="8.2"/>
	<rect x="35.1" y="21.8" class="st1" width="30.2" height="1.5"/>
</g>
<g>
	<text transform="matrix(1 0 0 1 40.4863 17.8319)" class="st4 st5">Seminario de Licenciatura I</text>
	<text transform="matrix(1 0 0 1 45.0009 19.3592)" class="st6 st2 st3">(Primeir semestre 2025)</text>
</g>
<g>
	<text transform="matrix(1 0 0 1 47.3537 22.9017)" class="st7 st2 st3">(AUD8I001)</text>
</g>
<g>
	<rect x="69.8" y="4.6" class="st0" width="30.2" height="8.2"/>
	<rect x="69.8" y="12" class="st1" width="30.2" height="1.5"/>
</g>
<g>
	<text transform="matrix(1 0 0 1 77.76 8.1119)" class="st4 st5">Práctica profesional</text>
	<text transform="matrix(1 0 0 1 79.22 9.6119)" class="st6 st2 st3">(Segundo semestre 2024)</text>
</g>
<g>
	<text transform="matrix(1 0 0 1 82.0627 13.1545)" class="st7 st2 st3">(AUD9I002)</text>
</g>
<g id="Línea">
	<g>
		<line class="st8" x1="15.1" y1="36" x2="15.1" y2="33.2"/>
		<line class="st8" x1="0" y1="33.3" x2="100" y2="33.3"/>
		<line class="st8" x1="50" y1="36.1" x2="50" y2="33.3"/>
		<line class="st8" x1="84.9" y1="36.1" x2="84.9" y2="33.3"/>
	</g>
	<g>
		<text transform="matrix(1 0 0 1 10.28 38.1418)" class="st2 st9">Ciclo básico</text>
		<text transform="matrix(1 0 0 1 8.78 40.1418)" class="st10 st9">Semestre I a IV</text>
	</g>
	<g>
		<text transform="matrix(1 0 0 1 41.33 38.1819)" class="st2 st9">Ciclo Especializado</text>
		<text transform="matrix(1 0 0 1 42.16 40.1819)" class="st10 st9">Semestre V a VIII</text>
	</g>
	<g>
		<text transform="matrix(1 0 0 1 77.42 38.1719)" class="st2 st9">Ciclo Profesional</text>
		<text transform="matrix(1 0 0 1 77.64 40.1719)" class="st10 st9">Semestre IX a X</text>
	</g>
</g>
</svg>
