<?xml version="1.0" encoding="UTF-8"?>
<svg xmlns="http://www.w3.org/2000/svg" viewBox="0 0 100 30">
  <defs>
    <style>
      .cls-1, .cls-2, .cls-3 {
        font-size: 1px;
      }

      .cls-1, .cls-2, .cls-3, .cls-4 {
        font-family: ArialMT, Arial;
      }

      .cls-5 {
        fill: #ff5432;
      }

      .cls-5, .cls-6 {
        stroke: #1d1d1b;
        stroke-miterlimit: 10;
        stroke-width: .5px;
      }

      .cls-2 {
        fill: #444;
      }

      .cls-7 {
        opacity: .5;
      }

      .cls-7, .cls-8, .cls-9 {
        fill: #1f5592;
      }

      .cls-3 {
        fill: #fff;
        letter-spacing: .03em;
      }

      .cls-9 {
        opacity: .4;
      }

      .cls-10 {
        letter-spacing: -.11em;
      }

      .cls-11 {
        font-family: Arial-BoldMT, Arial;
        font-size: 1.5px;
        font-weight: 700;
      }

      .cls-12 {
        font-family: Arial-ItalicMT, Arial;
        font-style: italic;
      }

      .cls-6 {
        fill: none;
      }

      .cls-13 {
        font-size: 2px;
      }
    </style>
  </defs>
  <g id="Simbología">
    <g>
      <g>
        <g>
          <rect class="cls-7" x="12.55" y="28" width="2" height="1.92"/>
          <rect class="cls-8" x="12.55" y="29.72" width="2" height=".29"/>
        </g>
        <text class="cls-1" transform="translate(15.27 29.38) scale(1.1 1)"><tspan x="0" y="0">Mención visualidad y medios</tspan></text>
      </g>
      <g>
        <text class="cls-1" transform="translate(2.53 29.38) scale(1.1 1)"><tspan x="0" y="0">Electivo troncal</tspan></text>
        <text class="cls-11" transform="translate(-.1 29.56)"><tspan x="0" y="0">E</tspan><tspan class="cls-10" x="1" y="0">T</tspan><tspan x="1.75" y="0">.</tspan></text>
      </g>
    </g>
  </g>
  <g id="Cuadros">
    <g>
      <rect class="cls-9" x="34.93" y="9.79" width="30.15" height="8.24"/>
      <rect class="cls-8" x="34.93" y="17.24" width="30.15" height="1.49"/>
    </g>
    <g>
      <rect class="cls-9" x="34.92" y="0" width="30.15" height="8.2"/>
      <rect class="cls-8" x="34.92" y="7.45" width="30.15" height="1.5"/>
    </g>
    <text transform="translate(38.09 3.54)"><tspan class="cls-11"><tspan x="0" y="0">E</tspan><tspan class="cls-10" x="1" y="0">T</tspan><tspan x="1.75" y="0">. Diseño editorial y publicación</tspan></tspan><tspan class="cls-2"><tspan x="6.11" y="1.5">(Segundo semestre-2024)</tspan></tspan></text>
    <text transform="translate(45.66 13.29)"><tspan class="cls-11"><tspan x="0" y="0">Proyecto VII</tspan></tspan><tspan class="cls-2"><tspan x="-.92" y="1.5">(Primer semestre 2025)</tspan></tspan></text>
    <text class="cls-3" transform="translate(47.05 8.52)"><tspan x="0" y="0">(AUD6V020)</tspan></text>
    <text class="cls-3" transform="translate(47.05 18.28)"><tspan x="0" y="0">(AUD7V001)</tspan></text>
    <g>
      <rect class="cls-9" x="69.85" y=".01" width="30.15" height="8.25"/>
      <rect class="cls-8" x="69.85" y="7.46" width="30.15" height="1.49"/>
    </g>
    <text transform="translate(77.97 3.54)"><tspan class="cls-11"><tspan x="0" y="0">Proyecto de Título I</tspan></tspan><tspan class="cls-2"><tspan x="-4.3" y="1.5">(Primer semestre 2025 y Segundo semestre-2024) </tspan></tspan></text>
    <text class="cls-3" transform="translate(81.98 8.57)"><tspan x="0" y="0">(AUD9V001)</tspan></text>
    <g>
      <rect class="cls-9" x="69.85" y="9.8" width="30.15" height="8.25"/>
      <rect class="cls-8" x="69.85" y="17.25" width="30.15" height="1.49"/>
    </g>
    <text transform="translate(77.76 13.33)"><tspan class="cls-11"><tspan x="0" y="0">Proyecto de Título II</tspan></tspan><tspan class="cls-2"><tspan x="-4.09" y="1.5">(Primer semestre 2025 y Segundo semestre-2024) </tspan></tspan></text>
    <text class="cls-3" transform="translate(81.98 18.36)"><tspan x="0" y="0">(AUD10V01)</tspan></text>
  </g>
  <g id="Línea">
    <g>
      <line class="cls-6" x1="15.07" y1="21.64" x2="15.07" y2="18.84"/>
      <line class="cls-5" y1="18.97" x2="100" y2="18.97"/>
      <line class="cls-6" x1="50" y1="21.76" x2="50" y2="18.97"/>
      <line class="cls-6" x1="84.93" y1="21.76" x2="84.93" y2="18.97"/>
    </g>
    <text class="cls-13" transform="translate(10.28 23.83)"><tspan class="cls-4"><tspan x="0" y="0">Ciclo básico</tspan></tspan><tspan class="cls-12"><tspan x="-1.5" y="2">Semestre I a IV</tspan></tspan></text>
    <text class="cls-13" transform="translate(41.33 23.87)"><tspan class="cls-4"><tspan x="0" y="0">Ciclo Especializado</tspan></tspan><tspan class="cls-12"><tspan x=".83" y="2">Semestre V a VIII</tspan></tspan></text>
    <text class="cls-13" transform="translate(77.42 23.86)"><tspan class="cls-4"><tspan x="0" y="0">Ciclo Profesional</tspan></tspan><tspan class="cls-12"><tspan x=".22" y="2">Semestre IX a X</tspan></tspan></text>
  </g>
</svg>