<?xml version="1.0" encoding="UTF-8"?>
<svg id="Guías" xmlns="http://www.w3.org/2000/svg" viewBox="0 0 100 50">
  <defs>
    <style>
      .cls-1, .cls-2, .cls-3, .cls-4, .cls-5 {
        font-family: ArialMT, Arial;
      }

      .cls-2, .cls-3, .cls-4, .cls-5 {
        font-size: 1px;
      }

      .cls-2, .cls-4 {
        fill: #fff;
      }

      .cls-6, .cls-7, .cls-8 {
        fill: #1f5592;
        stroke-width: 0px;
      }

      .cls-9 {
        fill: #ff5432;
      }

      .cls-9, .cls-10 {
        stroke: #1d1d1b;
        stroke-miterlimit: 10;
        stroke-width: .5px;
      }

      .cls-11 {
        font-family: Arial-BoldMT, Arial;
        font-size: 1.5px;
        font-weight: 700;
      }

      .cls-11, .cls-3, .cls-12 {
        fill: #000;
      }

      .cls-10 {
        fill: none;
      }

      .cls-13 {
        font-family: Arial-ItalicMT, Arial;
        font-style: italic;
      }

      .cls-4 {
        letter-spacing: .03em;
      }

      .cls-7 {
        opacity: .5;
      }

      .cls-5 {
        fill: #444;
      }

      .cls-12 {
        font-size: 2px;
      }

      .cls-8 {
        opacity: .4;
      }
    </style>
  </defs>
  <g>
    <rect class="cls-8" x="69.85" y="20.01" width="30.15" height="8.2"/>
    <rect class="cls-6" x="69.85" y="27.45" width="30.15" height="1.5"/>
  </g>
  <g>
    <rect class="cls-8" x="69.85" y="29.76" width="30.15" height="8.2"/>
    <rect class="cls-6" x="69.85" y="37.2" width="30.15" height="1.5"/>
  </g>
  <g>
    <g>
      <rect class="cls-7" x="0" y="48" width="2" height="1.92"/>
      <rect class="cls-6" x="0" y="49.72" width="2" height=".29"/>
    </g>
    <text class="cls-3" transform="translate(2.72 49.38) scale(1.1 1)"><tspan x="0" y="0">Mención visualidad y medios</tspan></text>
  </g>
  <text transform="translate(75.18 33.31)"><tspan class="cls-11"><tspan x="0" y="0">Seminario de Licenciatura I</tspan></tspan><tspan class="cls-5"><tspan x="4.47" y="1.5">(Primer semestre-2025) </tspan></tspan></text>
  <text class="cls-4" transform="translate(81.98 38.34)"><tspan x="0" y="0">(AUD7V002)</tspan></text>
  <text class="cls-2" transform="translate(12.3 38.39)"><tspan x="0" y="0">(AUD30001)</tspan></text>
  <g>
    <line class="cls-10" x1="15.07" y1="41.63" x2="15.07" y2="38.83"/>
    <line class="cls-9" y1="38.96" x2="100" y2="38.96"/>
    <line class="cls-10" x1="50" y1="41.75" x2="50" y2="38.96"/>
    <line class="cls-10" x1="84.93" y1="41.75" x2="84.93" y2="38.96"/>
  </g>
  <text class="cls-12" transform="translate(10.28 43.82)"><tspan class="cls-1"><tspan x="0" y="0">Ciclo básico</tspan></tspan><tspan class="cls-13"><tspan x="-1.5" y="2">Semestre I a IV</tspan></tspan></text>
  <text class="cls-12" transform="translate(41.33 43.86)"><tspan class="cls-1"><tspan x="0" y="0">Ciclo Especializado</tspan></tspan><tspan class="cls-13"><tspan x=".83" y="2">Semestre V a VIII</tspan></tspan></text>
  <text class="cls-12" transform="translate(77.42 43.85)"><tspan class="cls-1"><tspan x="0" y="0">Ciclo Profesional</tspan></tspan><tspan class="cls-13"><tspan x=".22" y="2">Semestre IX a X</tspan></tspan></text>
  <text transform="translate(74.97 23.54)"><tspan class="cls-11"><tspan x="0" y="0">Seminario de Licenciatura II</tspan></tspan><tspan class="cls-5"><tspan x="4.68" y="1.5">(Primer semestre-2024)</tspan></tspan></text>
  <text class="cls-4" transform="translate(81.98 28.5)"><tspan x="0" y="0">(AUD8V001)</tspan></text>
  <g>
    <rect class="cls-8" x="69.86" y="10.28" width="30.15" height="8.2"/>
    <rect class="cls-6" x="69.86" y="17.72" width="30.15" height="1.5"/>
  </g>
  <text transform="translate(77.98 13.81)"><tspan class="cls-11"><tspan x="0" y="0">Proyecto de Título I</tspan></tspan><tspan class="cls-5"><tspan x="1.68" y="1.5">(Primer semestre-2025) </tspan></tspan></text>
  <text class="cls-4" transform="translate(81.99 18.77)"><tspan x="0" y="0">(AUD9V001)</tspan></text>
  <g>
    <rect class="cls-8" x="69.87" y=".52" width="30.15" height="8.2"/>
    <rect class="cls-6" x="69.87" y="7.96" width="30.15" height="1.5"/>
  </g>
  <text transform="translate(77.78 4.06)"><tspan class="cls-11"><tspan x="0" y="0">Proyecto de Título II</tspan></tspan><tspan class="cls-5"><tspan x="1.89" y="1.5">(Primer semestre-2025) </tspan></tspan></text>
  <text class="cls-4" transform="translate(82 9.01)"><tspan x="0" y="0">(AUD10V01)</tspan></text>
</svg>