<?xml version="1.0" encoding="utf-8"?>
<!-- Generator: Adobe Illustrator 28.1.0, SVG Export Plug-In . SVG Version: 6.00 Build 0)  -->
<svg version="1.1" id="Capa_1" xmlns="http://www.w3.org/2000/svg" xmlns:xlink="http://www.w3.org/1999/xlink" x="0px" y="0px"
	 viewBox="0 0 100 30" style="enable-background:new 0 0 100 30;" xml:space="preserve">
<style type="text/css">
	.st0{opacity:0.5;fill:#F7CE65;enable-background:new    ;}
	.st1{fill:#F7CE65;}
	.st2{font-family:'ArialMT';}
	.st3{font-size:1px;}
	.st4{font-family:'Arial-BoldMT';}
	.st5{font-size:1.5px;}
	.st6{fill:#444444;}
	.st7{fill:none;stroke:#1D1D1B;stroke-width:0.5;stroke-miterlimit:10;}
	.st8{font-size:2px;}
	.st9{font-family:'Arial-ItalicMT';}
	.st10{fill:none;}
</style>
<g id="Simbología">
	<g>
		<rect y="28" class="st0" width="2" height="1.9"/>
		<rect y="29.7" class="st1" width="2" height="0.3"/>
	</g>
	<g>
		<text transform="matrix(1.1 0 0 1 2.6802 29.3852)" class="st2 st3">Mención industrial y servicios</text>
	</g>
</g>
<g id="Cuadros">
	<g>
		<rect x="69.8" y="10" class="st0" width="30.2" height="8.2"/>
		<rect x="69.8" y="17.4" class="st1" width="30.2" height="1.5"/>
	</g>
	<g>
		<rect x="34.9" y="10" class="st0" width="30.2" height="8.2"/>
		<rect x="34.9" y="17.4" class="st1" width="30.2" height="1.5"/>
	</g>
	<g>
		<text transform="matrix(1 0 0 1 40.0589 13.475)" class="st4 st5">Seminario de Licenciatura I</text>
		<text transform="matrix(1 0 0 1 38.93 14.975)" class="st6 st2 st3">(Segundo semestre-2024 y Primer semestre-2025)</text>
	</g>
	<g>
		<text transform="matrix(1 0 0 1 76.92 13.5051)" class="st4 st5">Proyecto de</text>
		<text transform="matrix(1 0 0 1 85.92 13.5051)" class="st4 st5">T</text>
		<text transform="matrix(1 0 0 1 86.81 13.5051)" class="st4 st5">itulo II</text>
		<text transform="matrix(1 0 0 1 73.83 15.0051)" class="st6 st2 st3">(Segundo semestre-2024 y Primer semestre-2025)</text>
	</g>
</g>
<g id="Cuadros_00000011713212448141004910000013547692572296574644_">
	<g>
		<rect x="69.8" y="0.2" class="st0" width="30.2" height="8.2"/>
		<rect x="69.8" y="7.6" class="st1" width="30.2" height="1.5"/>
	</g>
	<g>
		<rect x="34.9" y="0.2" class="st0" width="30.2" height="8.2"/>
		<rect x="34.9" y="7.6" class="st1" width="30.2" height="1.5"/>
	</g>
	<g>
		<text transform="matrix(1 0 0 1 39.8502 3.673)" class="st4 st5">Seminario de Licenciatura II</text>
		<text transform="matrix(1 0 0 1 38.93 5.173)" class="st6 st2 st3">(Segundo semestre-2024 y Primer semestre-2025)</text>
	</g>
	<g>
		<text transform="matrix(1 0 0 1 76.92 3.7031)" class="st4 st5">Proyecto de</text>
		<text transform="matrix(1 0 0 1 85.92 3.7031)" class="st4 st5">T</text>
		<text transform="matrix(1 0 0 1 86.81 3.7031)" class="st4 st5">itulo II</text>
		<text transform="matrix(1 0 0 1 73.83 5.2031)" class="st6 st2 st3">(Segundo semestre-2024 y Primer semestre-2025)</text>
	</g>
</g>
<g id="Línea">
	<g>
		<line class="st7" x1="15.1" y1="21.8" x2="15.1" y2="19"/>
		<line class="st7" x1="0" y1="19.2" x2="100" y2="19.2"/>
		<line class="st7" x1="50" y1="21.9" x2="50" y2="19.2"/>
		<line class="st7" x1="84.9" y1="21.9" x2="84.9" y2="19.2"/>
	</g>
	<g>
		<text transform="matrix(1 0 0 1 10.28 24.0151)" class="st2 st8">Ciclo básico</text>
		<text transform="matrix(1 0 0 1 8.78 26.0151)" class="st9 st8">Semestre I a IV</text>
	</g>
	<g>
		<text transform="matrix(1 0 0 1 41.33 24.0551)" class="st2 st8">Ciclo Especializado</text>
		<text transform="matrix(1 0 0 1 42.16 26.0551)" class="st9 st8">Semestre V a VIII</text>
	</g>
	<g>
		<text transform="matrix(1 0 0 1 77.42 24.0451)" class="st2 st8">Ciclo Profesional</text>
		<text transform="matrix(1 0 0 1 77.64 26.0451)" class="st9 st8">Semestre IX a X</text>
	</g>
</g>
<rect x="46.8" y="17.8" class="st10" width="6.3" height="0.9"/>
<text transform="matrix(1 0 0 1 47.2482 18.478)" class="st2 st3">(AUD7I002)</text>
<rect x="46.8" y="7.9" class="st10" width="6.3" height="0.9"/>
<text transform="matrix(1 0 0 1 47.2482 8.621)" class="st2 st3">(AUD8I001)</text>
<rect x="82.3" y="17.8" class="st10" width="6.3" height="0.9"/>
<text transform="matrix(1 0 0 1 82.6946 18.478)" class="st2 st3">(AUD9I001)</text>
<rect x="81.8" y="7.9" class="st10" width="6.3" height="0.9"/>
<text transform="matrix(1 0 0 1 82.1782 8.6209)" class="st2 st3">(AUD10I01)</text>
</svg>
