<?xml version="1.0" encoding="UTF-8"?>
<svg id="Camada_1" xmlns="http://www.w3.org/2000/svg" version="1.1" viewBox="0 0 100 32.8">
  <!-- Generator: Adobe Illustrator 29.3.1, SVG Export Plug-In . SVG Version: 2.1.0 Build 151)  -->
  <defs>
    <style>
      .st0 {
        fill: #393f95;
      }

      .st1 {
        fill: #ff5432;
      }

      .st2 {
        font-family: Arial-BoldMT, Arial;
        font-size: 1.5px;
        font-weight: 700;
      }

      .st2, .st3, .st4, .st5, .st6 {
        isolation: isolate;
      }

      .st4, .st5 {
        font-size: 2px;
      }

      .st4, .st6 {
        font-family: ArialMT, Arial;
      }

      .st7 {
        fill: #ffa300;
      }

      .st8 {
        fill: #ffe7b6;
      }

      .st5 {
        font-family: Arial-ItalicMT, Arial;
        font-style: italic;
      }

      .st6 {
        font-size: 1px;
      }

      .st9 {
        fill: none;
        stroke: #1d1d1b;
        stroke-miterlimit: 10;
        stroke-width: .5px;
      }

      .st10 {
        fill: #d1cfe8;
      }

      .st11 {
        fill: #ffd3cc;
      }
    </style>
  </defs>
  <g id="Cuadros">
    <g>
      <rect class="st11" x="35.4" y="11" width="30.1" height="8.6"/>
      <rect class="st1" x="35.4" y="18.6" width="30.1" height="1.3"/>
    </g>
    <g>
      <rect class="st11" y="10.8" width="30.1" height="8.6"/>
      <rect class="st1" y="18.5" width="30.1" height="1.3"/>
    </g>
    <g>
      <rect class="st8" x="35.4" y="1.2" width="30.1" height="8.6"/>
      <rect class="st7" x="35.4" y="8.9" width="30.1" height="1.3"/>
    </g>
    <g class="st3">
      <text class="st2" transform="translate(40 15.9)"><tspan x="0" y="0">Seminario de Licenciatura I </tspan></text>
    </g>
    <g class="st3">
      <text class="st2" transform="translate(3.9 15.1)"><tspan x="0" y="0">Introducción a la Investigación </tspan><tspan x="6.8" y="1.8">en el Diseño</tspan></text>
    </g>
    <g class="st3">
      <text class="st2" transform="translate(39.1 5.2)"><tspan x="0" y="0">E. Artesanías: cultura, técnica y</tspan></text>
      <text class="st2" transform="translate(47 7)"><tspan x="0" y="0">producto</tspan></text>
    </g>
    <g>
      <g>
        <rect class="st8" x="21.3" y="29.5" width="2" height="1.9"/>
        <rect class="st7" x="21.3" y="31.3" width="2" height=".3"/>
      </g>
      <g class="st3">
        <text class="st6" transform="translate(24 30.9) scale(1.1 1)"><tspan x="0" y="0">Mención industrial y servicios</tspan></text>
      </g>
    </g>
    <g>
      <g>
        <rect class="st10" x="40.8" y="29.4" width="2" height="1.9"/>
        <rect class="st0" x="40.8" y="31.1" width="2" height=".3"/>
      </g>
      <g class="st3">
        <text class="st6" transform="translate(43.5 30.8) scale(1.1 1)"><tspan x="0" y="0">Mención visualidad y medios</tspan></text>
      </g>
    </g>
    <g>
      <g>
        <rect class="st11" x="60.1" y="29.5" width="2" height="1.9"/>
        <rect class="st1" x="60.1" y="31.3" width="2" height=".3"/>
      </g>
      <g class="st3">
        <text class="st6" transform="translate(62.8 30.8) scale(1.1 1)"><tspan x="0" y="0">Ambas menciones</tspan></text>
      </g>
    </g>
    <g>
      <g class="st3">
        <text class="st6" transform="translate(11.3 30.9) scale(1.1 1)"><tspan x="0" y="0">Electivo troncal</tspan></text>
      </g>
      <g class="st3">
        <text class="st2" transform="translate(8.8 31)"><tspan x="0" y="0">ET</tspan></text>
      </g>
    </g>
    <g>
      <g class="st3">
        <text class="st6" transform="translate(2.3 30.9) scale(1.1 1)"><tspan x="0" y="0">Electivo</tspan></text>
      </g>
      <g class="st3">
        <text class="st2" transform="translate(0 31)"><tspan x="0" y="0">E.</tspan></text>
      </g>
    </g>
  </g>
  <g id="Línea">
    <g>
      <line class="st9" x1="15.1" y1="22.6" x2="15.1" y2="19.8"/>
      <line class="st9" y1="19.9" x2="100" y2="19.9"/>
      <line class="st9" x1="50" y1="22.7" x2="50" y2="19.9"/>
      <line class="st9" x1="84.9" y1="22.7" x2="84.9" y2="19.9"/>
    </g>
    <g class="st3">
      <text class="st4" transform="translate(10.3 25.1)"><tspan x="0" y="0">Ciclo básico</tspan></text>
      <text class="st5" transform="translate(13.4 27.1)"><tspan x="0" y="0">I a IV</tspan></text>
    </g>
    <g class="st3">
      <text class="st4" transform="translate(41.4 25)"><tspan x="0" y="0">Ciclo Especializado</tspan></text>
      <text class="st5" transform="translate(46.8 27)"><tspan x="0" y="0">V a VIII</tspan></text>
    </g>
    <g class="st3">
      <text class="st4" transform="translate(77.5 25)"><tspan x="0" y="0">Ciclo profesional</tspan></text>
      <text class="st5" transform="translate(82.2 27)"><tspan x="0" y="0">IX a X</tspan></text>
    </g>
  </g>
</svg>