<?xml version="1.0" encoding="utf-8"?>
<!-- Generator: Adobe Illustrator 28.1.0, SVG Export Plug-In . SVG Version: 6.00 Build 0)  -->
<svg version="1.1" id="Capa_1" xmlns="http://www.w3.org/2000/svg" xmlns:xlink="http://www.w3.org/1999/xlink" x="0px" y="0px"
	 viewBox="0 0 100 55" style="enable-background:new 0 0 100 55;" xml:space="preserve">
<style type="text/css">
	.st0{opacity:0.5;fill:#F7CE65;enable-background:new    ;}
	.st1{fill:#F7CE65;}
	.st2{font-family:'ArialMT';}
	.st3{font-size:1px;}
	.st4{opacity:0.5;fill:#DA4F40;enable-background:new    ;}
	.st5{fill:#DA4F40;}
	.st6{font-family:'Arial-BoldMT';}
	.st7{font-size:1.5px;}
	.st8{fill:#444444;}
	.st9{fill:#FFFFFF;}
	.st10{fill:#1D1D1B;}
	.st11{fill:none;stroke:#1D1D1B;stroke-width:0.5;stroke-miterlimit:10;}
	.st12{font-size:2px;}
	.st13{font-family:'Arial-ItalicMT';}
</style>
<g id="Simbología">
	<g>
		<rect x="8.5" y="51.4" class="st0" width="2" height="1.9"/>
		<rect x="8.5" y="53.1" class="st1" width="2" height="0.3"/>
	</g>
	<g>
		<text transform="matrix(1.1 0 0 1 11.21 52.8253)" class="st2 st3">Mención industrial y servicios</text>
	</g>
	<g>
		<g>
			<rect x="28" y="51.5" class="st4" width="2" height="1.9"/>
			<rect x="28" y="53.2" class="st5" width="2" height="0.3"/>
		</g>
		<g>
			<text transform="matrix(1.1 0 0 1 30.71 52.8454)" class="st2 st3">Ambas menciones</text>
		</g>
	</g>
</g>
<g>
	<rect x="69.8" y="33" class="st0" width="30.2" height="8.2"/>
	<rect x="69.8" y="40.5" class="st1" width="30.2" height="1.5"/>
</g>
<g>
	<rect x="34.9" y="33" class="st0" width="30.2" height="8.2"/>
	<rect x="34.9" y="40.5" class="st1" width="30.2" height="1.5"/>
</g>
<g>
	<rect x="34.9" y="13.6" class="st4" width="30.2" height="8.2"/>
	<rect x="34.9" y="21" class="st5" width="30.2" height="1.5"/>
</g>
<g>
	<text transform="matrix(1 0 0 1 37.9 16.1007)" class="st6 st7">E. Representación arquitectónica</text>
	<text transform="matrix(1 0 0 1 35.36 18.1007)" class="st6 st7">mediante técnicas gráficas tradicionales</text>
	<text transform="matrix(1 0 0 1 44.49 19.6007)" class="st8 st2 st3">(Primer semestre-2025)</text>
</g>
<g>
	<text transform="matrix(1 0 0 1 40 36.5253)" class="st6 st7">Seminario de Licenciatura II</text>
	<text transform="matrix(1 0 0 1 38.72 38.0253)" class="st8 st2 st3">(Primer semestre-2025 y Segundo semestre-2024)</text>
</g>
<g>
	<text transform="matrix(1 0 0 1 77.72 36.5452)" class="st6 st7">Proyecto de Título  II</text>
	<text transform="matrix(1 0 0 1 79.1433 38.0247)" class="st8 st2 st3">(Segundo semestre-2024)</text>
</g>
<g>
	<text transform="matrix(1 0 0 1 47.2535 22.0382)" class="st9 st2 st3">(AUDIV030)</text>
</g>
<g>
	<rect x="34.9" y="3.7" class="st4" width="30.2" height="8.2"/>
	<rect x="34.9" y="11.1" class="st5" width="30.2" height="1.5"/>
</g>
<g>
	<text transform="matrix(1 0 0 1 39.84 6.2152)" class="st6 st7">E. Patrimonio y restauración</text>
	<text transform="matrix(1 0 0 1 44.88 8.2152)" class="st6 st7">arquitectónica</text>
	<text transform="matrix(1 0 0 1 44.22 9.7152)" class="st8 st2 st3">(Segundo semestre-2024)</text>
</g>
<g>
	<text transform="matrix(1 0 0 1 47.2835 12.1527)" class="st9 st2 st3">(AUDIV042)</text>
</g>
<g>
	<rect x="0" y="33" class="st4" width="30.1" height="8.2"/>
	<rect x="0" y="40.4" class="st5" width="30.1" height="1.5"/>
</g>
<g>
	<text transform="matrix(1 0 0 1 6.46 36.5053)" class="st6 st7">Procesos y Prototipos II</text>
	<text transform="matrix(1 0 0 1 3.77 38.0053)" class="st8 st2 st3">(Primer semestre-2025 y Segundo semestre-2024)</text>
</g>
<g>
	<text transform="matrix(1 0 0 1 12.1235 41.4428)" class="st9 st2 st3">(AUD40005)</text>
</g>
<g>
	<text transform="matrix(1 0 0 1 82.0372 41.4641)" class="st10 st2 st3"> (AUD10I01)</text>
</g>
<rect x="69.9" y="23.3" class="st0" width="30.2" height="8.2"/>
<rect x="69.9" y="30.8" class="st1" width="30.2" height="1.5"/>
<g>
	<text transform="matrix(1 0 0 1 77.735 26.8355)" class="st6 st7">Proyecto de Título I </text>
	<text transform="matrix(1 0 0 1 73.665 28.3355)" class="st8 st2 st3">(Primer semestre-2025 y Segundo semestre-2024)</text>
</g>
<g>
	<text transform="matrix(1 0 0 1 82.0522 31.7544)" class="st10 st2 st3">(AUD9I001) </text>
</g>
<g>
	<text transform="matrix(1 0 0 1 47.3148 41.4428)" class="st10 st2 st3">(AUD8I001)</text>
</g>
<g>
	<rect x="34.9" y="23.3" class="st0" width="30.2" height="8.2"/>
	<rect x="34.9" y="30.8" class="st1" width="30.2" height="1.5"/>
</g>
<g>
	<text transform="matrix(1 0 0 1 40 26.808)" class="st6 st7">Seminario de Licenciatura I </text>
	<text transform="matrix(1 0 0 1 44.2813 28.308)" class="st8 st2 st3">(Segundo semestre-2024)</text>
</g>
<g>
	<text transform="matrix(1 0 0 1 47.3148 31.7255)" class="st10 st2 st3">(AUD7I002)</text>
</g>
<g>
	<g>
		<text transform="matrix(1.1 0 0 1 2.3101 52.8551)" class="st2 st3">Electivo</text>
	</g>
	<g>
		<text transform="matrix(1 0 0 1 -3.997803e-02 53.0353)" class="st6 st7">E.</text>
	</g>
</g>
<g id="Línea">
	<g>
		<line class="st11" x1="15.1" y1="44.9" x2="15.1" y2="42.1"/>
		<line class="st11" x1="0" y1="42.2" x2="100" y2="42.2"/>
		<line class="st11" x1="50" y1="45" x2="50" y2="42.2"/>
		<line class="st11" x1="84.9" y1="45" x2="84.9" y2="42.2"/>
	</g>
	<g>
		<text transform="matrix(1 0 0 1 10.28 47.0552)" class="st2 st12">Ciclo básico</text>
		<text transform="matrix(1 0 0 1 8.78 49.0552)" class="st13 st12">Semestre I a IV</text>
	</g>
	<g>
		<text transform="matrix(1 0 0 1 41.33 47.0952)" class="st2 st12">Ciclo Especializado</text>
		<text transform="matrix(1 0 0 1 42.16 49.0952)" class="st13 st12">Semestre V a VIII</text>
	</g>
	<g>
		<text transform="matrix(1 0 0 1 77.42 47.0852)" class="st2 st12">Ciclo Profesional</text>
		<text transform="matrix(1 0 0 1 77.64 49.0852)" class="st13 st12">Semestre IX a X</text>
	</g>
</g>
</svg>
