<?xml version="1.0" encoding="utf-8"?>
<!-- Generator: Adobe Illustrator 28.1.0, SVG Export Plug-In . SVG Version: 6.00 Build 0)  -->
<svg version="1.1" id="Capa_1" xmlns="http://www.w3.org/2000/svg" xmlns:xlink="http://www.w3.org/1999/xlink" x="0px" y="0px"
	 viewBox="0 0 100 30" style="enable-background:new 0 0 100 30;" xml:space="preserve">
<style type="text/css">
	.st0{opacity:0.5;fill:#1F5592;enable-background:new    ;}
	.st1{fill:#1F5592;}
	.st2{font-family:'ArialMT';}
	.st3{font-size:1px;}
	.st4{opacity:0.5;fill:#DA4F40;enable-background:new    ;}
	.st5{fill:#DA4F40;}
	.st6{opacity:0.4;fill:#1F5592;enable-background:new    ;}
	.st7{font-family:'Arial-BoldMT';}
	.st8{font-size:1.5px;}
	.st9{fill:#444444;}
	.st10{fill:#FFFFFF;}
	.st11{fill:none;stroke:#1D1D1B;stroke-width:0.5;stroke-miterlimit:10;}
	.st12{font-size:2px;}
	.st13{font-family:'Arial-ItalicMT';}
</style>
<g id="Simbología">
	<g>
		<g>
			<rect y="28" class="st0" width="2" height="1.9"/>
			<rect y="29.7" class="st1" width="2" height="0.3"/>
		</g>
		<g>
			<text transform="matrix(1.1 0 0 1 2.7202 29.3701)" class="st2 st3">Mención visualidad y medios</text>
		</g>
	</g>
	<g>
		<g>
			<rect x="19.4" y="28" class="st4" width="2" height="1.9"/>
			<rect x="19.4" y="29.7" class="st5" width="2" height="0.3"/>
		</g>
		<g>
			<text transform="matrix(1.1 0 0 1 22.0703 29.3599)" class="st2 st3">Ambas menciones</text>
		</g>
	</g>
</g>
<g>
	<rect x="69.8" y="9.8" class="st6" width="30.2" height="8.3"/>
	<rect x="69.8" y="17.2" class="st1" width="30.2" height="1.5"/>
</g>
<g>
	<rect x="34.9" y="9.8" class="st6" width="30.2" height="8.2"/>
	<rect x="34.9" y="17.2" class="st1" width="30.2" height="1.5"/>
</g>
<g>
	<rect x="0" y="9.8" class="st4" width="30.1" height="8.2"/>
	<rect x="0" y="17.2" class="st5" width="30.1" height="1.5"/>
</g>
<g>
	<text transform="matrix(1 0 0 1 5.08 13.28)" class="st7 st8">Diseño, Estética y Sociedad</text>
	<text transform="matrix(1 0 0 1 3.76 14.78)" class="st9 st2 st3">(Primer semestre-2025 y Segundo semestre-2024)</text>
</g>
<g>
	<text transform="matrix(1 0 0 1 40 13.3)" class="st7 st8">Seminario de Licenciatura II</text>
	<text transform="matrix(1 0 0 1 38.61 14.8)" class="st9 st2 st3">(Primer semestre-2025 y Segundo semestre-2024 )</text>
</g>
<g>
	<text transform="matrix(1 0 0 1 76.71 13.32)" class="st7 st8">Proyecto de Título  II</text>
	<text transform="matrix(1 0 0 1 79.64 14.82)" class="st9 st2 st3">(Primer semestre-2025)</text>
</g>
<g>
	<text transform="matrix(1 0 0 1 12.2052 18.27)" class="st10 st2 st3">(AUD30002)</text>
</g>
<g>
	<rect x="0" class="st4" width="30.1" height="8.2"/>
	<rect x="0" y="7.4" class="st5" width="30.1" height="1.5"/>
</g>
<g>
	<text transform="matrix(1 0 0 1 4.04 2.51)" class="st7 st8">Introducción a la Investigación</text>
	<text transform="matrix(1 0 0 1 10.62 4.51)" class="st7 st8">en el Diseño</text>
	<text transform="matrix(1 0 0 1 3.76 6.01)" class="st9 st2 st3">(Primer semestre-2025 y Segundo semestre-2024)</text>
</g>
<g>
	<text transform="matrix(1 0 0 1 12.1439 8.5)" class="st10 st2 st3">(AUD40002)</text>
</g>
<g>
	<text transform="matrix(1 0 0 1 82.0637 18.2697)" class="st10 st2 st3">(AUD10V01)</text>
</g>
<rect x="69.8" y="0.1" class="st6" width="30.2" height="8.3"/>
<rect x="69.8" y="7.5" class="st1" width="30.2" height="1.5"/>
<g>
	<text transform="matrix(1 0 0 1 77.71 3.5871)" class="st7 st8">Proyecto de Título I </text>
	<text transform="matrix(1 0 0 1 79.0433 5.0598)" class="st9 st2 st3">( Segundo semestre-2024)</text>
</g>
<g>
	<text transform="matrix(1 0 0 1 81.8287 8.5)" class="st10 st2 st3">(AUD9V001) </text>
</g>
<g>
	<text transform="matrix(1 0 0 1 47.0831 18.27)" class="st10 st2 st3">(AUD8V001)</text>
</g>
<g>
	<rect x="34.9" y="0.1" class="st6" width="30.2" height="8.2"/>
	<rect x="34.9" y="7.5" class="st1" width="30.2" height="1.5"/>
</g>
<g>
	<text transform="matrix(1 0 0 1 40.0381 3.7841)" class="st7 st8">Seminario de Licenciatura I </text>
	<text transform="matrix(1 0 0 1 38.61 5.0595)" class="st9 st2 st3">(Primer semestre-2025 y Segundo semestre-2024 )</text>
</g>
<g>
	<text transform="matrix(1 0 0 1 46.9197 8.4998)" class="st10 st2 st3">(AUD7V002) </text>
</g>
<g id="Línea">
	<g>
		<line class="st11" x1="15.1" y1="21.6" x2="15.1" y2="18.8"/>
		<line class="st11" x1="0" y1="19" x2="100" y2="19"/>
		<line class="st11" x1="50" y1="21.8" x2="50" y2="19"/>
		<line class="st11" x1="84.9" y1="21.8" x2="84.9" y2="19"/>
	</g>
	<g>
		<text transform="matrix(1 0 0 1 10.28 23.83)" class="st2 st12">Ciclo básico</text>
		<text transform="matrix(1 0 0 1 8.78 25.83)" class="st13 st12">Semestre I a IV</text>
	</g>
	<g>
		<text transform="matrix(1 0 0 1 41.33 23.87)" class="st2 st12">Ciclo Especializado</text>
		<text transform="matrix(1 0 0 1 42.16 25.87)" class="st13 st12">Semestre V a VIII</text>
	</g>
	<g>
		<text transform="matrix(1 0 0 1 77.42 23.86)" class="st2 st12">Ciclo Profesional</text>
		<text transform="matrix(1 0 0 1 77.64 25.86)" class="st13 st12">Semestre IX a X</text>
	</g>
</g>
</svg>
