<?xml version="1.0" encoding="UTF-8"?>
<svg id="Capa_1" data-name="Capa 1" xmlns="http://www.w3.org/2000/svg" viewBox="0 0 100 40">
  <defs>
    <style>
      .cls-1 {
        letter-spacing: -.04em;
      }

      .cls-1, .cls-2, .cls-3 {
        font-family: Arial-BoldMT, Arial;
        font-size: 1.5px;
        font-weight: 700;
      }

      .cls-1, .cls-2, .cls-3, .cls-4, .cls-5, .cls-6, .cls-7, .cls-8, .cls-9, .cls-10, .cls-11 {
        isolation: isolate;
      }

      .cls-12 {
        fill: #fff;
        letter-spacing: .02em;
      }

      .cls-12, .cls-7, .cls-8, .cls-10 {
        font-family: ArialMT, Arial;
      }

      .cls-12, .cls-8, .cls-10 {
        font-size: 1px;
      }

      .cls-3 {
        letter-spacing: -.07em;
      }

      .cls-13, .cls-14 {
        fill: none;
      }

      .cls-15, .cls-4, .cls-11 {
        fill: #1f5592;
      }

      .cls-4, .cls-5 {
        opacity: .5;
      }

      .cls-5, .cls-16 {
        fill: #da4f40;
      }

      .cls-7, .cls-9 {
        font-size: 2px;
      }

      .cls-8 {
        fill: #444;
      }

      .cls-9 {
        font-family: Arial-ItalicMT, Arial;
        font-style: italic;
      }

      .cls-14 {
        stroke: #1d1d1b;
        stroke-miterlimit: 10;
        stroke-width: .5px;
      }

      .cls-11 {
        opacity: .4;
      }
    </style>
  </defs>
  <g>
    <rect class="cls-13" x="69.84" y="19.55" width="30.15" height="8.25"/>
    <rect class="cls-13" x="69.84" y="27" width="30.15" height="1.49"/>
  </g>
  <g>
    <rect class="cls-11" x="34.93" y="19.55" width="30.15" height="8.24"/>
    <rect class="cls-15" x="34.93" y="27" width="30.15" height="1.49"/>
  </g>
  <g class="cls-6">
    <g class="cls-6">
      <text class="cls-2" transform="translate(40.46 23.05)"><tspan x="0" y="0">Seminario de Licenciatura I</tspan></text>
    </g>
    <g class="cls-6">
      <text class="cls-8" transform="translate(44.93 24.55)"><tspan x="0" y="0">(Primer semestre-2025)</tspan></text>
    </g>
  </g>
  <g>
    <rect class="cls-13" x="34.92" y="0" width="30.15" height="8.2"/>
    <rect class="cls-13" x="34.92" y="7.43" width="30.15" height="1.5"/>
  </g>
  <g>
    <g>
      <rect class="cls-11" x="34.93" y="9.77" width="30.15" height="8.2"/>
      <rect class="cls-15" x="34.93" y="17.21" width="30.15" height="1.5"/>
    </g>
    <g class="cls-6">
      <g class="cls-6">
        <text class="cls-2" transform="translate(40.97 12.53)"><tspan x="0" y="0">E . Libro de</tspan></text>
        <text class="cls-1" transform="translate(49.14 12.53)"><tspan x="0" y="0"> </tspan></text>
        <text class="cls-2" transform="translate(49.5 12.53)"><tspan x="0" y="0">Artista,</tspan></text>
      </g>
      <g class="cls-6">
        <text class="cls-3" transform="translate(54.64 12.53)"><tspan x="0" y="0">T</tspan></text>
      </g>
      <g class="cls-6">
        <text class="cls-2" transform="translate(55.44 12.53)"><tspan x="0" y="0">eoría</tspan></text>
      </g>
      <g class="cls-6">
        <text class="cls-2" transform="translate(46.46 14.03)"><tspan x="0" y="0">y Práctica</tspan></text>
      </g>
      <g class="cls-6">
        <text class="cls-8" transform="translate(44.72 15.53)"><tspan x="0" y="0">(Primer semestre-2025)</tspan></text>
      </g>
    </g>
  </g>
  <g>
    <rect class="cls-13" x="69.84" y="9.77" width="30.15" height="8.25"/>
    <rect class="cls-13" x="69.84" y="17.22" width="30.15" height="1.49"/>
  </g>
  <g>
    <rect class="cls-5" y="19.55" width="30.15" height="8.24"/>
    <rect class="cls-16" y="27" width="30.15" height="1.49"/>
  </g>
  <g class="cls-6">
    <g class="cls-6">
      <text class="cls-2" transform="translate(6.25 23.05)"><tspan x="0" y="0">Lenguaje y Signiﬁcación</tspan></text>
    </g>
    <g class="cls-6">
      <text class="cls-8" transform="translate(3.76 24.55)"><tspan x="0" y="0">(Segundo semestre-2024 y Primer semestre-2025)</tspan></text>
    </g>
  </g>
  <g>
    <rect class="cls-5" y="9.75" width="30.15" height="8.24"/>
    <rect class="cls-16" y="17.2" width="30.15" height="1.49"/>
  </g>
  <g class="cls-6">
    <g class="cls-6">
      <text class="cls-2" transform="translate(11.24 13.26)"><tspan x="0" y="0">Proyecto II</tspan></text>
    </g>
    <g class="cls-6">
      <text class="cls-8" transform="translate(9.8 14.76)"><tspan x="0" y="0">(Primer semestre-2025)</tspan></text>
    </g>
  </g>
  <g>
    <rect class="cls-5" y=".02" width="30.15" height="8.24"/>
    <rect class="cls-16" y="7.47" width="30.15" height="1.49"/>
  </g>
  <g class="cls-6">
    <g class="cls-6">
      <text class="cls-2" transform="translate(11.45 3.52)"><tspan x="0" y="0">Proyecto I</tspan></text>
    </g>
    <g class="cls-6">
      <text class="cls-8" transform="translate(9.27 5.02)"><tspan x="0" y="0">(Segundo semestre-2024)</tspan></text>
    </g>
  </g>
  <g>
    <g>
      <polyline class="cls-4" points="9.59 38.01 10.59 38.01 10.59 39.93 8.59 39.93 8.59 38.01 9.59 38.01"/>
      <rect class="cls-15" x="8.59" y="39.72" width="2" height=".29"/>
    </g>
    <g class="cls-6">
      <g class="cls-6">
        <text class="cls-10" transform="translate(11.31 39.38) scale(1.1 1)"><tspan x="0" y="0">Mención visualidad y medios</tspan></text>
      </g>
    </g>
  </g>
  <g>
    <g>
      <rect class="cls-5" x="27.94" y="38.01" width="2" height="1.92"/>
      <rect class="cls-16" x="27.94" y="39.72" width="2" height=".29"/>
    </g>
    <g class="cls-6">
      <g class="cls-6">
        <text class="cls-10" transform="translate(30.66 39.37) scale(1.1 1)"><tspan x="0" y="0">Ambas menciones</tspan></text>
      </g>
    </g>
  </g>
  <g>
    <g class="cls-6">
      <g class="cls-6">
        <text class="cls-10" transform="translate(2.15 39.38) scale(1.1 1)"><tspan x="0" y="0">Electivo</tspan></text>
      </g>
    </g>
    <g class="cls-6">
      <g class="cls-6">
        <text class="cls-2" transform="translate(-.11 39.57)"><tspan x="0" y="0">E.</tspan></text>
      </g>
    </g>
  </g>
  <g id="Línea">
    <g>
      <line class="cls-14" x1="15.07" y1="31.4" x2="15.07" y2="28.6"/>
      <line class="cls-14" y1="28.73" x2="100" y2="28.73"/>
      <line class="cls-14" x1="50" y1="31.52" x2="50" y2="28.73"/>
      <line class="cls-14" x1="84.93" y1="31.52" x2="84.93" y2="28.73"/>
    </g>
    <g class="cls-6">
      <g class="cls-6">
        <text class="cls-7" transform="translate(10.28 33.59)"><tspan x="0" y="0">Ciclo básico</tspan></text>
      </g>
      <g class="cls-6">
        <text class="cls-9" transform="translate(8.78 35.59)"><tspan x="0" y="0">Semestre I a IV</tspan></text>
      </g>
    </g>
    <g class="cls-6">
      <g class="cls-6">
        <text class="cls-7" transform="translate(41.33 33.63)"><tspan x="0" y="0">Ciclo Especializado</tspan></text>
      </g>
      <g class="cls-6">
        <text class="cls-9" transform="translate(42.16 35.63)"><tspan x="0" y="0">Semestre V a VIII</tspan></text>
      </g>
    </g>
    <g class="cls-6">
      <g class="cls-6">
        <text class="cls-7" transform="translate(77.42 33.62)"><tspan x="0" y="0">Ciclo Profesional</tspan></text>
      </g>
      <g class="cls-6">
        <text class="cls-9" transform="translate(77.64 35.62)"><tspan x="0" y="0">Semestre IX a X</tspan></text>
      </g>
    </g>
  </g>
  <text class="cls-12" transform="translate(47.05 18.31)"><tspan x="0" y="0">(AUD6V017)</tspan></text>
  <text class="cls-12" transform="translate(47.06 28.1)"><tspan x="0" y="0">(AUD7V002)</tspan></text>
  <text class="cls-12" transform="translate(12.18 8.55)"><tspan x="0" y="0">(AUD10001)</tspan></text>
  <text class="cls-12" transform="translate(12.47 18.3)"><tspan x="0" y="0">(AUD2001)</tspan></text>
  <text class="cls-12" transform="translate(12.47 28.14)"><tspan x="0" y="0">(AUD1003)</tspan></text>
</svg>