<?xml version="1.0" encoding="UTF-8"?>
<svg id="Capa_2" data-name="Capa 2" xmlns="http://www.w3.org/2000/svg" viewBox="0 0 749.61 351.78">
  <defs>
    <style>
      .cls-1 {
        font-family: Arial-BoldMT, Arial;
        font-weight: 700;
      }

      .cls-1, .cls-2 {
        font-size: 18px;
      }

      .cls-1, .cls-2, .cls-3, .cls-4 {
        fill: #1d1d1b;
      }

      .cls-5 {
        fill: #fcc149;
      }

      .cls-6 {
        fill: #fff5c9;
      }

      .cls-7 {
        fill: #ffcab0;
      }

      .cls-8 {
        fill: #f0cc00;
      }

      .cls-9 {
        letter-spacing: -.02em;
      }

      .cls-10 {
        fill: #f78000;
      }

      .cls-11 {
        fill: #f75600;
      }

      .cls-2, .cls-3 {
        font-family: ArialMT, Arial;
      }

      .cls-3 {
        font-size: 15px;
      }

      .cls-12 {
        letter-spacing: -.02em;
      }

      .cls-13 {
        letter-spacing: -.02em;
      }

      .cls-14 {
        fill: #ffd7b0;
      }

      .cls-15 {
        fill: #ffe7b8;
      }

      .cls-16 {
        letter-spacing: -.01em;
      }

      .cls-17 {
        letter-spacing: 0em;
      }
    </style>
  </defs>
  <g id="Capa_1-2" data-name="Capa 1">
    <g>
      <text class="cls-3" transform="translate(337.77 346.91)"><tspan x="0" y="0">Semestres</tspan></text>
      <text class="cls-1" transform="translate(351.87 275.93)"><tspan x="0" y="0">Ciclo </tspan></text>
      <text class="cls-1" transform="translate(317.58 295.93)"><tspan x="0" y="0">especializado</tspan></text>
      <text class="cls-1" transform="translate(346.19 315.93)"><tspan x="0" y="0">V a VIII</tspan></text>
      <rect class="cls-4" y="237.47" width="749.61" height="5.48"/>
      <text class="cls-1" transform="translate(605.53 275.91)"><tspan x="0" y="0">Ciclo </tspan></text>
      <text class="cls-1" transform="translate(581.54 295.91)"><tspan x="0" y="0">profesional</tspan></text>
      <text class="cls-1" transform="translate(604.68 315.91)"><tspan x="0" y="0">IX a X</tspan></text>
      <text class="cls-1" transform="translate(69.37 276.04)"><tspan x="0" y="0">Ciclo básico</tspan></text>
      <text class="cls-1" transform="translate(100.06 296.03)"><tspan x="0" y="0">I a IV</tspan></text>
      <rect class="cls-4" x="117.9" y="237.47" width="5.48" height="18.89"/>
      <rect class="cls-4" x="372.58" y="237.47" width="5.48" height="18.89"/>
      <rect class="cls-4" x="626.24" y="237.47" width="5.48" height="18.89"/>
      <rect class="cls-10" x="266.8" y="217.01" width="216" height="9.67"/>
      <rect class="cls-8" x="266.8" y="40.01" width="216" height="9.67"/>
      <rect class="cls-14" x="266.8" y="158.5" width="216" height="58.51"/>
      <rect class="cls-6" x="266.8" width="216" height="40.01"/>
      <rect class="cls-5" x="266.8" y="139.16" width="216" height="9.67"/>
      <rect class="cls-15" x="266.8" y="58.18" width="216" height="80.98"/>
      <text class="cls-2" transform="translate(318.15 86.54)"><tspan x="0" y="0">Ele</tspan><tspan class="cls-9" x="26.02" y="0">c</tspan><tspan x="34.67" y="0">ti</tspan><tspan class="cls-13" x="43.67" y="0">v</tspan><tspan x="52.33" y="0">o Ambas </tspan></text>
      <text class="cls-2" transform="translate(333.81 106.54)"><tspan x="0" y="0">Menciones: </tspan></text>
      <text class="cls-2" transform="translate(305.26 126.54)"><tspan x="0" y="0">Sociedad y Moda</tspan></text>
      <text class="cls-2" transform="translate(319.27 185.8)"><tspan x="0" y="0">Seminario de </tspan></text>
      <text class="cls-2" transform="translate(306.81 205.79)"><tspan x="0" y="0">Licenciatu</tspan><tspan class="cls-17" x="81.05" y="0">r</tspan><tspan x="86.98" y="0">a I y II</tspan></text>
      <text class="cls-2" transform="translate(331.41 24.37)"><tspan x="0" y="0">Pr</tspan><tspan class="cls-9" x="18" y="0">oy</tspan><tspan x="36.33" y="0">e</tspan><tspan class="cls-9" x="46.34" y="0">c</tspan><tspan x="55" y="0">to</tspan><tspan class="cls-16" x="70.01" y="0"> </tspan><tspan x="74.77" y="0">V</tspan></text>
      <rect class="cls-11" x="521.8" y="217.01" width="216" height="9.67"/>
      <rect class="cls-7" x="521.8" y="158.5" width="216" height="58.51"/>
      <text class="cls-2" transform="translate(560.99 185.63)"><tspan x="0" y="0">Pr</tspan><tspan class="cls-9" x="18" y="0">oy</tspan><tspan x="36.33" y="0">e</tspan><tspan class="cls-12" x="46.34" y="0">c</tspan><tspan x="55" y="0">to de título </tspan></text>
      <text class="cls-2" transform="translate(618.98 205.63)"><tspan x="0" y="0">I y II</tspan></text>
    </g>
  </g>
</svg>