<?xml version="1.0" encoding="utf-8"?>
<!-- Generator: Adobe Illustrator 27.9.3, SVG Export Plug-In . SVG Version: 9.03 Build 53313)  -->
<svg version="1.1" id="Capa_1" xmlns="http://www.w3.org/2000/svg" xmlns:xlink="http://www.w3.org/1999/xlink" x="0px" y="0px"
	 viewBox="0 0 100 51" style="enable-background:new 0 0 100 51;" xml:space="preserve">
<style type="text/css">
	.st0{opacity:0.5;fill:#F7CE65;enable-background:new    ;}
	.st1{fill:#F7CE65;}
	.st2{font-family:'ArialMT';}
	.st3{font-size:1px;}
	.st4{opacity:0.5;fill:#DA4F40;enable-background:new    ;}
	.st5{fill:#DA4F40;}
	.st6{font-family:'Arial-BoldMT';}
	.st7{font-size:1.5px;}
	.st8{fill:#444444;}
	.st9{fill:#1D1D1B;}
	.st10{fill:#FFFFFF;}
	.st11{fill:none;stroke:#1D1D1B;stroke-width:0.5;stroke-miterlimit:10;}
	.st12{font-size:2px;}
	.st13{font-family:'Arial-ItalicMT';}
</style>
<g>
	<rect x="8.7" y="49" class="st0" width="2" height="1.9"/>
	<rect x="8.7" y="50.7" class="st1" width="2" height="0.3"/>
</g>
<g>
	<text transform="matrix(1.1 0 0 1 11.3706 50.3798)" class="st2 st3">Mención industrial y servicios</text>
</g>
<g>
	<g>
		<rect x="28.3" y="49" class="st4" width="2" height="1.9"/>
		<rect x="28.3" y="50.7" class="st5" width="2" height="0.3"/>
	</g>
	<g>
		<text transform="matrix(1.1 0 0 1 31.0104 50.3402)" class="st2 st3">Ambas menciones</text>
	</g>
</g>
<g>
	<g>
		<text transform="matrix(1.1 0 0 1 2.2603 50.2299)" class="st2 st3">Electivo</text>
	</g>
	<g>
		<text transform="matrix(1 0 0 1 -8.999634e-02 50.42)" class="st6 st7">E.</text>
	</g>
</g>
<g>
	<rect x="69.8" y="30.7" class="st0" width="30.2" height="8.2"/>
	<rect x="69.8" y="38.2" class="st1" width="30.2" height="1.5"/>
</g>
<g>
	<rect x="34.9" y="30.7" class="st0" width="30.2" height="8.2"/>
	<rect x="34.9" y="38.1" class="st1" width="30.2" height="1.5"/>
</g>
<g>
	<text transform="matrix(1 0 0 1 46.08 34.18)" class="st6 st7">Proyecto V</text>
	<text transform="matrix(1 0 0 1 44.72 35.68)" class="st8 st2 st3">(Primer semestre-2025)</text>
</g>
<g>
	<text transform="matrix(1 0 0 1 78.084 34.2386)" class="st6 st7">Proyecto de Título I</text>
	<text transform="matrix(1 0 0 1 79.11 35.6999)" class="st8 st2 st3">(Segundo semestre-2024)</text>
</g>
<g>
	<text transform="matrix(1 0 0 1 47.2352 39.25)" class="st9 st2 st3">(AUD5I001)</text>
</g>
<g>
	<text transform="matrix(1 0 0 1 82.3016 39.3019)" class="st9 st2 st3">(AUD9I001)</text>
</g>
<g>
	<rect x="34.9" y="20.9" class="st4" width="30.2" height="8.2"/>
	<rect x="34.9" y="28.4" class="st5" width="30.2" height="1.5"/>
</g>
<g>
	<text transform="matrix(1 0 0 1 42.91 24.41)" class="st6 st7">E. Sociedad y Moda</text>
	<text transform="matrix(1 0 0 1 44.14 25.91)" class="st8 st2 st3">(Segundo semestre-2024)</text>
</g>
<g>
	<text transform="matrix(1 0 0 1 47.1797 29.48)" class="st10 st2 st3">(AUDIV026)</text>
</g>
<g>
	<rect x="34.9" y="10.8" class="st0" width="30.2" height="8.2"/>
	<rect x="34.9" y="18.6" class="st1" width="30.2" height="1.5"/>
</g>
<g>
	<text transform="matrix(1 0 0 1 40.2466 14.59)" class="st6 st7">Seminario de Licenciatura I</text>
	<text transform="matrix(1 0 0 1 38.72 16.09)" class="st8 st2 st3">(Segundo semestre-2024 y Primer semestre-2025)</text>
</g>
<g>
	<text transform="matrix(1 0 0 1 47.2352 19.66)" class="st9 st2 st3">(AUD7I002)</text>
</g>
<g id="Línea">
	<g>
		<line class="st11" x1="15.1" y1="42.5" x2="15.1" y2="39.7"/>
		<line class="st11" x1="0" y1="39.9" x2="100" y2="39.9"/>
		<line class="st11" x1="50" y1="42.6" x2="50" y2="39.9"/>
		<line class="st11" x1="84.9" y1="42.6" x2="84.9" y2="39.9"/>
	</g>
	<g>
		<text transform="matrix(1 0 0 1 10.28 44.72)" class="st2 st12">Ciclo básico</text>
		<text transform="matrix(1 0 0 1 8.78 46.72)" class="st13 st12">Semestre I a IV</text>
	</g>
	<g>
		<text transform="matrix(1 0 0 1 41.33 44.76)" class="st2 st12">Ciclo Especializado</text>
		<text transform="matrix(1 0 0 1 42.16 46.76)" class="st13 st12">Semestre V a VIII</text>
	</g>
	<g>
		<text transform="matrix(1 0 0 1 77.42 44.75)" class="st2 st12">Ciclo Profesional</text>
		<text transform="matrix(1 0 0 1 77.64 46.75)" class="st13 st12">Semestre IX a X</text>
	</g>
</g>
<g>
	<rect x="34.9" y="0.6" class="st0" width="30.2" height="8.2"/>
	<rect x="34.9" y="8.4" class="st1" width="30.2" height="1.5"/>
</g>
<g>
	<text transform="matrix(1 0 0 1 40.0381 4.4299)" class="st6 st7">Seminario de Licenciatura II</text>
	<text transform="matrix(1 0 0 1 38.72 5.9299)" class="st8 st2 st3">(Segundo semestre-2024 y Primer semestre-2025)</text>
</g>
<g>
	<text transform="matrix(1 0 0 1 47.235 9.5)" class="st9 st2 st3">(AUD8I001)</text>
</g>
<g>
	<rect x="69.8" y="20.9" class="st0" width="30.2" height="8.2"/>
	<rect x="69.8" y="28.4" class="st1" width="30.2" height="1.5"/>
</g>
<g>
	<text transform="matrix(1 0 0 1 77.9525 24.4192)" class="st6 st7">Proyecto de Título II</text>
	<text transform="matrix(1 0 0 1 79.11 25.8997)" class="st8 st2 st3">(Segundo semestre-2024)</text>
</g>
<g>
	<text transform="matrix(1 0 0 1 82.3016 29.4914)" class="st9 st2 st3">(AUD10I01)</text>
</g>
</svg>
