<?xml version="1.0" encoding="UTF-8"?>
<svg id="Guías" xmlns="http://www.w3.org/2000/svg" viewBox="0 0 100 30">
  <defs>
    <style>
      .cls-1, .cls-2, .cls-3, .cls-4 {
        font-family: ArialMT, Arial;
      }

      .cls-5, .cls-6, .cls-7, .cls-8, .cls-9 {
        stroke-width: 0px;
      }

      .cls-5, .cls-7, .cls-9 {
        fill: #1f5592;
      }

      .cls-10 {
        fill: #ff5432;
      }

      .cls-10, .cls-11 {
        stroke: #1d1d1b;
        stroke-miterlimit: 10;
        stroke-width: .5px;
      }

      .cls-12 {
        font-family: Arial-BoldMT, Arial;
        font-size: 1.5px;
        font-weight: 700;
      }

      .cls-12, .cls-2, .cls-13 {
        fill: #000;
      }

      .cls-6, .cls-8 {
        fill: #da4f40;
      }

      .cls-11 {
        fill: none;
      }

      .cls-14 {
        font-family: Arial-ItalicMT, Arial;
        font-style: italic;
      }

      .cls-2, .cls-3, .cls-4 {
        font-size: 1px;
      }

      .cls-3 {
        fill: #fff;
        letter-spacing: .03em;
      }

      .cls-7, .cls-8 {
        opacity: .5;
      }

      .cls-4 {
        fill: #444;
      }

      .cls-13 {
        font-size: 2px;
      }

      .cls-9 {
        opacity: .4;
      }
    </style>
  </defs>
  <g>
    <rect class="cls-9" x="69.86" y="9.79" width="30.15" height="8.2"/>
    <rect class="cls-5" x="69.86" y="17.23" width="30.15" height="1.5"/>
  </g>
  <g>
    <rect class="cls-9" x="34.93" y="9.79" width="30.15" height="8.2"/>
    <rect class="cls-5" x="34.93" y="17.23" width="30.15" height="1.5"/>
  </g>
  <g>
    <g>
      <rect class="cls-7" x="8.68" y="28.03" width="2" height="1.92"/>
      <rect class="cls-5" x="8.68" y="29.74" width="2" height=".29"/>
    </g>
    <text class="cls-2" transform="translate(11.41 29.4) scale(1.1 1)"><tspan x="0" y="0">Mención visualidad y medios</tspan></text>
  </g>
  <g>
    <g>
      <rect class="cls-8" x="28.04" y="28.03" width="2" height="1.92"/>
      <rect class="cls-6" x="28.04" y="29.74" width="2" height=".29"/>
    </g>
    <text class="cls-2" transform="translate(30.75 29.4) scale(1.1 1)"><tspan x="0" y="0">Ambas menciones</tspan></text>
  </g>
  <g>
    <text class="cls-2" transform="translate(2.25 29.4) scale(1.1 1)"><tspan x="0" y="0">Electivo</tspan></text>
    <text class="cls-12" transform="translate(-.1 29.59)"><tspan x="0" y="0">E.</tspan></text>
  </g>
  <g>
    <rect class="cls-9" x="34.93" y=".03" width="30.15" height="8.2"/>
    <rect class="cls-5" x="34.93" y="7.47" width="30.15" height="1.5"/>
  </g>
  <text transform="translate(39.63 3.53)"><tspan class="cls-12"><tspan x="0" y="0">E. Fundamentos fotográficos</tspan></tspan><tspan class="cls-4"><tspan x="5.1" y="1.5">(Primer semestre-2025)</tspan></tspan></text>
  <text transform="translate(40.34 12.41)"><tspan class="cls-12"><tspan x="0" y="0">E. Lenguaje y composición </tspan></tspan><tspan class="cls-12"><tspan x=".54" y="1.8">fotográfica para el diseño</tspan></tspan><tspan class="cls-4"><tspan x="4.39" y="3.3">(Primer semestre-2024)</tspan></tspan></text>
  <text transform="translate(77.97 13.33)"><tspan class="cls-12"><tspan x="0" y="0">Proyecto de Título I</tspan></tspan><tspan class="cls-4"><tspan x="1.68" y="1.5">(Primer semestre-2025) </tspan></tspan></text>
  <text class="cls-3" transform="translate(47.06 8.53)"><tspan x="0" y="0">(AUD6V010)</tspan></text>
  <text class="cls-3" transform="translate(81.99 18.31)"><tspan x="0" y="0">(AUD9V001)</tspan></text>
  <text class="cls-3" transform="translate(47.06 18.29)"><tspan x="0" y="0">(AUD5V010)</tspan></text>
  <g>
    <line class="cls-11" x1="15.08" y1="21.65" x2="15.08" y2="18.86"/>
    <line class="cls-10" x1="0" y1="18.98" x2="100.01" y2="18.98"/>
    <line class="cls-11" x1="50.01" y1="21.78" x2="50.01" y2="18.98"/>
    <line class="cls-11" x1="84.93" y1="21.78" x2="84.93" y2="18.98"/>
  </g>
  <text class="cls-13" transform="translate(10.29 23.85)"><tspan class="cls-1"><tspan x="0" y="0">Ciclo básico</tspan></tspan><tspan class="cls-14"><tspan x="-1.5" y="2">Semestre I a IV</tspan></tspan></text>
  <text class="cls-13" transform="translate(41.34 23.88)"><tspan class="cls-1"><tspan x="0" y="0">Ciclo Especializado</tspan></tspan><tspan class="cls-14"><tspan x=".83" y="2">Semestre V a VIII</tspan></tspan></text>
  <text class="cls-13" transform="translate(77.43 23.87)"><tspan class="cls-1"><tspan x="0" y="0">Ciclo Profesional</tspan></tspan><tspan class="cls-14"><tspan x=".22" y="2">Semestre IX a X</tspan></tspan></text>
  <g>
    <rect class="cls-8" x="0" y="9.81" width="30.15" height="8.25"/>
    <rect class="cls-6" x="0" y="17.25" width="30.15" height="1.49"/>
  </g>
  <text transform="translate(11.13 13.33)"><tspan class="cls-12"><tspan x="0" y="0">Proyecto IV</tspan></tspan><tspan class="cls-4"><tspan x="-1.68" y="1.5">(Segundo semestre-2024)</tspan></tspan></text>
  <text class="cls-3" transform="translate(12.2 18.36)"><tspan x="0" y="0">(AUD40001)</tspan></text>
  <g>
    <rect class="cls-9" x="69.86" width="30.15" height="8.2"/>
    <rect class="cls-5" x="69.86" y="7.44" width="30.15" height="1.5"/>
  </g>
  <text transform="translate(77.77 3.54)"><tspan class="cls-12"><tspan x="0" y="0">Proyecto de Título II</tspan></tspan><tspan class="cls-4"><tspan x="1.89" y="1.5">(Primer semestre-2025) </tspan></tspan></text>
  <text class="cls-3" transform="translate(81.99 8.52)"><tspan x="0" y="0">(AUD10V01)</tspan></text>
</svg>