<?xml version="1.0" encoding="UTF-8"?>
<svg id="Guías" xmlns="http://www.w3.org/2000/svg" viewBox="0 0 100 30">
  <defs>
    <style>
      .cls-1, .cls-2, .cls-3, .cls-4, .cls-5 {
        font-family: ArialMT, Arial;
      }

      .cls-6, .cls-7, .cls-8, .cls-9 {
        stroke-width: 0px;
      }

      .cls-6, .cls-8 {
        fill: #f7ce65;
      }

      .cls-10 {
        fill: #ff5432;
      }

      .cls-10, .cls-11 {
        stroke: #1d1d1b;
        stroke-miterlimit: 10;
        stroke-width: .5px;
      }

      .cls-12 {
        font-family: Arial-BoldMT, Arial;
        font-size: 1.5px;
        font-weight: 700;
      }

      .cls-12, .cls-2, .cls-13 {
        fill: #000;
      }

      .cls-7, .cls-9 {
        fill: #da4f40;
      }

      .cls-11 {
        fill: none;
      }

      .cls-14 {
        font-family: Arial-ItalicMT, Arial;
        font-style: italic;
      }

      .cls-2, .cls-3, .cls-4, .cls-5 {
        font-size: 1px;
      }

      .cls-8, .cls-9 {
        opacity: .5;
      }

      .cls-3 {
        fill: #fff;
      }

      .cls-3, .cls-4 {
        letter-spacing: .03em;
      }

      .cls-4 {
        fill: #1d1d1b;
      }

      .cls-5 {
        fill: #444;
      }

      .cls-13 {
        font-size: 2px;
      }
    </style>
  </defs>
  <g>
    <rect class="cls-8" x="69.85" y="9.76" width="30.15" height="8.24"/>
    <rect class="cls-6" x="69.85" y="17.21" width="30.15" height="1.49"/>
  </g>
  <g>
    <rect class="cls-8" x="0" y="27.99" width="2" height="1.92"/>
    <rect class="cls-6" x="0" y="29.71" width="2" height=".29"/>
  </g>
  <text class="cls-2" transform="translate(2.68 29.38) scale(1.1 1)"><tspan x="0" y="0">Mención industrial y servicios</tspan></text>
  <g>
    <g>
      <rect class="cls-9" x="19.59" y="28" width="2" height="1.92"/>
      <rect class="cls-7" x="19.59" y="29.72" width="2" height=".29"/>
    </g>
    <text class="cls-2" transform="translate(22.3 29.37) scale(1.1 1)"><tspan x="0" y="0">Ambas menciones</tspan></text>
  </g>
  <g>
    <rect class="cls-8" x="34.93" y="9.78" width="30.15" height="8.24"/>
    <rect class="cls-6" x="34.93" y="17.23" width="30.15" height="1.49"/>
  </g>
  <text transform="translate(46.08 13.28)"><tspan class="cls-12"><tspan x="0" y="0">Proyecto V</tspan></tspan><tspan class="cls-5"><tspan x="-1.36" y="1.5">(Primer semestre-2024)</tspan></tspan></text>
  <text transform="translate(77.97 13.31)"><tspan class="cls-12"><tspan x="0" y="0">Proyecto de Título I</tspan></tspan><tspan class="cls-5"><tspan x="1.68" y="1.5">(Primer semestre-2025) </tspan></tspan></text>
  <text class="cls-4" transform="translate(82.18 18.34)"><tspan x="0" y="0">(AUD9I001)</tspan></text>
  <text class="cls-4" transform="translate(47.25 18.27)"><tspan x="0" y="0">(AUD5I001)</tspan></text>
  <g>
    <rect class="cls-9" x="0" y="9.84" width="30.15" height="8.25"/>
    <rect class="cls-7" y="17.29" width="30.15" height="1.49"/>
  </g>
  <text transform="translate(6.67 13.36)"><tspan class="cls-12"><tspan x="0" y="0">Procesos y Prototipos II</tspan></tspan><tspan class="cls-5"><tspan x="2.78" y="1.5">(Segundo semestre-2024)</tspan></tspan></text>
  <text class="cls-3" transform="translate(12.19 18.39)"><tspan x="0" y="0">(AUD40005)</tspan></text>
  <g>
    <line class="cls-11" x1="15.08" y1="21.63" x2="15.08" y2="18.83"/>
    <line class="cls-10" x1="0" y1="18.96" x2="100" y2="18.96"/>
    <line class="cls-11" x1="50" y1="21.75" x2="50" y2="18.96"/>
    <line class="cls-11" x1="84.93" y1="21.75" x2="84.93" y2="18.96"/>
  </g>
  <text class="cls-13" transform="translate(10.29 23.82)"><tspan class="cls-1"><tspan x="0" y="0">Ciclo básico</tspan></tspan><tspan class="cls-14"><tspan x="-1.5" y="2">Semestre I a IV</tspan></tspan></text>
  <text class="cls-13" transform="translate(41.33 23.86)"><tspan class="cls-1"><tspan x="0" y="0">Ciclo Especializado</tspan></tspan><tspan class="cls-14"><tspan x=".83" y="2">Semestre V a VIII</tspan></tspan></text>
  <text class="cls-13" transform="translate(77.42 23.85)"><tspan class="cls-1"><tspan x="0" y="0">Ciclo Profesional</tspan></tspan><tspan class="cls-14"><tspan x=".22" y="2">Semestre IX a X</tspan></tspan></text>
</svg>