<?xml version="1.0" encoding="UTF-8"?>
<svg id="Guías" xmlns="http://www.w3.org/2000/svg" viewBox="0 0 100 50">
  <defs>
    <style>
      .cls-1, .cls-2, .cls-3, .cls-4 {
        font-family: ArialMT, Arial;
      }

      .cls-5, .cls-6, .cls-7 {
        fill: #1f5592;
        stroke-width: 0px;
      }

      .cls-8 {
        fill: #ff5432;
      }

      .cls-8, .cls-9 {
        stroke: #1d1d1b;
        stroke-miterlimit: 10;
        stroke-width: .5px;
      }

      .cls-10 {
        font-family: Arial-BoldMT, Arial;
        font-size: 1.5px;
        font-weight: 700;
      }

      .cls-10, .cls-2, .cls-11 {
        fill: #000;
      }

      .cls-9 {
        fill: none;
      }

      .cls-12 {
        font-family: Arial-ItalicMT, Arial;
        font-style: italic;
      }

      .cls-2, .cls-3, .cls-4 {
        font-size: 1px;
      }

      .cls-3 {
        fill: #fff;
        letter-spacing: .03em;
      }

      .cls-6 {
        opacity: .5;
      }

      .cls-4 {
        fill: #444;
      }

      .cls-11 {
        font-size: 2px;
      }

      .cls-7 {
        opacity: .4;
      }
    </style>
  </defs>
  <g>
    <g>
      <rect class="cls-6" x="8.68" y="48.04" width="2" height="1.92"/>
      <rect class="cls-5" x="8.68" y="49.75" width="2" height=".29"/>
    </g>
    <text class="cls-2" transform="translate(11.4 49.41) scale(1.1 1)"><tspan x="0" y="0">Mención visualidad y medios</tspan></text>
  </g>
  <g>
    <text class="cls-2" transform="translate(2.24 49.39) scale(1.1 1)"><tspan x="0" y="0">Electivo</tspan></text>
    <text class="cls-10" transform="translate(-.11 49.58)"><tspan x="0" y="0">E.</tspan></text>
  </g>
  <g>
    <rect class="cls-7" x="34.92" y="29.8" width="30.15" height="8.2"/>
    <rect class="cls-5" x="34.92" y="37.24" width="30.15" height="1.5"/>
  </g>
  <text transform="translate(41.25 33.31)"><tspan class="cls-10"><tspan x="0" y="0">E. Educación tipográfica</tspan></tspan><tspan class="cls-4"><tspan x="2.94" y="1.5">(Segundo semestre-2024)</tspan></tspan></text>
  <text class="cls-3" transform="translate(47.05 38.31)"><tspan x="0" y="0">(AUD6V018)</tspan></text>
  <g>
    <line class="cls-9" x1="15.07" y1="41.64" x2="15.07" y2="38.85"/>
    <line class="cls-8" y1="38.97" x2="100" y2="38.97"/>
    <line class="cls-9" x1="50" y1="41.77" x2="50" y2="38.97"/>
    <line class="cls-9" x1="84.93" y1="41.77" x2="84.93" y2="38.97"/>
  </g>
  <text class="cls-11" transform="translate(10.28 43.84)"><tspan class="cls-1"><tspan x="0" y="0">Ciclo básico</tspan></tspan><tspan class="cls-12"><tspan x="-1.5" y="2">Semestre I a IV</tspan></tspan></text>
  <text class="cls-11" transform="translate(41.33 43.87)"><tspan class="cls-1"><tspan x="0" y="0">Ciclo Especializado</tspan></tspan><tspan class="cls-12"><tspan x=".83" y="2">Semestre V a VIII</tspan></tspan></text>
  <text class="cls-11" transform="translate(77.42 43.86)"><tspan class="cls-1"><tspan x="0" y="0">Ciclo Profesional</tspan></tspan><tspan class="cls-12"><tspan x=".22" y="2">Semestre IX a X</tspan></tspan></text>
  <g>
    <rect class="cls-7" x="69.86" y="29.8" width="30.15" height="8.2"/>
    <rect class="cls-5" x="69.86" y="37.24" width="30.15" height="1.5"/>
  </g>
  <text transform="translate(75.18 33.34)"><tspan class="cls-10"><tspan x="0" y="0">Seminario de Licenciatura I</tspan></tspan><tspan class="cls-4"><tspan x="3.94" y="1.5">(Segundo semestre-2024) </tspan></tspan></text>
  <text class="cls-3" transform="translate(81.99 38.37)"><tspan x="0" y="0">(AUD7V002)</tspan></text>
  <g>
    <rect class="cls-7" x="69.85" y="20.02" width="30.15" height="8.2"/>
    <rect class="cls-5" x="69.85" y="27.46" width="30.15" height="1.5"/>
  </g>
  <g>
    <rect class="cls-7" x="69.85" y="10.24" width="30.15" height="8.2"/>
    <rect class="cls-5" x="69.85" y="17.68" width="30.15" height="1.5"/>
  </g>
  <text transform="translate(77.97 13.78)"><tspan class="cls-10"><tspan x="0" y="0">Proyecto de Título I</tspan></tspan><tspan class="cls-4"><tspan x="1.15" y="1.5">(Segundo semestre-2024) </tspan></tspan></text>
  <text class="cls-3" transform="translate(81.98 18.81)"><tspan x="0" y="0">(AUD9V001)</tspan></text>
  <g>
    <rect class="cls-7" x="69.85" y=".46" width="30.15" height="8.2"/>
    <rect class="cls-5" x="69.85" y="7.9" width="30.15" height="1.5"/>
  </g>
  <text transform="translate(77.77 4)"><tspan class="cls-10"><tspan x="0" y="0">Proyecto de Título II</tspan></tspan><tspan class="cls-4"><tspan x="1.36" y="1.5">(Segundo semestre-2024) </tspan></tspan></text>
  <text class="cls-3" transform="translate(81.98 9.03)"><tspan x="0" y="0">(AUD10V01)</tspan></text>
  <text transform="translate(74.96 23.56)"><tspan class="cls-10"><tspan x="0" y="0">Seminario de Licenciatura II</tspan></tspan><tspan class="cls-4"><tspan x="4.6" y="1.5">(Primer Semestre-2024) </tspan></tspan></text>
  <text class="cls-3" transform="translate(81.98 28.52)"><tspan x="0" y="0">(AUD8V001)</tspan></text>
</svg>