<?xml version="1.0" encoding="UTF-8"?>
<svg id="Capa_1" data-name="Capa 1" xmlns="http://www.w3.org/2000/svg" viewBox="0 0 100 40">
  <defs>
    <style>
      .cls-1, .cls-2, .cls-3, .cls-4, .cls-5, .cls-6, .cls-7, .cls-8, .cls-9, .cls-10, .cls-11 {
        isolation: isolate;
      }

      .cls-1, .cls-5 {
        font-family: Arial-BoldMT, Arial;
        font-size: 1.5px;
        font-weight: 700;
      }

      .cls-2, .cls-10 {
        opacity: .5;
      }

      .cls-2, .cls-12 {
        fill: #da4f40;
      }

      .cls-4, .cls-6, .cls-7, .cls-9, .cls-11 {
        font-family: ArialMT, Arial;
      }

      .cls-4, .cls-8 {
        font-size: 2px;
      }

      .cls-5 {
        letter-spacing: -.11em;
      }

      .cls-6 {
        fill: #fff;
      }

      .cls-6, .cls-7, .cls-9, .cls-11 {
        font-size: 1px;
      }

      .cls-7 {
        fill: #444;
      }

      .cls-8 {
        font-family: Arial-ItalicMT, Arial;
        font-style: italic;
      }

      .cls-9 {
        fill: #1d1d1b;
      }

      .cls-10, .cls-13 {
        fill: #f7ce65;
      }

      .cls-14 {
        fill: none;
        stroke: #1d1d1b;
        stroke-miterlimit: 10;
        stroke-width: .5px;
      }
    </style>
  </defs>
  <g id="Simbología">
    <g id="I">
      <g>
        <g>
          <rect class="cls-10" x="12.63" y="37.87" width="2" height="1.92"/>
          <rect class="cls-13" x="12.63" y="39.58" width="2" height=".29"/>
        </g>
        <g class="cls-3">
          <text class="cls-11" transform="translate(15.32 39.26) scale(1.1 1)"><tspan x="0" y="0">Mención industrial y servicios</tspan></text>
        </g>
      </g>
    </g>
    <g id="DOS">
      <g>
        <g>
          <rect class="cls-2" x="32.22" y="37.83" width="2" height="1.92"/>
          <rect class="cls-12" x="32.22" y="39.54" width="2" height=".29"/>
        </g>
        <g class="cls-3">
          <text class="cls-11" transform="translate(34.94 39.2) scale(1.1 1)"><tspan x="0" y="0">Ambas menciones</tspan></text>
        </g>
      </g>
    </g>
    <g id="ELECTIVO">
      <g id="TRONCAL">
        <g class="cls-3">
          <text class="cls-1" transform="translate(-.06 39.44)"><tspan x="0" y="0">E</tspan></text>
          <text class="cls-5" transform="translate(.94 39.44)"><tspan x="0" y="0">T</tspan></text>
          <text class="cls-1" transform="translate(1.69 39.44)"><tspan x="0" y="0">.</tspan></text>
        </g>
        <g class="cls-3">
          <text class="cls-11" transform="translate(2.57 39.25) scale(1.1 1)"><tspan x="0" y="0">Electivo troncal</tspan></text>
        </g>
      </g>
    </g>
  </g>
  <g id="Cuadros">
    <g id="AMARILLO">
      <g id="A2">
        <g>
          <rect class="cls-10" x="34.91" y="19.71" width="30.15" height="8.24"/>
          <rect class="cls-13" x="34.91" y="27.16" width="30.15" height="1.49"/>
        </g>
        <g>
          <rect class="cls-10" x="34.85" y="9.78" width="30.15" height="8.24"/>
          <rect class="cls-13" x="34.85" y="17.23" width="30.15" height="1.49"/>
        </g>
        <g>
          <rect class="cls-10" x="34.91" width="30.15" height="8.24"/>
          <rect class="cls-13" x="34.91" y="7.45" width="30.15" height="1.49"/>
        </g>
      </g>
      <g id="A3">
        <g>
          <rect class="cls-10" x="69.84" y="19.71" width="30.15" height="8.24"/>
          <rect class="cls-13" x="69.84" y="27.16" width="30.15" height="1.49"/>
        </g>
        <g>
          <rect class="cls-10" x="69.83" y="9.98" width="30.15" height="8.24"/>
          <rect class="cls-13" x="69.83" y="17.43" width="30.15" height="1.49"/>
        </g>
      </g>
    </g>
    <g id="ROJO">
      <g id="_1" data-name=" 1">
        <g>
          <rect class="cls-2" x=".02" y="19.65" width="30.15" height="8.24"/>
          <rect class="cls-12" x=".02" y="27.1" width="30.15" height="1.49"/>
        </g>
        <g>
          <rect class="cls-2" x="-.01" y="10.03" width="30.15" height="8.2"/>
          <rect class="cls-12" x="-.01" y="17.47" width="30.15" height="1.5"/>
        </g>
      </g>
    </g>
  </g>
  <g id="TEXTO">
    <g id="T1">
      <g class="cls-3">
        <text class="cls-1" transform="translate(11.55 23.52)"><tspan x="0" y="0">Proyecto I</tspan></text>
        <text class="cls-7" transform="translate(9.81 25.02)"><tspan x="0" y="0">(Primer Semestre-2025)</tspan></text>
      </g>
      <g class="cls-3">
        <text class="cls-1" transform="translate(11.05 13.54)"><tspan x="0" y="0">Proyecto II</tspan></text>
        <text class="cls-7" transform="translate(9.08 15.04)"><tspan x="0" y="0">(Segundo semestre-2024)</tspan></text>
      </g>
    </g>
    <g id="T2">
      <g class="cls-3">
        <text class="cls-1" transform="translate(38.98 23.42)"><tspan x="0" y="0">Seminario de Licenciatura I y II</tspan></text>
        <text class="cls-7" transform="translate(44.62 24.92)"><tspan x="0" y="0">(Primer Semestre-2025)</tspan></text>
      </g>
      <g class="cls-3">
        <text class="cls-1" transform="translate(40.09 13.55)"><tspan x="0" y="0">Seminario Licenciatura I y II</tspan></text>
        <text class="cls-7" transform="translate(44.2 15.05)"><tspan x="0" y="0">(Segundo semestre-2024)</tspan></text>
      </g>
      <g class="cls-3">
        <text class="cls-1" transform="translate(37.55 2.77)"><tspan x="0" y="0">E</tspan></text>
        <text class="cls-5" transform="translate(38.55 2.77)"><tspan x="0" y="0">T</tspan></text>
        <text class="cls-1" transform="translate(39.3 2.77)"><tspan x="0" y="0">. Prototipado y comunicación de </tspan></text>
        <text class="cls-1" transform="translate(41.38 4.77)"><tspan x="0" y="0">experiencias y servicios</tspan></text>
        <text class="cls-7" transform="translate(44.73 6.27)"><tspan x="0" y="0">(Primer semestre-2025)</tspan></text>
      </g>
    </g>
    <g id="T3">
      <g class="cls-3">
        <text class="cls-1" transform="translate(76.7 23.45)"><tspan x="0" y="0">Proyecto de Título I y II</tspan></text>
        <text class="cls-7" transform="translate(79.63 24.95)"><tspan x="0" y="0">(Primer semestre-2025)</tspan></text>
      </g>
      <g class="cls-3">
        <text class="cls-1" transform="translate(76.69 13.8)"><tspan x="0" y="0">Proyecto de Título I y II </tspan></text>
        <text class="cls-7" transform="translate(79.09 15.3)"><tspan x="0" y="0">(Segundo semestre-2024)</tspan></text>
      </g>
    </g>
  </g>
  <g id="CODIGO">
    <g id="C1">
      <g class="cls-3">
        <text class="cls-6" transform="translate(12.11 28.14)"><tspan x="0" y="0">(AUD10001)</tspan></text>
      </g>
      <g class="cls-3">
        <text class="cls-6" transform="translate(12.11 18.6)"><tspan x="0" y="0">(AUD20001)</tspan></text>
      </g>
    </g>
    <g id="C2">
      <g class="cls-3">
        <text class="cls-9" transform="translate(44.32 28.25)"><tspan x="0" y="0">(AUD7I002) | (AUD8I001)</tspan></text>
      </g>
      <g class="cls-3">
        <text class="cls-9" transform="translate(44.29 18.31)"><tspan x="0" y="0">(AUD7I002) | (AUD8I001)</tspan></text>
      </g>
      <g class="cls-3">
        <text class="cls-9" transform="translate(47.27 8.56)"><tspan x="0" y="0">(AUD5I026)</tspan></text>
      </g>
    </g>
    <g id="C3">
      <g class="cls-3">
        <text class="cls-9" transform="translate(79.23 28.2)"><tspan x="0" y="0">(AUD9I001) | (AUD10I01)</tspan></text>
      </g>
      <g class="cls-3">
        <text class="cls-9" transform="translate(79.23 18.42)"><tspan x="0" y="0">(AUD9I001) | (AUD10I01)</tspan></text>
      </g>
    </g>
  </g>
  <g id="Línea">
    <g>
      <line class="cls-14" x1="15.06" y1="31.56" x2="15.06" y2="28.76"/>
      <line class="cls-14" x1="-.01" y1="28.89" x2="99.99" y2="28.89"/>
      <line class="cls-14" x1="49.99" y1="31.68" x2="49.99" y2="28.89"/>
      <line class="cls-14" x1="84.91" y1="31.68" x2="84.91" y2="28.89"/>
    </g>
    <g class="cls-3">
      <text class="cls-4" transform="translate(10.27 33.75)"><tspan x="0" y="0">Ciclo básico</tspan></text>
      <text class="cls-8" transform="translate(8.77 35.75)"><tspan x="0" y="0">Semestre I a IV</tspan></text>
    </g>
    <g class="cls-3">
      <text class="cls-4" transform="translate(41.32 33.79)"><tspan x="0" y="0">Ciclo Especializado</tspan></text>
      <text class="cls-8" transform="translate(42.15 35.79)"><tspan x="0" y="0">Semestre V a VIII</tspan></text>
    </g>
    <g class="cls-3">
      <text class="cls-4" transform="translate(77.41 33.78)"><tspan x="0" y="0">Ciclo Profesional</tspan></text>
      <text class="cls-8" transform="translate(77.63 35.78)"><tspan x="0" y="0">Semestre IX a X</tspan></text>
    </g>
  </g>
</svg>