<?xml version="1.0" encoding="utf-8"?>
<!-- Generator: Adobe Illustrator 27.9.3, SVG Export Plug-In . SVG Version: 9.03 Build 53313)  -->
<svg version="1.1" id="Capa_1" xmlns="http://www.w3.org/2000/svg" xmlns:xlink="http://www.w3.org/1999/xlink" x="0px" y="0px"
	 viewBox="0 0 100 30" style="enable-background:new 0 0 100 30;" xml:space="preserve">
<style type="text/css">
	.st0{opacity:0.5;fill:#1F5592;enable-background:new    ;}
	.st1{fill:#1F5592;}
	.st2{font-family:'ArialMT';}
	.st3{font-size:1px;}
	.st4{opacity:0.5;fill:#DA4F40;enable-background:new    ;}
	.st5{fill:#DA4F40;}
	.st6{font-family:'Arial-BoldMT';}
	.st7{font-size:1.5px;}
	.st8{fill:#444444;}
	.st9{fill:#FFFFFF;}
	.st10{opacity:0.4;fill:#1F5592;enable-background:new    ;}
	.st11{fill:none;stroke:#1D1D1B;stroke-width:0.5;stroke-miterlimit:10;}
	.st12{font-size:2px;}
	.st13{font-family:'Arial-ItalicMT';}
</style>
<g id="Simbología">
	<g>
		<g>
			<rect x="8.9" y="28" class="st0" width="2" height="1.9"/>
			<rect x="8.9" y="29.7" class="st1" width="2" height="0.3"/>
		</g>
		<g>
			<text transform="matrix(1.1 0 0 1 11.5806 29.3602)" class="st2 st3">Mención visualidad y medios</text>
		</g>
	</g>
	<g>
		<g>
			<rect x="28.3" y="28" class="st4" width="2" height="1.9"/>
			<rect x="28.3" y="29.7" class="st5" width="2" height="0.3"/>
		</g>
		<g>
			<text transform="matrix(1.1 0 0 1 31.0205 29.3602)" class="st2 st3">Ambas menciones</text>
		</g>
	</g>
	<g>
		<g>
			<text transform="matrix(1.1 0 0 1 2.2402 29.3602)" class="st2 st3">Electivo</text>
		</g>
		<g>
			<text transform="matrix(1 0 0 1 -0.1 29.55)" class="st6 st7">E.</text>
		</g>
	</g>
</g>
<g>
	<rect y="9.8" class="st4" width="30.1" height="8.2"/>
	<rect y="17.2" class="st5" width="30.1" height="1.5"/>
</g>
<g>
	<text transform="matrix(1 0 0 1 11.4 13.27)" class="st6 st7">Proyecto I</text>
	<text transform="matrix(1 0 0 1 9.75 14.77)" class="st8 st2 st3">(Primer semestre-2025)</text>
</g>
<g>
	<text transform="matrix(1 0 0 1 12.24 18.34)" class="st9 st2 st3">(AUD10001)</text>
</g>
<g>
	<rect x="69.8" y="9.8" class="st10" width="30.2" height="8.2"/>
	<rect x="69.8" y="17.2" class="st1" width="30.2" height="1.5"/>
</g>
<g>
	<text transform="matrix(1 0 0 1 78.0662 13.3097)" class="st6 st7">Proyecto de Título I</text>
	<text transform="matrix(1 0 0 1 73.65 14.79)" class="st8 st2 st3">(Segundo semestre-2024 y Primer semestre-2025)</text>
</g>
<g>
	<text transform="matrix(1 0 0 1 81.6883 18.3715)" class="st9 st2 st3">(AUD9V001)</text>
</g>
<g>
	<rect y="0" class="st4" width="30.1" height="8.2"/>
	<rect y="7.4" class="st5" width="30.1" height="1.5"/>
</g>
<g>
	<text transform="matrix(1 0 0 1 11.19 3.48)" class="st6 st7">Proyecto II</text>
	<text transform="matrix(1 0 0 1 9.22 4.98)" class="st8 st2 st3">(Segundo semestre-2024)</text>
</g>
<g>
	<text transform="matrix(1 0 0 1 12.24 8.55)" class="st9 st2 st3">(AUD20001)</text>
</g>
<g>
	<rect x="34.9" y="9.8" class="st4" width="30.2" height="8.2"/>
	<rect x="34.9" y="17.2" class="st5" width="30.2" height="1.5"/>
</g>
<g>
	<text transform="matrix(1 0 0 1 39.15 12.28)" class="st6 st7">E. La interacción del Color; su</text>
	<text transform="matrix(1 0 0 1 42.77 14.28)" class="st6 st7">anatomía y lenguaje</text>
	<text transform="matrix(1 0 0 1 38.66 15.78)" class="st8 st2 st3">(Segundo semestre-2024 y Primer semestre-2025)</text>
</g>
<g>
	<text transform="matrix(1 0 0 1 47.25 18.35)" class="st9 st2 st3">(AUDIV025)</text>
</g>
<g id="Línea">
	<g>
		<line class="st11" x1="15.1" y1="21.6" x2="15.1" y2="18.8"/>
		<line class="st11" x1="0" y1="18.9" x2="100" y2="18.9"/>
		<line class="st11" x1="50" y1="21.7" x2="50" y2="18.9"/>
		<line class="st11" x1="84.9" y1="21.7" x2="84.9" y2="18.9"/>
	</g>
	<g>
		<text transform="matrix(1 0 0 1 10.28 23.81)" class="st2 st12">Ciclo básico</text>
		<text transform="matrix(1 0 0 1 8.78 25.81)" class="st13 st12">Semestre I a IV</text>
	</g>
	<g>
		<text transform="matrix(1 0 0 1 41.33 23.85)" class="st2 st12">Ciclo Especializado</text>
		<text transform="matrix(1 0 0 1 42.16 25.85)" class="st13 st12">Semestre V a VIII</text>
	</g>
	<g>
		<text transform="matrix(1 0 0 1 77.42 23.84)" class="st2 st12">Ciclo Profesional</text>
		<text transform="matrix(1 0 0 1 77.64 25.84)" class="st13 st12">Semestre IX a X</text>
	</g>
</g>
<g>
	<rect x="69.8" y="0" class="st10" width="30.2" height="8.2"/>
	<rect x="69.8" y="7.4" class="st1" width="30.2" height="1.5"/>
</g>
<g>
	<text transform="matrix(1 0 0 1 77.9631 3.4993)" class="st6 st7">Proyecto de Título II</text>
	<text transform="matrix(1 0 0 1 73.65 4.9798)" class="st8 st2 st3">(Segundo semestre-2024 y Primer semestre-2025)</text>
</g>
<g>
	<text transform="matrix(1 0 0 1 81.6524 8.5319)" class="st9 st2 st3">(AUD10V01)</text>
</g>
</svg>
