<?xml version="1.0" encoding="UTF-8"?>
<svg xmlns="http://www.w3.org/2000/svg" viewBox="0 0 100 50">
  <defs>
    <style>
      .cls-1, .cls-2, .cls-3, .cls-4, .cls-5 {
        font-family: ArialMT, Arial;
      }

      .cls-1, .cls-2, .cls-3, .cls-5 {
        font-size: 1px;
      }

      .cls-6, .cls-7, .cls-8 {
        opacity: .5;
      }

      .cls-6, .cls-9 {
        fill: #f7ce65;
      }

      .cls-10 {
        fill: #ff5432;
      }

      .cls-10, .cls-11 {
        stroke: #1d1d1b;
        stroke-miterlimit: 10;
        stroke-width: .5px;
      }

      .cls-2 {
        fill: #444;
      }

      .cls-7, .cls-12 {
        fill: #da4f40;
      }

      .cls-8, .cls-13, .cls-14 {
        fill: #1f5592;
      }

      .cls-3 {
        fill: #fff;
      }

      .cls-3, .cls-5 {
        letter-spacing: .03em;
      }

      .cls-14 {
        opacity: .4;
      }

      .cls-5 {
        fill: #1d1d1b;
      }

      .cls-15 {
        font-family: Arial-BoldMT, Arial;
        font-size: 1.5px;
        font-weight: 700;
      }

      .cls-16 {
        font-family: Arial-ItalicMT, Arial;
        font-style: italic;
      }

      .cls-11 {
        fill: none;
      }

      .cls-17 {
        letter-spacing: -.02em;
      }

      .cls-18 {
        font-size: 2px;
      }
    </style>
  </defs>
  <g id="Simbología">
    <g>
      <g>
        <rect class="cls-6" x="0" y="47.98" width="2" height="1.92"/>
        <rect class="cls-9" y="49.7" width="2" height=".29"/>
      </g>
      <text class="cls-1" transform="translate(2.68 49.37) scale(1.1 1)"><tspan x="0" y="0">Mención industrial y servicios</tspan></text>
      <g>
        <g>
          <rect class="cls-8" x="19.46" y="48" width="2" height="1.92"/>
          <rect class="cls-13" x="19.46" y="49.71" width="2" height=".29"/>
        </g>
        <text class="cls-1" transform="translate(22.18 49.37) scale(1.1 1)"><tspan x="0" y="0">Mención visualidad y medios</tspan></text>
      </g>
      <g>
        <g>
          <rect class="cls-7" x="38.82" y="48" width="2" height="1.92"/>
          <rect class="cls-12" x="38.82" y="49.71" width="2" height=".29"/>
        </g>
        <text class="cls-1" transform="translate(41.53 49.36) scale(1.1 1)"><tspan x="0" y="0">Ambas menciones</tspan></text>
      </g>
    </g>
  </g>
  <g id="Cuadros">
    <g>
      <rect class="cls-6" x="69.84" y="29.77" width="30.15" height="8.25"/>
      <rect class="cls-9" x="69.84" y="37.22" width="30.15" height="1.49"/>
    </g>
    <g>
      <rect class="cls-6" x="34.93" y="29.77" width="30.15" height="8.24"/>
      <rect class="cls-9" x="34.93" y="37.22" width="30.15" height="1.49"/>
    </g>
    <g>
      <rect class="cls-14" x="34.92" y="10.23" width="30.15" height="8.2"/>
      <rect class="cls-13" x="34.92" y="17.67" width="30.15" height="1.5"/>
    </g>
    <text transform="translate(40.04 33.28)"><tspan class="cls-15"><tspan x="0" y="0">Seminario de Licenciatura II</tspan></tspan><tspan class="cls-2"><tspan x="-1.29" y="1.5">(Primer semestre 2025 y Segundo semestre-2024)</tspan></tspan></text>
    <text transform="translate(77.75 33.3)"><tspan class="cls-15"><tspan x="0" y="0">Proyecto de Título II</tspan></tspan><tspan class="cls-2"><tspan x="-4.09" y="1.5">(Primer semestre 2025 y Segundo semestre-2024) </tspan></tspan></text>
    <text class="cls-3" transform="translate(46.69 18.74)"><tspan x="0" y="0">(AUD8V001)</tspan></text>
    <text class="cls-5" transform="translate(82.17 38.33)"><tspan x="0" y="0">(AUD10I01)</tspan></text>
    <text class="cls-5" transform="translate(47.25 38.26)"><tspan x="0" y="0">(AUD8I001)</tspan></text>
    <text transform="translate(40.04 13.74)"><tspan class="cls-15"><tspan x="0" y="0">Seminario de Licenciatura II</tspan></tspan><tspan class="cls-2"><tspan x="-1.29" y="1.5">(Primer semestre 2025 y Segundo semestre-2024)</tspan></tspan></text>
    <g>
      <rect class="cls-7" x="0" y="20.01" width="30.15" height="8.25"/>
      <rect class="cls-12" y="27.46" width="30.15" height="1.49"/>
    </g>
    <text transform="translate(7.18 23.54)"><tspan class="cls-15"><tspan x="0" y="0">Configuración </tspan><tspan class="cls-17" x="10.58" y="0">V</tspan><tspan x="11.55" y="0">isual I</tspan></tspan><tspan class="cls-2"><tspan x="2.09" y="1.5">(Segundo semestre-2024) </tspan></tspan></text>
    <text class="cls-3" transform="translate(12.19 28.57)"><tspan x="0" y="0">(AUD10005)</tspan></text>
    <g>
      <rect class="cls-14" x="69.85" y="10.23" width="30.15" height="8.25"/>
      <rect class="cls-13" x="69.85" y="17.68" width="30.15" height="1.49"/>
    </g>
    <text transform="translate(77.75 13.76)"><tspan class="cls-15"><tspan x="0" y="0">Proyecto de Título II</tspan></tspan><tspan class="cls-2"><tspan x="-4.09" y="1.5">(Primer semestre 2025 y Segundo semestre-2024) </tspan></tspan></text>
    <text class="cls-3" transform="translate(81.98 18.79)"><tspan x="0" y="0">(AUD10V01)</tspan></text>
    <g>
      <rect class="cls-7" x="0" y="29.77" width="30.15" height="8.25"/>
      <rect class="cls-12" y="37.22" width="30.15" height="1.49"/>
    </g>
    <text transform="translate(6.97 33.3)"><tspan class="cls-15"><tspan x="0" y="0">Configuración </tspan><tspan class="cls-17" x="10.58" y="0">V</tspan><tspan x="11.55" y="0">isual II</tspan></tspan><tspan class="cls-2"><tspan x="2.83" y="1.5">(Primer semestre-2025) </tspan></tspan></text>
    <text class="cls-3" transform="translate(12.18 38.33)"><tspan x="0" y="0">(AUD20005)</tspan></text>
    <g>
      <rect class="cls-6" x="34.93" y="20" width="30.15" height="8.24"/>
      <rect class="cls-9" x="34.93" y="27.45" width="30.15" height="1.49"/>
    </g>
    <text transform="translate(40.25 23.51)"><tspan class="cls-15"><tspan x="0" y="0">Seminario de Licenciatura I</tspan></tspan><tspan class="cls-2"><tspan x="-1.5" y="1.5">(Primer semestre 2025 y Segundo semestre-2024)</tspan></tspan></text>
    <text class="cls-5" transform="translate(47.25 28.49)"><tspan x="0" y="0">(AUD7I002)</tspan></text>
    <g>
      <rect class="cls-6" x="69.85" y="20" width="30.15" height="8.25"/>
      <rect class="cls-9" x="69.85" y="27.45" width="30.15" height="1.49"/>
    </g>
    <text transform="translate(77.97 23.53)"><tspan class="cls-15"><tspan x="0" y="0">Proyecto de Título I</tspan></tspan><tspan class="cls-2"><tspan x="-4.3" y="1.5">(Primer semestre 2025 y Segundo semestre-2024) </tspan></tspan></text>
    <text class="cls-5" transform="translate(82.17 28.56)"><tspan x="0" y="0">(AUD9I001)</tspan></text>
    <g>
      <rect class="cls-14" x="34.92" y=".47" width="30.15" height="8.2"/>
      <rect class="cls-13" x="34.92" y="7.91" width="30.15" height="1.5"/>
    </g>
    <text class="cls-3" transform="translate(46.69 8.98)"><tspan x="0" y="0">(AUD7V002)</tspan></text>
    <text transform="translate(40.25 3.98)"><tspan class="cls-15"><tspan x="0" y="0">Seminario de Licenciatura I</tspan></tspan><tspan class="cls-2"><tspan x="-1.5" y="1.5">(Primer semestre 2025 y Segundo semestre-2024)</tspan></tspan></text>
    <g>
      <rect class="cls-14" x="69.85" y=".47" width="30.15" height="8.25"/>
      <rect class="cls-13" x="69.85" y="7.92" width="30.15" height="1.49"/>
    </g>
    <text transform="translate(77.96 4)"><tspan class="cls-15"><tspan x="0" y="0">Proyecto de Título I</tspan></tspan><tspan class="cls-2"><tspan x="-4.3" y="1.5">(Primer semestre 2025 y Segundo semestre-2024) </tspan></tspan></text>
    <text class="cls-3" transform="translate(81.98 9.03)"><tspan x="0" y="0">(AUD9V001)</tspan></text>
  </g>
  <g id="Línea">
    <g>
      <line class="cls-11" x1="15.07" y1="41.62" x2="15.07" y2="38.82"/>
      <line class="cls-10" y1="38.95" x2="100" y2="38.95"/>
      <line class="cls-11" x1="50" y1="41.75" x2="50" y2="38.95"/>
      <line class="cls-11" x1="84.93" y1="41.75" x2="84.93" y2="38.95"/>
    </g>
    <text class="cls-18" transform="translate(10.28 43.81)"><tspan class="cls-4"><tspan x="0" y="0">Ciclo básico</tspan></tspan><tspan class="cls-16"><tspan x="-1.5" y="2">Semestre I a IV</tspan></tspan></text>
    <text class="cls-18" transform="translate(41.33 43.85)"><tspan class="cls-4"><tspan x="0" y="0">Ciclo Especializado</tspan></tspan><tspan class="cls-16"><tspan x=".83" y="2">Semestre V a VIII</tspan></tspan></text>
    <text class="cls-18" transform="translate(77.42 43.84)"><tspan class="cls-4"><tspan x="0" y="0">Ciclo Profesional</tspan></tspan><tspan class="cls-16"><tspan x=".22" y="2">Semestre IX a X</tspan></tspan></text>
  </g>
</svg>