<?xml version="1.0" encoding="utf-8"?>
<!-- Generator: Adobe Illustrator 28.1.0, SVG Export Plug-In . SVG Version: 6.00 Build 0)  -->
<svg version="1.1" id="Capa_1" xmlns="http://www.w3.org/2000/svg" xmlns:xlink="http://www.w3.org/1999/xlink" x="0px" y="0px"
	 viewBox="0 0 100 35" style="enable-background:new 0 0 100 35;" xml:space="preserve">
<style type="text/css">
	.st0{opacity:0.5;fill:#F7CE65;enable-background:new    ;}
	.st1{fill:#F7CE65;}
	.st2{font-family:'ArialMT';}
	.st3{font-size:1px;}
	.st4{opacity:0.5;fill:#DA4F40;enable-background:new    ;}
	.st5{fill:#DA4F40;}
	.st6{font-family:'Arial-BoldMT';}
	.st7{font-size:1.5px;}
	.st8{fill:#444444;}
	.st9{fill:#FFFFFF;}
	.st10{fill:#1D1D1B;}
	.st11{fill:none;stroke:#1D1D1B;stroke-width:0.5;stroke-miterlimit:10;}
	.st12{font-size:2px;}
	.st13{font-family:'Arial-ItalicMT';}
</style>
<g id="Simbología">
	<g>
		<g>
			<rect y="32.3" class="st0" width="2" height="1.9"/>
			<rect y="34" class="st1" width="2" height="0.3"/>
		</g>
		<g>
			<text transform="matrix(1.1 0 0 1 2.6802 33.707)" class="st2 st3">Mención industrial y servicios</text>
		</g>
	</g>
	<g>
		<g>
			<rect x="19.6" y="32.3" class="st4" width="2" height="1.9"/>
			<rect x="19.6" y="34" class="st5" width="2" height="0.3"/>
		</g>
		<g>
			<text transform="matrix(1.1 0 0 1 22.29 33.6767)" class="st2 st3">Ambas menciones</text>
		</g>
	</g>
</g>
<g>
	<rect x="69.8" y="14.3" class="st0" width="30.2" height="8.2"/>
	<rect x="69.8" y="21.8" class="st1" width="30.2" height="1.5"/>
</g>
<g>
	<rect x="34.9" y="14.3" class="st0" width="30.2" height="8.2"/>
	<rect x="34.9" y="21.8" class="st1" width="30.2" height="1.5"/>
</g>
<g>
	<rect x="0" y="14.3" class="st4" width="30.1" height="8.2"/>
	<rect x="0" y="21.7" class="st5" width="30.1" height="1.5"/>
</g>
<g>
	<text transform="matrix(1 0 0 1 3.54 17.8068)" class="st6 st7">Ergonomía y Factores Humanos</text>
	<text transform="matrix(1 0 0 1 9.75 19.3068)" class="st8 st2 st3">(Primer semestre-2025)</text>
</g>
<g>
	<text transform="matrix(1 0 0 1 40 17.8168)" class="st6 st7">Seminario de Licenciatura II</text>
	<text transform="matrix(1 0 0 1 38.72 19.3168)" class="st8 st2 st3">(Primer semestre-2025 y Segundo semestre-2024)</text>
</g>
<g>
	<text transform="matrix(1 0 0 1 77.6295 17.8071)" class="st6 st7">Proyecto de Título II</text>
	<text transform="matrix(1 0 0 1 79.0242 19.3168)" class="st8 st2 st3">(Segundo semestre-2024)</text>
</g>
<g>
	<text transform="matrix(1 0 0 1 12.0591 22.7538)" class="st9 st2 st3">(AUD30004)</text>
</g>
<g>
	<text transform="matrix(1 0 0 1 81.9406 22.8139)" class="st10 st2 st3">(AUD10I01)</text>
</g>
<rect x="69.9" y="4.4" class="st0" width="30.2" height="8.2"/>
<rect x="69.9" y="11.9" class="st1" width="30.2" height="1.5"/>
<g>
	<text transform="matrix(1 0 0 1 77.735 7.9629)" class="st6 st7">Proyecto de Título I </text>
	<text transform="matrix(1 0 0 1 79.665 9.4629)" class="st8 st2 st3">(Primer semestre-2025)</text>
</g>
<g>
	<text transform="matrix(1 0 0 1 82.1354 12.8585)" class="st10 st2 st3">(AUD9I001)</text>
</g>
<g>
	<text transform="matrix(1 0 0 1 47.0438 22.8141)" class="st10 st2 st3">(AUD8I001)</text>
</g>
<rect x="34.9" y="4.4" class="st0" width="30.2" height="8.2"/>
<rect x="34.9" y="11.9" class="st1" width="30.2" height="1.5"/>
<g>
	<text transform="matrix(1 0 0 1 39.995 7.9314)" class="st6 st7">Seminario de Licenciatura I </text>
	<text transform="matrix(1 0 0 1 44.715 9.4314)" class="st8 st2 st3">(Primer semestre-2025)</text>
</g>
<g>
	<text transform="matrix(1 0 0 1 46.9826 12.8584)" class="st10 st2 st3">(AUD7I002)</text>
</g>
<g id="Línea">
	<g>
		<line class="st11" x1="15.1" y1="26.2" x2="15.1" y2="23.4"/>
		<line class="st11" x1="0" y1="23.5" x2="100" y2="23.5"/>
		<line class="st11" x1="50" y1="26.3" x2="50" y2="23.5"/>
		<line class="st11" x1="84.9" y1="26.3" x2="84.9" y2="23.5"/>
	</g>
	<g>
		<text transform="matrix(1 0 0 1 10.28 28.3569)" class="st2 st12">Ciclo básico</text>
		<text transform="matrix(1 0 0 1 8.78 30.3569)" class="st13 st12">Semestre I a IV</text>
	</g>
	<g>
		<text transform="matrix(1 0 0 1 41.33 28.3868)" class="st2 st12">Ciclo Especializado</text>
		<text transform="matrix(1 0 0 1 42.16 30.3868)" class="st13 st12">Semestre V a VIII</text>
	</g>
	<g>
		<text transform="matrix(1 0 0 1 77.42 28.3769)" class="st2 st12">Ciclo Profesional</text>
		<text transform="matrix(1 0 0 1 77.64 30.3769)" class="st13 st12">Semestre IX a X</text>
	</g>
</g>
</svg>
