<?xml version="1.0" encoding="UTF-8"?>
<svg id="Capa_1" data-name="Capa 1" xmlns="http://www.w3.org/2000/svg" viewBox="0 0 100 30">
  <defs>
    <style>
      .cls-1 {
        letter-spacing: .02em;
      }

      .cls-1, .cls-2, .cls-3, .cls-4 {
        font-family: ArialMT, Arial;
      }

      .cls-1, .cls-3, .cls-4 {
        font-size: 1px;
      }

      .cls-5, .cls-6, .cls-2, .cls-3, .cls-7, .cls-8, .cls-9, .cls-4 {
        isolation: isolate;
      }

      .cls-5, .cls-7 {
        font-family: Arial-BoldMT, Arial;
        font-size: 1.5px;
        font-weight: 700;
      }

      .cls-10, .cls-11 {
        fill: none;
      }

      .cls-2, .cls-8 {
        font-size: 2px;
      }

      .cls-3 {
        fill: #444;
      }

      .cls-7 {
        letter-spacing: -.02em;
      }

      .cls-8 {
        font-family: Arial-ItalicMT, Arial;
        font-style: italic;
      }

      .cls-9 {
        opacity: .5;
      }

      .cls-9, .cls-12 {
        fill: #f7ce65;
      }

      .cls-11 {
        stroke: #1d1d1b;
        stroke-miterlimit: 10;
        stroke-width: .5px;
      }
    </style>
  </defs>
  <g id="Simbología">
    <g>
      <rect class="cls-9" x="8.67" y="28" width="2" height="1.92"/>
      <rect class="cls-12" x="8.67" y="29.71" width="2" height=".29"/>
    </g>
    <g class="cls-6">
      <g class="cls-6">
        <text class="cls-4" transform="translate(11.35 29.39) scale(1.1 1)"><tspan x="0" y="0">Mención industrial y servicios</tspan></text>
      </g>
    </g>
    <g>
      <g class="cls-6">
        <g class="cls-6">
          <text class="cls-4" transform="translate(2.23 29.38) scale(1.1 1)"><tspan x="0" y="0">Electivo</tspan></text>
        </g>
      </g>
      <g class="cls-6">
        <g class="cls-6">
          <text class="cls-5" transform="translate(-.11 29.57)"><tspan x="0" y="0">E.</tspan></text>
        </g>
      </g>
    </g>
  </g>
  <g id="Cuadros">
    <g>
      <rect class="cls-9" x="69.84" y="9.77" width="30.15" height="8.25"/>
      <rect class="cls-12" x="69.84" y="17.22" width="30.15" height="1.49"/>
    </g>
    <g>
      <rect class="cls-9" x="34.93" y="9.77" width="30.15" height="8.24"/>
      <rect class="cls-12" x="34.93" y="17.22" width="30.15" height="1.49"/>
    </g>
    <g class="cls-6">
      <g class="cls-6">
        <text class="cls-5" transform="translate(40.46 13.27)"><tspan x="0" y="0">Seminario de Licenciatura I</tspan></text>
      </g>
      <g class="cls-6">
        <text class="cls-3" transform="translate(44.93 14.77)"><tspan x="0" y="0">(Primer semestre-2025)</tspan></text>
      </g>
    </g>
    <g class="cls-6">
      <g class="cls-6">
        <text class="cls-5" transform="translate(78.17 13.3)"><tspan x="0" y="0">Proyecto de</tspan></text>
      </g>
      <g class="cls-6">
        <text class="cls-7" transform="translate(87.17 13.3)"><tspan x="0" y="0">T</tspan></text>
      </g>
      <g class="cls-6">
        <text class="cls-5" transform="translate(88.06 13.3)"><tspan x="0" y="0">itulo I</tspan></text>
      </g>
      <g class="cls-6">
        <text class="cls-3" transform="translate(79.84 14.8)"><tspan x="0" y="0">(Primer semestre-2025)</tspan></text>
      </g>
    </g>
    <g>
      <g>
        <rect class="cls-9" x="34.93" y="0" width="30.15" height="8.2"/>
        <rect class="cls-12" x="34.93" y="7.43" width="30.15" height="1.5"/>
      </g>
      <g class="cls-6">
        <g class="cls-6">
          <text class="cls-5" transform="translate(43.71 2.75)"><tspan x="0" y="0">E. Introducción al</tspan></text>
        </g>
        <g class="cls-6">
          <text class="cls-5" transform="translate(46.38 4.25)"><tspan x="0" y="0">Biodiseño</tspan></text>
        </g>
        <g class="cls-6">
          <text class="cls-3" transform="translate(44.72 5.75)"><tspan x="0" y="0">(Primer semestre-2025)</tspan></text>
        </g>
      </g>
    </g>
    <g>
      <rect class="cls-10" x="69.84" y="0" width="30.15" height="8.25"/>
      <rect class="cls-10" x="69.84" y="7.44" width="30.15" height="1.49"/>
    </g>
    <g>
      <rect class="cls-10" y="9.77" width="30.15" height="8.24"/>
      <rect class="cls-10" y="17.22" width="30.15" height="1.49"/>
    </g>
  </g>
  <g id="Línea">
    <g>
      <line class="cls-11" x1="15.07" y1="21.62" x2="15.07" y2="18.82"/>
      <line class="cls-11" y1="18.95" x2="100" y2="18.95"/>
      <line class="cls-11" x1="50" y1="21.74" x2="50" y2="18.95"/>
      <line class="cls-11" x1="84.93" y1="21.74" x2="84.93" y2="18.95"/>
    </g>
    <g class="cls-6">
      <g class="cls-6">
        <text class="cls-2" transform="translate(10.28 23.81)"><tspan x="0" y="0">Ciclo básico</tspan></text>
      </g>
      <g class="cls-6">
        <text class="cls-8" transform="translate(8.78 25.81)"><tspan x="0" y="0">Semestre I a IV</tspan></text>
      </g>
    </g>
    <g class="cls-6">
      <g class="cls-6">
        <text class="cls-2" transform="translate(41.33 23.85)"><tspan x="0" y="0">Ciclo Especializado</tspan></text>
      </g>
      <g class="cls-6">
        <text class="cls-8" transform="translate(42.16 25.85)"><tspan x="0" y="0">Semestre V a VIII</tspan></text>
      </g>
    </g>
    <g class="cls-6">
      <g class="cls-6">
        <text class="cls-2" transform="translate(77.42 23.84)"><tspan x="0" y="0">Ciclo Profesional</tspan></text>
      </g>
      <g class="cls-6">
        <text class="cls-8" transform="translate(77.64 25.84)"><tspan x="0" y="0">Semestre IX a X</tspan></text>
      </g>
    </g>
  </g>
  <text class="cls-1" transform="translate(47.25 8.44)"><tspan x="0" y="0">(AUD7I025)</tspan></text>
  <text class="cls-1" transform="translate(47.25 18.31)"><tspan x="0" y="0">(AUD7I002)</tspan></text>
  <text class="cls-1" transform="translate(82.18 18.31)"><tspan x="0" y="0">(AUD9I001)</tspan></text>
</svg>