<?xml version="1.0" encoding="UTF-8"?>
<svg id="Guías" xmlns="http://www.w3.org/2000/svg" viewBox="0 0 100 40">
  <defs>
    <style>
      .cls-1 {
        letter-spacing: -.02em;
      }

      .cls-2, .cls-3, .cls-4, .cls-5 {
        font-family: ArialMT, Arial;
      }

      .cls-6, .cls-7, .cls-8, .cls-9, .cls-10 {
        stroke-width: 0px;
      }

      .cls-6, .cls-8, .cls-10 {
        fill: #1f5592;
      }

      .cls-11 {
        fill: #ff5432;
      }

      .cls-11, .cls-12 {
        stroke: #1d1d1b;
        stroke-miterlimit: 10;
        stroke-width: .5px;
      }

      .cls-13 {
        font-family: Arial-BoldMT, Arial;
        font-size: 1.5px;
        font-weight: 700;
      }

      .cls-13, .cls-3, .cls-14 {
        fill: #000;
      }

      .cls-7, .cls-9 {
        fill: #da4f40;
      }

      .cls-12 {
        fill: none;
      }

      .cls-15 {
        font-family: Arial-ItalicMT, Arial;
        font-style: italic;
      }

      .cls-3, .cls-4, .cls-5 {
        font-size: 1px;
      }

      .cls-4 {
        fill: #fff;
        letter-spacing: .03em;
      }

      .cls-8, .cls-9 {
        opacity: .5;
      }

      .cls-5 {
        fill: #444;
      }

      .cls-14 {
        font-size: 2px;
      }

      .cls-10 {
        opacity: .4;
      }
    </style>
  </defs>
  <g>
    <rect class="cls-10" x="69.85" y="19.83" width="30.15" height="8.2"/>
    <rect class="cls-6" x="69.85" y="27.27" width="30.15" height="1.5"/>
  </g>
  <g>
    <g>
      <rect class="cls-8" x="0" y="38" width="2" height="1.92"/>
      <rect class="cls-6" x="0" y="39.72" width="2" height=".29"/>
    </g>
    <text class="cls-3" transform="translate(2.72 39.38) scale(1.1 1)"><tspan x="0" y="0">Mención visualidad y medios</tspan></text>
  </g>
  <g>
    <g>
      <rect class="cls-9" x="19.35" y="38" width="2" height="1.92"/>
      <rect class="cls-7" x="19.35" y="39.72" width="2" height=".29"/>
    </g>
    <text class="cls-3" transform="translate(22.07 39.37) scale(1.1 1)"><tspan x="0" y="0">Ambas menciones</tspan></text>
  </g>
  <text transform="translate(75.17 23.31)"><tspan class="cls-13"><tspan x="0" y="0">Seminario de Licenciatura I</tspan></tspan><tspan class="cls-5"><tspan x="4.47" y="1.5">(Primer semestre-2025) </tspan></tspan></text>
  <text class="cls-4" transform="translate(81.98 28.33)"><tspan x="0" y="0">(AUD7V002)</tspan></text>
  <g>
    <rect class="cls-9" x="0" y="19.84" width="30.15" height="8.25"/>
    <rect class="cls-7" x="0" y="27.28" width="30.15" height="1.49"/>
  </g>
  <text transform="translate(7.35 23.36)"><tspan class="cls-13"><tspan x="0" y="0">Configuración </tspan><tspan class="cls-1" x="10.58" y="0">V</tspan><tspan x="11.55" y="0">isual I</tspan></tspan><tspan class="cls-5"><tspan x="2.09" y="1.5">(Segundo semestre-2024)</tspan></tspan></text>
  <text class="cls-4" transform="translate(12.19 28.39)"><tspan x="0" y="0">(AUD10005)</tspan></text>
  <g>
    <line class="cls-12" x1="15.07" y1="31.63" x2="15.07" y2="28.83"/>
    <line class="cls-11" x1="0" y1="28.96" x2="100" y2="28.96"/>
    <line class="cls-12" x1="50" y1="31.75" x2="50" y2="28.96"/>
    <line class="cls-12" x1="84.93" y1="31.75" x2="84.93" y2="28.96"/>
  </g>
  <text class="cls-14" transform="translate(10.28 33.82)"><tspan class="cls-2"><tspan x="0" y="0">Ciclo básico</tspan></tspan><tspan class="cls-15"><tspan x="-1.5" y="2">Semestre I a IV</tspan></tspan></text>
  <text class="cls-14" transform="translate(41.33 33.86)"><tspan class="cls-2"><tspan x="0" y="0">Ciclo Especializado</tspan></tspan><tspan class="cls-15"><tspan x=".83" y="2">Semestre V a VIII</tspan></tspan></text>
  <text class="cls-14" transform="translate(77.42 33.85)"><tspan class="cls-2"><tspan x="0" y="0">Ciclo Profesional</tspan></tspan><tspan class="cls-15"><tspan x=".22" y="2">Semestre IX a X</tspan></tspan></text>
  <g>
    <rect class="cls-10" x="69.85" y=".25" width="30.15" height="8.2"/>
    <rect class="cls-6" x="69.85" y="7.69" width="30.15" height="1.5"/>
  </g>
  <text transform="translate(77.76 3.73)"><tspan class="cls-13"><tspan x="0" y="0">Proyecto de Título II</tspan></tspan><tspan class="cls-5"><tspan x="1.36" y="1.5">(Segundo semestre-2024) </tspan></tspan></text>
  <text class="cls-4" transform="translate(81.98 8.76)"><tspan x="0" y="0">(AUD10V01)</tspan></text>
  <g>
    <rect class="cls-10" x="69.85" y="10.03" width="30.15" height="8.2"/>
    <rect class="cls-6" x="69.85" y="17.47" width="30.15" height="1.5"/>
  </g>
  <text transform="translate(74.96 13.5)"><tspan class="cls-13"><tspan x="0" y="0">Seminario de Licenciatura II</tspan></tspan><tspan class="cls-5"><tspan x="4.68" y="1.5">(Primer semestre-2025) </tspan></tspan></text>
  <text class="cls-4" transform="translate(81.98 18.53)"><tspan x="0" y="0">(AUD8V001)</tspan></text>
</svg>