<?xml version="1.0" encoding="utf-8"?>
<!-- Generator: Adobe Illustrator 28.1.0, SVG Export Plug-In . SVG Version: 6.00 Build 0)  -->
<svg version="1.1" id="Capa_1" xmlns="http://www.w3.org/2000/svg" xmlns:xlink="http://www.w3.org/1999/xlink" x="0px" y="0px"
	 viewBox="0 0 100 65" style="enable-background:new 0 0 100 65;" xml:space="preserve">
<style type="text/css">
	.st0{opacity:0.5;fill:#F7CE65;enable-background:new    ;}
	.st1{fill:#F7CE65;}
	.st2{font-family:'Arial-BoldMT';}
	.st3{font-size:1.5px;}
	.st4{fill:#444444;}
	.st5{font-family:'ArialMT';}
	.st6{font-size:1px;}
	.st7{fill:#1D1D1B;}
	.st8{opacity:0.5;fill:#DA4F40;enable-background:new    ;}
	.st9{fill:#DA4F40;}
	.st10{fill:#FFFFFF;}
	.st11{fill:none;stroke:#1D1D1B;stroke-width:0.5;stroke-miterlimit:10;}
	.st12{font-size:2px;}
	.st13{font-family:'Arial-ItalicMT';}
</style>
<g>
	<rect x="69.8" y="43" class="st0" width="30.2" height="8.2"/>
	<rect x="69.8" y="50.5" class="st1" width="30.2" height="1.5"/>
</g>
<g>
	<rect x="34.9" y="43" class="st0" width="30.2" height="8.2"/>
	<rect x="34.9" y="50.5" class="st1" width="30.2" height="1.5"/>
</g>
<g>
	<rect x="34.9" y="23.2" class="st0" width="30.2" height="8.2"/>
	<rect x="34.9" y="30.7" class="st1" width="30.2" height="1.5"/>
</g>
<g>
	<text transform="matrix(1 0 0 1 45.65 26.7563)" class="st2 st3">Proyecto VII</text>
	<text transform="matrix(1 0 0 1 44.69 28.2563)" class="st4 st5 st6">(Primer semestre-2025)</text>
</g>
<g>
	<text transform="matrix(1 0 0 1 40 46.55)" class="st2 st3">Seminario de Licenciatura II</text>
	<text transform="matrix(1 0 0 1 44.1797 48.0706)" class="st4 st5 st6">(Segundo semestre-2024)</text>
</g>
<g>
	<text transform="matrix(1 0 0 1 77.72 46.5699)" class="st2 st3">Proyecto de Título II</text>
	<text transform="matrix(1 0 0 1 73.64 48.0699)" class="st4 st5 st6">(Primer semestre-2025 y Segundo semestre-2024)</text>
</g>
<g>
	<text transform="matrix(1 0 0 1 47.11 31.7705)" class="st7 st5 st6">(AUD7I001)</text>
</g>
<g>
	<rect x="0" y="43" class="st8" width="30.1" height="8.2"/>
	<rect x="0" y="50.5" class="st9" width="30.1" height="1.5"/>
</g>
<g>
	<text transform="matrix(1 0 0 1 6.46 46.53)" class="st2 st3">Procesos y Prototipos II</text>
	<text transform="matrix(1 0 0 1 9.25 48.03)" class="st4 st5 st6">(Segundo semestre-2024)</text>
</g>
<g>
	<text transform="matrix(1 0 0 1 12.2163 51.52)" class="st10 st5 st6">(AUD40005)</text>
</g>
<g>
	<text transform="matrix(1 0 0 1 82.1757 51.59)" class="st7 st5 st6">(AUD10I01)</text>
</g>
<rect x="69.8" y="33.2" class="st0" width="30.2" height="8.2"/>
<rect x="69.8" y="40.6" class="st1" width="30.2" height="1.5"/>
<g>
	<text transform="matrix(1 0 0 1 77.8899 36.6486)" class="st2 st3">Proyecto de Título I</text>
	<text transform="matrix(1 0 0 1 79.64 38.1896)" class="st4 st5 st6">(Primer semestre-2025)</text>
</g>
<g>
	<text transform="matrix(1 0 0 1 82.0183 41.7096)" class="st7 st5 st6">(AUD9I001)</text>
</g>
<g>
	<text transform="matrix(1 0 0 1 46.8902 51.6145)" class="st7 st5 st6">(AUD8I001)</text>
</g>
<g>
	<rect x="34.9" y="33.1" class="st0" width="30.2" height="8.2"/>
	<rect x="34.9" y="40.6" class="st1" width="30.2" height="1.5"/>
</g>
<g>
	<text transform="matrix(1 0 0 1 39.98 36.6482)" class="st2 st3">Seminario de Licenciatura I</text>
	<text transform="matrix(1 0 0 1 38.7 37.9531)" class="st4 st5 st6">(Primer semestre-2025 y Segundo semestre-2024)</text>
</g>
<g>
	<text transform="matrix(1 0 0 1 46.829 41.6423)" class="st7 st5 st6">(AUD7I002)</text>
</g>
<g>
	<rect x="34.9" y="13.5" class="st0" width="30.2" height="8.2"/>
	<rect x="34.9" y="20.9" class="st1" width="30.2" height="1.5"/>
</g>
<g>
	<rect x="34.9" y="3.7" class="st0" width="30.2" height="8.2"/>
	<rect x="34.9" y="11.1" class="st1" width="30.2" height="1.5"/>
</g>
<g>
	<text transform="matrix(1 0 0 1 40.15 15.9563)" class="st2 st3">E</text>
	<text transform="matrix(1 0 0 1 41.15 15.9563)" class="st2 st3">T</text>
	<text transform="matrix(1 0 0 1 41.9 15.9563)" class="st2 st3">. Materiales, tecnologías y</text>
	<text transform="matrix(1 0 0 1 41.73 17.9563)" class="st2 st3">Procesos de fabricación</text>
	<text transform="matrix(1 0 0 1 45.11 19.4563)" class="st4 st5 st6">(Primer semestre-2025)</text>
</g>
<g>
	<text transform="matrix(1 0 0 1 47.5 21.9705)" class="st7 st5 st6">(AUD6I016)</text>
</g>
<g>
	<text transform="matrix(1 0 0 1 40.34 5.1763)" class="st2 st3">E. Principios de estructuras,</text>
	<text transform="matrix(1 0 0 1 38.05 7.1763)" class="st2 st3">materiales compuestos y plásticos</text>
	<text transform="matrix(1 0 0 1 46.63 9.1763)" class="st2 st3">reforzados</text>
	<text transform="matrix(1 0 0 1 44.68 10.6763)" class="st4 st5 st6">(Segundo semestre-2024)</text>
</g>
<g>
	<text transform="matrix(1 0 0 1 47.49 12.1906)" class="st7 st5 st6">(AUD7I020)</text>
</g>
<g id="Línea">
	<g>
		<line class="st11" x1="15.1" y1="54.9" x2="15.1" y2="52.1"/>
		<line class="st11" x1="0" y1="52.2" x2="100" y2="52.2"/>
		<line class="st11" x1="50" y1="55" x2="50" y2="52.2"/>
		<line class="st11" x1="84.9" y1="55" x2="84.9" y2="52.2"/>
	</g>
	<g>
		<text transform="matrix(1 0 0 1 10.28 57.08)" class="st5 st12">Ciclo básico</text>
		<text transform="matrix(1 0 0 1 8.78 59.08)" class="st13 st12">Semestre I a IV</text>
	</g>
	<g>
		<text transform="matrix(1 0 0 1 41.33 57.12)" class="st5 st12">Ciclo Especializado</text>
		<text transform="matrix(1 0 0 1 42.16 59.12)" class="st13 st12">Semestre V a VIII</text>
	</g>
	<g>
		<text transform="matrix(1 0 0 1 77.42 57.11)" class="st5 st12">Ciclo Profesional</text>
		<text transform="matrix(1 0 0 1 77.64 59.11)" class="st13 st12">Semestre IX a X</text>
	</g>
</g>
<g>
	<g id="Simbología">
		<g>
			<rect x="21.1" y="61.5" class="st0" width="2" height="1.9"/>
			<rect x="21.1" y="63.2" class="st1" width="2" height="0.3"/>
		</g>
		<g>
			<text transform="matrix(1.1 0 0 1 23.75 62.8799)" class="st5 st6">Mención industrial y servicios</text>
		</g>
		<g>
			<g>
				<text transform="matrix(1.1 0 0 1 11.0698 62.8799)" class="st5 st6">Electivo troncal</text>
			</g>
			<g>
				<text transform="matrix(1 0 0 1 8.56 63.0601)" class="st2 st3">E</text>
				<text transform="matrix(1 0 0 1 9.56 63.0601)" class="st2 st3">T</text>
				<text transform="matrix(1 0 0 1 10.31 63.0601)" class="st2 st3">.</text>
			</g>
		</g>
		<g>
			<g>
				<text transform="matrix(1.1 0 0 1 2.2402 62.8799)" class="st5 st6">Electivo</text>
			</g>
			<g>
				<text transform="matrix(1 0 0 1 -0.11 63.0601)" class="st2 st3">E.</text>
			</g>
		</g>
	</g>
	<g>
		<g>
			<rect x="40.7" y="61.5" class="st8" width="2" height="1.9"/>
			<rect x="40.7" y="63.2" class="st9" width="2" height="0.3"/>
		</g>
		<g>
			<text transform="matrix(1.1 0 0 1 43.3701 62.8799)" class="st5 st6">Ambas menciones</text>
		</g>
	</g>
</g>
</svg>
