<?xml version="1.0" encoding="UTF-8"?>
<svg xmlns="http://www.w3.org/2000/svg" viewBox="0 0 100 40">
  <defs>
    <style>
      .cls-1, .cls-2, .cls-3, .cls-4, .cls-5 {
        font-family: ArialMT, Arial;
      }

      .cls-1, .cls-2, .cls-3, .cls-5 {
        font-size: 1px;
      }

      .cls-6, .cls-7 {
        opacity: .5;
      }

      .cls-6, .cls-8 {
        fill: #f7ce65;
      }

      .cls-9 {
        fill: #ff5432;
      }

      .cls-9, .cls-10 {
        stroke: #1d1d1b;
        stroke-miterlimit: 10;
        stroke-width: .5px;
      }

      .cls-2 {
        fill: #444;
      }

      .cls-7, .cls-11 {
        fill: #da4f40;
      }

      .cls-3 {
        fill: #fff;
      }

      .cls-3, .cls-5 {
        letter-spacing: .03em;
      }

      .cls-5 {
        fill: #1d1d1b;
      }

      .cls-12 {
        font-family: Arial-BoldMT, Arial;
        font-size: 1.5px;
        font-weight: 700;
      }

      .cls-13 {
        font-family: Arial-ItalicMT, Arial;
        font-style: italic;
      }

      .cls-10 {
        fill: none;
      }

      .cls-14 {
        font-size: 2px;
      }
    </style>
  </defs>
  <g id="Simbología">
    <g>
      <g>
        <rect class="cls-6" x="0" y="38.02" width="2" height="1.92"/>
        <rect class="cls-8" y="39.73" width="2" height=".29"/>
      </g>
      <text class="cls-1" transform="translate(2.68 39.41) scale(1.1 1)"><tspan x="0" y="0">Mención industrial y servicios</tspan></text>
    </g>
    <g>
      <g>
        <rect class="cls-7" x="19.59" y="38.02" width="2" height="1.92"/>
        <rect class="cls-11" x="19.59" y="39.73" width="2" height=".29"/>
      </g>
      <text class="cls-1" transform="translate(22.3 39.39) scale(1.1 1)"><tspan x="0" y="0">Ambas menciones</tspan></text>
    </g>
  </g>
  <g id="Cuadros">
    <g>
      <rect class="cls-6" x="34.93" y="19.56" width="30.15" height="8.24"/>
      <rect class="cls-8" x="34.93" y="27.01" width="30.15" height="1.49"/>
    </g>
    <g>
      <rect class="cls-6" x="34.92" y="9.78" width="30.15" height="8.2"/>
      <rect class="cls-8" x="34.92" y="17.22" width="30.15" height="1.5"/>
    </g>
    <text transform="translate(40.83 12.28)"><tspan class="cls-12"><tspan x="0" y="0">Métodos de Investigación </tspan></tspan><tspan class="cls-12"><tspan x="4.42" y="2">Cuantitativos</tspan></tspan><tspan class="cls-2"><tspan x="3.36" y="3.5">(Segundo semestre-2024)</tspan></tspan></text>
    <text transform="translate(38.97 23.06)"><tspan class="cls-12"><tspan x="0" y="0">Seminario de Licenciatura I y II</tspan></tspan><tspan class="cls-2"><tspan x="-.28" y="1.5">(Primer semestre-2025 y Segundo semestre-2024)</tspan></tspan></text>
    <text class="cls-5" transform="translate(47.25 18.29)"><tspan x="0" y="0">(AUD6I002)</tspan></text>
    <text class="cls-5" transform="translate(44.04 28.04)"><tspan x="0" y="0">(AUD7I002) | (AUD8I001)</tspan></text>
    <g>
      <rect class="cls-7" x="0" y="19.57" width="30.15" height="8.25"/>
      <rect class="cls-11" y="27.02" width="30.15" height="1.49"/>
    </g>
    <text transform="translate(4.1 22.1)"><tspan class="cls-12"><tspan x="0" y="0">Introducción a la Investigación </tspan></tspan><tspan class="cls-12"><tspan x="6.58" y="2">en el Diseño</tspan></tspan><tspan class="cls-2"><tspan x="5.19" y="3.5">(Segundo semestre-2024) </tspan></tspan></text>
    <text class="cls-3" transform="translate(12.19 28.13)"><tspan x="0" y="0">(AUD40002)</tspan></text>
    <g>
      <rect class="cls-6" x="34.92" width="30.15" height="8.2"/>
      <rect class="cls-8" x="34.92" y="7.44" width="30.15" height="1.5"/>
    </g>
    <text transform="translate(40.83 2.51)"><tspan class="cls-12"><tspan x="0" y="0">Métodos de Investigación </tspan></tspan><tspan class="cls-12"><tspan x="4.92" y="2">Cualitativos</tspan></tspan><tspan class="cls-2"><tspan x="3.89" y="3.5">(Primer semestre-2025)</tspan></tspan></text>
    <text class="cls-5" transform="translate(47.25 8.51)"><tspan x="0" y="0">(AUD5I002)</tspan></text>
  </g>
  <g id="Línea">
    <g>
      <line class="cls-10" x1="15.07" y1="31.41" x2="15.07" y2="28.61"/>
      <line class="cls-9" y1="28.73" x2="100" y2="28.73"/>
      <line class="cls-10" x1="50" y1="31.53" x2="50" y2="28.73"/>
      <line class="cls-10" x1="84.93" y1="31.53" x2="84.93" y2="28.73"/>
    </g>
    <text class="cls-14" transform="translate(10.28 33.6)"><tspan class="cls-4"><tspan x="0" y="0">Ciclo básico</tspan></tspan><tspan class="cls-13"><tspan x="-1.5" y="2">Semestre I a IV</tspan></tspan></text>
    <text class="cls-14" transform="translate(41.33 33.64)"><tspan class="cls-4"><tspan x="0" y="0">Ciclo Especializado</tspan></tspan><tspan class="cls-13"><tspan x=".83" y="2">Semestre V a VIII</tspan></tspan></text>
    <text class="cls-14" transform="translate(77.42 33.62)"><tspan class="cls-4"><tspan x="0" y="0">Ciclo Profesional</tspan></tspan><tspan class="cls-13"><tspan x=".22" y="2">Semestre IX a X</tspan></tspan></text>
  </g>
</svg>