<?xml version="1.0" encoding="UTF-8"?>
<svg id="Capa_1" data-name="Capa 1" xmlns="http://www.w3.org/2000/svg" viewBox="0 0 100 60">
  <defs>
    <style>
      .cls-1, .cls-2, .cls-3, .cls-4, .cls-5, .cls-6 {
        font-family: ArialMT, Arial;
      }

      .cls-1, .cls-3, .cls-4, .cls-5, .cls-6 {
        font-size: 1px;
      }

      .cls-1, .cls-4 {
        fill: #444;
      }

      .cls-7 {
        font-family: Arial-BoldMT, Arial;
        font-size: 1.5px;
        font-weight: 700;
      }

      .cls-7, .cls-8, .cls-9, .cls-2, .cls-3, .cls-4, .cls-10, .cls-5, .cls-11, .cls-6 {
        isolation: isolate;
      }

      .cls-12, .cls-8 {
        fill: #1f5592;
      }

      .cls-8, .cls-11 {
        opacity: .5;
      }

      .cls-2, .cls-10 {
        font-size: 2px;
      }

      .cls-3 {
        fill: #fff;
      }

      .cls-10 {
        font-family: Arial-ItalicMT, Arial;
        font-style: italic;
      }

      .cls-5 {
        fill: #1d1d1b;
      }

      .cls-11, .cls-13 {
        fill: #f7ce65;
      }

      .cls-14 {
        fill: none;
        stroke: #1d1d1b;
        stroke-miterlimit: 10;
        stroke-width: .5px;
      }
    </style>
  </defs>
  <g id="Simbología">
    <g id="V">
      <g>
        <g>
          <rect class="cls-8" x="19.6" y="57.99" width="2" height="1.92"/>
          <rect class="cls-12" x="19.6" y="59.71" width="2" height=".29"/>
        </g>
        <g class="cls-9">
          <text class="cls-6" transform="translate(22.32 59.37) scale(1.1 1)"><tspan x="0" y="0">Mención visualidad y medios</tspan></text>
        </g>
      </g>
    </g>
    <g id="I">
      <g>
        <g>
          <rect class="cls-11" x="-.02" y="57.99" width="2" height="1.92"/>
          <rect class="cls-13" x="-.02" y="59.71" width="2" height=".29"/>
        </g>
        <g class="cls-9">
          <text class="cls-6" transform="translate(2.66 59.38) scale(1.1 1)"><tspan x="0" y="0">Mención industrial y servicios</tspan></text>
        </g>
      </g>
    </g>
  </g>
  <g id="Cuadros">
    <g id="AZUL">
      <g id="B2">
        <g>
          <rect class="cls-8" x="34.9" y="19.53" width="30.15" height="8.24"/>
          <rect class="cls-12" x="34.9" y="26.98" width="30.15" height="1.49"/>
        </g>
      </g>
      <g id="B3">
        <g>
          <rect class="cls-8" x="69.82" y="29.4" width="30.15" height="8.2"/>
          <rect class="cls-12" x="69.82" y="36.84" width="30.15" height="1.5"/>
        </g>
        <g>
          <rect class="cls-8" x="69.85" y="19.55" width="30.15" height="8.24"/>
          <rect class="cls-12" x="69.85" y="27" width="30.15" height="1.49"/>
        </g>
        <g>
          <rect class="cls-8" x="69.85" y="9.67" width="30.15" height="8.2"/>
          <rect class="cls-12" x="69.85" y="17.11" width="30.15" height="1.5"/>
        </g>
      </g>
    </g>
    <g id="AMARILLO">
      <g id="A2">
        <g>
          <rect class="cls-11" x="34.9" y="39.34" width="30.15" height="8.24"/>
          <rect class="cls-13" x="34.9" y="46.79" width="30.15" height="1.49"/>
        </g>
        <g>
          <rect class="cls-11" x="34.84" y="29.41" width="30.15" height="8.24"/>
          <rect class="cls-13" x="34.84" y="36.86" width="30.15" height="1.49"/>
        </g>
      </g>
      <g id="A3">
        <g>
          <rect class="cls-11" x="69.83" y="39.34" width="30.15" height="8.24"/>
          <rect class="cls-13" x="69.83" y="46.79" width="30.15" height="1.49"/>
        </g>
      </g>
    </g>
  </g>
  <g id="TEXTO">
    <g id="T2">
      <g class="cls-9">
        <text class="cls-7" transform="translate(40.22 43.05)"><tspan x="0" y="0">Seminario de Licenciatura I</tspan></text>
        <text class="cls-4" transform="translate(44.69 44.55)"><tspan x="0" y="0">(Primer semestre-2025)</tspan></text>
      </g>
      <g class="cls-9">
        <text class="cls-7" transform="translate(41.12 33.18)"><tspan x="0" y="0">Seminario Licenciatura II</tspan></text>
        <text class="cls-4" transform="translate(44.19 34.68)"><tspan x="0" y="0">(Segundo semestre-2024)</tspan></text>
      </g>
      <g class="cls-9">
        <text class="cls-7" transform="translate(40.04 23.39)"><tspan x="0" y="0">Seminario de Licenciatura II</tspan></text>
        <text class="cls-4" transform="translate(44.19 24.89)"><tspan x="0" y="0">(Segundo semestre-2024)</tspan></text>
      </g>
    </g>
    <g id="T3">
      <g class="cls-9">
        <text class="cls-7" transform="translate(76.69 43.07)"><tspan x="0" y="0">Proyecto de Título I y II</tspan></text>
        <text class="cls-4" transform="translate(79.62 44.57)"><tspan x="0" y="0">(Primer semestre-2025)</tspan></text>
      </g>
      <g class="cls-9">
        <text class="cls-7" transform="translate(76.68 33.42)"><tspan x="0" y="0">Proyecto de Título I y II </tspan></text>
        <text class="cls-4" transform="translate(79.61 34.92)"><tspan x="0" y="0">(Primer semestre-2025)</tspan></text>
      </g>
      <g class="cls-9">
        <text class="cls-7" transform="translate(77.73 23.29)"><tspan x="0" y="0">Proyecto de Título II</tspan></text>
      </g>
      <g class="cls-9">
        <text class="cls-7" transform="translate(78.78 13.19)"><tspan x="0" y="0">Práctica Laboral </tspan></text>
        <text class="cls-1" transform="translate(74.28 14.49)"><tspan x="0" y="0">(Primer semestre-2025 y Segundo semestre 2024)</tspan></text>
      </g>
    </g>
  </g>
  <g id="CODIGO">
    <g id="C2">
      <g class="cls-9">
        <text class="cls-5" transform="translate(47.36 47.87)"><tspan x="0" y="0">(AUD7I002)</tspan></text>
      </g>
      <g class="cls-9">
        <text class="cls-5" transform="translate(47.33 37.94)"><tspan x="0" y="0">(AUD8I001)</tspan></text>
      </g>
      <g class="cls-9">
        <text class="cls-3" transform="translate(47.17 28.09)"><tspan x="0" y="0">(AUD8V001)</tspan></text>
      </g>
    </g>
    <g id="C3">
      <g class="cls-9">
        <text class="cls-5" transform="translate(79.22 47.82)"><tspan x="0" y="0">(AUD9I001) | (AUD10I01)</tspan></text>
      </g>
      <g class="cls-9">
        <text class="cls-3" transform="translate(79.01 38.04)"><tspan x="0" y="0">(AUD9V001) | (AUD10V01)</tspan></text>
      </g>
      <g class="cls-9">
        <text class="cls-3" transform="translate(82.07 28.07)"><tspan x="0" y="0">(AUD10V01)</tspan></text>
      </g>
      <g class="cls-9">
        <text class="cls-3" transform="translate(81.78 18.18)"><tspan x="0" y="0">(AUD8V002)</tspan></text>
      </g>
      <g>
        <rect class="cls-8" x="69.82" y="0" width="30.15" height="8.2"/>
        <rect class="cls-12" x="69.82" y="7.44" width="30.15" height="1.5"/>
      </g>
      <g class="cls-9">
        <text class="cls-7" transform="translate(77.37 3.52)"><tspan x="0" y="0">Práctica Profesional</tspan></text>
      </g>
      <g class="cls-9">
        <text class="cls-3" transform="translate(81.75 8.51)"><tspan x="0" y="0">(AUD9V002)</tspan></text>
      </g>
    </g>
  </g>
  <g id="Línea">
    <g>
      <line class="cls-14" x1="15.05" y1="51.18" x2="15.05" y2="48.38"/>
      <line class="cls-14" x1="-.02" y1="48.51" x2="99.98" y2="48.51"/>
      <line class="cls-14" x1="49.98" y1="51.31" x2="49.98" y2="48.51"/>
      <line class="cls-14" x1="84.9" y1="51.31" x2="84.9" y2="48.51"/>
    </g>
    <g class="cls-9">
      <text class="cls-2" transform="translate(10.26 53.38)"><tspan x="0" y="0">Ciclo básico</tspan></text>
      <text class="cls-10" transform="translate(8.76 55.38)"><tspan x="0" y="0">Semestre I a IV</tspan></text>
    </g>
    <g class="cls-9">
      <text class="cls-2" transform="translate(41.31 53.41)"><tspan x="0" y="0">Ciclo Especializado</tspan></text>
      <text class="cls-10" transform="translate(42.14 55.41)"><tspan x="0" y="0">Semestre V a VIII</tspan></text>
    </g>
    <g class="cls-9">
      <text class="cls-2" transform="translate(77.4 53.4)"><tspan x="0" y="0">Ciclo Profesional</tspan></text>
      <text class="cls-10" transform="translate(77.62 55.4)"><tspan x="0" y="0">Semestre IX a X</tspan></text>
    </g>
  </g>
  <text class="cls-1" transform="translate(74.06 5.02)"><tspan x="0" y="0">(Primer semestre-2025 y Segundo semestre 2024)</tspan></text>
  <text class="cls-1" transform="translate(79.7 24.74)"><tspan x="0" y="0">(Segundo semestre 2024)</tspan></text>
</svg>