<?xml version="1.0" encoding="UTF-8"?>
<svg xmlns="http://www.w3.org/2000/svg" version="1.1" viewBox="0 0 100 20">
  <!-- Generator: Adobe Illustrator 29.5.1, SVG Export Plug-In . SVG Version: 2.1.0 Build 141)  -->
  <defs>
    <style>
      .st0 {
        fill: #f9c199;
      }

      .st1 {
        font-family: MyriadPro-Regular, 'Myriad Pro';
        font-size: 2px;
      }

      .st1, .st2, .st3 {
        fill: #1d1d1b;
      }

      .st3 {
        stroke: #ee7233;
        stroke-width: .5px;
      }

      .st3, .st4 {
        stroke-miterlimit: 10;
      }

      .st4 {
        fill: none;
        stroke: #1d1d1b;
      }
    </style>
  </defs>
  <g id="BASE">
    <line class="st4" x1="1.97" y1="13.56" x2="95.6" y2="13.56"/>
    <rect class="st2" x="12.64" y="13.67" width=".7" height="1.15"/>
    <text class="st1" transform="translate(8.38 17.24)"><tspan x="0" y="0">Ciclo básico</tspan><tspan x="3.08" y="2.4">I a III</tspan></text>
    <rect class="st2" x="46.1" y="13.67" width=".7" height="1.15"/>
    <text class="st1" transform="translate(39.37 17.24)"><tspan x="0" y="0">Ciclo especializado</tspan><tspan x="5.14" y="2.4">V a VIII</tspan></text>
    <rect class="st2" x="80.56" y="13.67" width=".7" height="1.15"/>
    <text class="st1" transform="translate(74.07 17.24)"><tspan x="0" y="0">Ciclo profesional</tspan><tspan x="4.21" y="2.4">V a VIII</tspan></text>
  </g>
  <g id="RAMOS">
    <rect class="st0" x="70.65" y="8.76" width="20.52" height="3.6"/>
    <rect class="st0" x="25.64" y="8.8" width="41.22" height="3.56"/>
    <rect class="st0" x="70.65" y="4.56" width="20.52" height="3.5"/>
  </g>
  <g id="DETALLES">
    <line class="st3" x1="70.65" y1="8.07" x2="91.17" y2="8.07"/>
    <line class="st3" x1="25.64" y1="12.36" x2="66.86" y2="12.36"/>
    <line class="st3" x1="70.65" y1="12.36" x2="91.17" y2="12.36"/>
    <rect class="st0" x="25.64" y="4.53" width="41.22" height="3.56"/>
    <line class="st3" x1="25.64" y1="8.1" x2="66.86" y2="8.1"/>
  </g>
  <g id="TEXTO">
    <text class="st1" transform="translate(72.86 7.03)"><tspan x="0" y="0">Proyecto de Título I</tspan></text>
    <text class="st1" transform="translate(72.62 11.34)"><tspan x="0" y="0">Proyecto de Título II</tspan></text>
    <text class="st1" transform="translate(35.24 11.34)"><tspan x="0" y="0">Seminario de Licenciatura I</tspan></text>
    <text class="st1" transform="translate(40.07 7.08)"><tspan x="0" y="0">Práctica laboral</tspan></text>
    <rect class="st0" x="25.64" y=".14" width="41.22" height="3.56"/>
    <line class="st3" x1="25.64" y1="3.7" x2="66.86" y2="3.7"/>
    <text class="st1" transform="translate(26.56 2.68)"><tspan x="0" y="0">Electivo Ambas Menciones: Diseño de vehículos</tspan></text>
    <rect class="st0" x="70.65" y=".17" width="20.52" height="3.5"/>
    <line class="st3" x1="70.65" y1="3.67" x2="91.17" y2="3.67"/>
    <text class="st1" transform="translate(72.72 2.63)"><tspan x="0" y="0">Practica profesional</tspan></text>
  </g>
</svg>