<svg version="1.2" xmlns="http://www.w3.org/2000/svg" viewBox="0 0 1050 600">
	<title>viz</title>
	<style>
		tspan { white-space:pre } 
		.s0 { fill: #000000 } 
		.s1 { mix-blend-mode: multiply;fill: none;stroke: #189af6;stroke-width: 9.1 } 
		.s2 { mix-blend-mode: multiply;fill: none;stroke: #189af6;stroke-width: 2 } 
		.s3 { mix-blend-mode: multiply;fill: none;stroke: #00c3ff;stroke-width: 3 } 
		.s4 { mix-blend-mode: multiply;fill: none;stroke: #125389;stroke-width: 4.1 } 
		.s5 { mix-blend-mode: multiply;fill: none;stroke: #189af6;stroke-width: 3 } 
		.s6 { mix-blend-mode: multiply;fill: none;stroke: #189af6;stroke-width: 1 } 
		.s7 { mix-blend-mode: multiply;fill: none;stroke: #189af6;stroke-width: 7.1 } 
		.s8 { mix-blend-mode: multiply;fill: none;stroke: #125389;stroke-width: 22.3 } 
		.s9 { mix-blend-mode: multiply;fill: none;stroke: #125389;stroke-width: 13.2 } 
		.s10 { mix-blend-mode: multiply;fill: none;stroke: #125389;stroke-width: 10.1 } 
		.s11 { mix-blend-mode: multiply;fill: none;stroke: #125389;stroke-width: 6.1 } 
		.s12 { mix-blend-mode: multiply;fill: none;stroke: #189af6;stroke-width: 12.2 } 
		.s13 { mix-blend-mode: multiply;fill: none;stroke: #189af6;stroke-width: 5.1 } 
		.s14 { mix-blend-mode: multiply;fill: none;stroke: #189af6;stroke-width: 10.1 } 
		.s15 { mix-blend-mode: multiply;fill: none;stroke: #00c3ff;stroke-width: 4.1 } 
		.s16 { mix-blend-mode: multiply;fill: none;stroke: #189af6;stroke-width: 8.1 } 
		.s17 { mix-blend-mode: multiply;fill: none;stroke: #00c3ff;stroke-width: 2 } 
		.s18 { mix-blend-mode: multiply;fill: none;stroke: #00c3ff;stroke-width: 1 } 
		.s19 { mix-blend-mode: multiply;fill: none;stroke: #125389;stroke-width: 3 } 
		.s20 { mix-blend-mode: multiply;fill: none;stroke: #125389;stroke-width: 7.1 } 
		.s21 { mix-blend-mode: multiply;fill: none;stroke: #189af6;stroke-width: 6.1 } 
		.s22 { mix-blend-mode: multiply;fill: none;stroke: #125389;stroke-width: 1 } 
		.s23 { mix-blend-mode: multiply;fill: none;stroke: #125389;stroke-width: 2 } 
		.t24 { font-size: 11px;fill: #000000;font-family: Helvetica, Arial, sans-serif } 
		.asterisco {fill: #666666; } 
	</style>
        <g id="visualization">
            <g>
                <path class="s0" d="m926 10h3v1h-3z" />
                <path class="s0" d="m926 21h3v1h-3z" />
                <path class="s0" d="m926 32h3v1h-3z" />
                <path class="s0" d="m926 43h3v1.1h-3z" />
                <path class="s0" d="m926 54.1h3v1h-3z" />
                <path class="s0" d="m926 65.1h3v1h-3z" />
                <path class="s0" d="m926 76.1h3v2h-3z" />
                <path class="s0" d="m926 88.1h3v2h-3z" />
                <path class="s0" d="m926 100.1h3v2.1h-3z" />
                <path class="s0" d="m926 112.2h3v2h-3z" />
                <path class="s0" d="m926 124.2h3v2h-3z" />
                <path class="s0" d="m926 136.2h3v2.1h-3z" />
                <path class="s0" d="m926 148.3h3v2h-3z" />
                <path class="s0" d="m926 160.3h3v3h-3z" />
                <path class="s0" d="m926 173.3h3v3.1h-3z" />
                <path class="s0" d="m926 186.4h3v3h-3z" />
                <path class="s0" d="m926 199.4h3v3.1h-3z" />
                <path class="s0" d="m926 212.5h3v3h-3z" />
                <path class="s0" d="m926 225.5h3v4.1h-3z" />
                <path class="s0" d="m926 239.6h3v4h-3z" />
                <path class="s0" d="m926 253.6h3v4.1h-3z" />
                <path class="s0" d="m926 267.7h3v4h-3z" />
                <path class="s0" d="m926 281.7h3v5.1h-3z" />
                <path class="s0" d="m926 296.8h3v6.1h-3z" />
                <path class="s0" d="m926 312.9h3v6.1h-3z" />
                <path class="s0" d="m926 329h3v6.1h-3z" />
                <path class="s0" d="m926 345.1h3v7.1h-3z" />
                <path class="s0" d="m926 362.2h3v7.1h-3z" />
                <path class="s0" d="m926 379.3h3v7.1h-3z" />
                <path class="s0" d="m926 396.4h3v8.1h-3z" />
                <path class="s0" d="m926 414.5h3v9.1h-3z" />
                <path class="s0" d="m926 433.6h3v9.2h-3z" />
                <path class="s0" d="m926 452.8h3v10.1h-3z" />
                <path class="s0" d="m926 472.9h3v11.2h-3z" />
                <path class="s0" d="m926 494.1h3v12.1h-3z" />
                <path class="s0" d="m926 516.2h3v13.2h-3z" />
                <path class="s0" d="m926 539.4h3v15.2h-3z" />
                <path class="s0" d="m149 185h3v24.3h-3z" />
                <path class="s0" d="m926 564.6h3v25.4h-3z" />
                <path class="s0" d="m149 219.3h3v82.2h-3z" />
                <path class="s0" d="m149 311.5h3v103.5h-3z" />
            </g>
            <g>
                <g>
                    <path class="s1" d="m152 372.9c387 0 387 46.2 774 46.2" />
                </g>
                <g>
                    <path class="s2" d="m152 314.6c387 0 387-237.5 774-237.5" />
                </g>
                <g>
                    <path class="s3" d="m152 205.8c387 0 387 335.1 774 335.1" />
                </g>
                <g>
                    <path class="s4" d="m152 230.5c387 0 387-3 774-3" />
                </g>
                <g>
                    <path class="s4" d="m152 234.6c387 0 387 7 774 7" />
                </g>
                <g>
                    <path class="s5" d="m152 324.2c387 0 387-162.4 774-162.4" />
                </g>
                <g>
                    <path class="s6" d="m152 414.5c387 0 387 175 774 175" />
                </g>
                <g>
                    <path class="s7" d="m152 356.7c387 0 387-8.1 774-8.1" />
                </g>
                <g>
                    <path class="s8" d="m152 290.4c387 0 387 287.4 774 287.4" />
                </g>
                <g>
                    <path class="s9" d="m152 272.6c387 0 387 250.2 774 250.2" />
                </g>
                <g>
                    <path class="s10" d="m152 260.9c387 0 387 217.1 774 217.1" />
                </g>
                <g>
                    <path class="s11" d="m152 245.7c387 0 387 120.5 774 120.5" />
                </g>
                <g>
                    <path class="s12" d="m152 407.9c387 0 387 140.7 774 140.7" />
                </g>
                <g>
                    <path class="s13" d="m152 380c387 0 387 60.2 774 60.2" />
                </g>
                <g>
                    <path class="s14" d="m152 396.7c387 0 387 104.5 774 104.5" />
                </g>
                <g>
                    <path class="s15" d="m152 198.2c387 0 387 237.5 774 237.5" />
                </g>
                <g>
                    <path class="s16" d="m152 386.6c387 0 387 72.2 774 72.2" />
                </g>
                <g>
                    <path class="s2" d="m152 316.6c387 0 387-227.5 774-227.5" />
                </g>
                <g>
                    <path class="s17" d="m152 201.2c387 0 387 252.6 774 252.6" />
                </g>
                <g>
                    <path class="s18" d="m152 187.5c387 0 387-13.7 774-13.7" />
                </g>
                <g>
                    <path class="s17" d="m152 208.3c387 0 387 357.4 774 357.4" />
                </g>
                <g>
                    <path class="s6" d="m152 318.1c387 0 387-216.4 774-216.4" />
                </g>
                <g>
                    <path class="s19" d="m152 238.1c387 0 387 18.1 774 18.1" />
                </g>
                <g>
                    <path class="s18" d="m152 191.6c387 0 387 62.5 774 62.5" />
                </g>
                <g>
                    <path class="s20" d="m152 252.3c387 0 387 130.5 774 130.5" />
                </g>
                <g>
                    <path class="s2" d="m152 328.8c387 0 387-140.4 774-140.4" />
                </g>
                <g>
                    <path class="s13" d="m152 339.4c387 0 387-39 774-39" />
                </g>
                <g>
                    <path class="s16" d="m152 364.3c387 0 387 36.1 774 36.1" />
                </g>
                <g>
                    <path class="s18" d="m152 193.6c387 0 387 103.7 774 103.7" />
                </g>
                <g>
                    <path class="s21" d="m152 345c387 0 387-29.1 774-29.1" />
                </g>
                <g>
                    <path class="s2" d="m152 326.7c387 0 387-151.3 774-151.3" />
                </g>
                <g>
                    <path class="s22" d="m152 221.9c387 0 387-121.2 774-121.2" />
                </g>
                <g>
                    <path class="s17" d="m152 203.3c387 0 387 291.8 774 291.8" />
                </g>
                <g>
                    <path class="s22" d="m152 219.9c387 0 387-209.4 774-209.4" />
                </g>
                <g>
                    <path class="s13" d="m152 350.6c387 0 387-18.1 774-18.1" />
                </g>
                <g>
                    <path class="s18" d="m152 185.5c387 0 387-164 774-164" />
                </g>
                <g>
                    <path class="s6" d="m152 312c387 0 387-279.5 774-279.5" />
                </g>
                <g>
                    <path class="s23" d="m152 227.5c387 0 387-26.1 774-26.1" />
                </g>
                <g>
                    <path class="s13" d="m152 334.3c387 0 387-50 774-50" />
                </g>
                <g>
                    <path class="s18" d="m152 188.6c387 0 387-1.7 774-1.7" />
                </g>
                <g>
                    <path class="s18" d="m152 190.6c387 0 387 22.4 774 22.4" />
                </g>
                <g>
                    <path class="s22" d="m152 220.9c387 0 387-177.3 774-177.3" />
                </g>
                <g>
                    <path class="s2" d="m152 330.8c387 0 387-116.3 774-116.3" />
                </g>
                <g>
                    <path class="s18" d="m152 194.6c387 0 387 134.9 774 134.9" />
                </g>
                <g>
                    <path class="s23" d="m152 223.4c387 0 387-110.2 774-110.2" />
                </g>
                <g>
                    <path class="s18" d="m152 189.6c387 0 387 10.3 774 10.3" />
                </g>
                <g>
                    <path class="s6" d="m152 391.2c387 0 387 92.4 774 92.4" />
                </g>
                <g>
                    <path class="s2" d="m152 319.6c387 0 387-194.4 774-194.4" />
                </g>
                <g>
                    <path class="s19" d="m152 241.2c387 0 387 29 774 29" />
                </g>
                <g>
                    <path class="s18" d="m152 192.6c387 0 387 75.6 774 75.6" />
                </g>
                <g>
                    <path class="s23" d="m152 225.4c387 0 387-88.2 774-88.2" />
                </g>
                <g>
                    <path class="s2" d="m152 321.7c387 0 387-172.4 774-172.4" />
                </g>
                <g>
                    <path class="s18" d="m152 195.7c387 0 387 167 774 167" />
                </g>
                <g>
                    <path class="s18" d="m152 186.5c387 0 387-131.9 774-131.9" />
                </g>
                <g>
                    <path class="s6" d="m152 313c387 0 387-247.4 774-247.4" />
                </g>
            </g>

            <g id="profes" class="t24">
                <text id="Mónica Santibañez*" style="transform: matrix(1, 0, 0, 1, 937, 13.507);" class="asterisco">Mónica Santibañez*</text>
                <text id="Macarena Ruiz*" style="transform: matrix(1, 0, 0, 1, 937, 24.522);" class="asterisco">
                    Macarena Ruiz*
                </text>
                <text id="Hans Stange" style="transform: matrix(1, 0, 0, 1, 937, 35.536);">
                    Hans Stange
                </text>
                <text id="Raúl Molina*" style="transform: matrix(1, 0, 0, 1, 937, 46.551);" class="asterisco">
                    Raúl Molina*
                </text>
                <text id="Rebeca Silva" style="transform: matrix(1, 0, 0, 1, 937, 57.565);">
                    Rebeca Silva
                </text>
                <text id="Alfredo Mora" style="transform: matrix(1, 0, 0, 1, 937, 68.58);">
                    Alfredo Mora
                </text>
                <text id="Mauricio Vico" style="transform: matrix(1, 0, 0, 1, 937, 80.101);">
                    Mauricio Vico
                </text>
                <text id="Bruno Perelli" style="transform: matrix(1, 0, 0, 1, 937, 92.13);">
                    Bruno Perelli
                </text>
                <text id="Juan Carlos Lepe*" style="transform: matrix(1, 0, 0, 1, 937, 104.159);" class="asterisco">
                    Juan Carlos Lepe*
                </text>
                <text id="René Perea" style="transform: matrix(1, 0, 0, 1, 937, 116.188);">
                    René Perea
                </text>
                <text id="Iván Méndez" style="transform: matrix(1, 0, 0, 1, 937, 128.217);">
                    Iván Méndez
                </text>
                <text id="Paola Benavides*" style="transform: matrix(1, 0, 0, 1, 937, 140.246);" class="asterisco">
                    Paola Benavides*
                </text>
                <text id="Trinidad Jove*" style="transform: matrix(1, 0, 0, 1, 937, 152.275);" class="asterisco">
                    Trinidad Jove*
                </text>
                <text id="Cristián Gómez" style="transform: matrix(1, 0, 0, 1, 937, 164.811);">
                    Cristián Gómez
                </text>
                <text id="Daniel Reyes" style="transform: matrix(1, 0, 0, 1, 937, 177.855);">
                    Daniel Reyes
                </text>
                <text id="Osvaldo Zorzano" style="transform: matrix(1, 0, 0, 1, 937, 190.898);">
                    Osvaldo Zorzano
                </text>
                <text id="Felix Maldonado" style="transform: matrix(1, 0, 0, 1, 937, 203.942);">
                    Felix Maldonado
                </text>
                <text id="Gabriela Pradenas" style="transform: matrix(1, 0, 0, 1, 937, 216.985);">
                    Gabriela Pradenas
                </text>
                <text id="Mauricio Tapia" style="transform: matrix(1, 0, 0, 1, 937, 230.536);">
                    Mauricio Tapia
                </text>
                <text id="Lorna Lares" style="transform: matrix(1, 0, 0, 1, 937, 244.594);">
                    Lorna Lares
                </text>
                <text id="Pablo Nuñez" style="transform: matrix(1, 0, 0, 1, 937, 258.652);">
                    Pablo Nuñez
                </text>
                <text id="Antonio Marín" style="transform: matrix(1, 0, 0, 1, 937, 272.71);">
                    Antonio Marín
                </text>
                <text id="Sebastián Pagueguy" style="transform: matrix(1, 0, 0, 1, 937, 287.275);">
                    Sebastián Pagueguy
                </text>
                <text id="Pamela Gatica" style="transform: matrix(1, 0, 0, 1, 937, 302.855);">
                    Pamela Gatica
                </text>
                <text id="María Paz Morales*" style="transform: matrix(1, 0, 0, 1, 937, 318.942);" class="asterisco">
                    María Paz Morales*
                </text>
                <text id="Mariana Young*" style="transform: matrix(1, 0, 0, 1, 937, 335.029);"  class="asterisco">
                    Mariana Young*
                </text>
                <text id="Roberto Osses" style="transform: matrix(1, 0, 0, 1, 937, 351.623);">
                    Roberto Osses
                </text>
                <text id="Sergio Donoso" style="transform: matrix(1, 0, 0, 1, 937, 368.725);">
                    Sergio Donoso
                </text>
                <text id="Paola De la Sotta" style="transform: matrix(1, 0, 0, 1, 937, 385.826);">
                    Paola De la Sotta
                </text>
                <text id="Leonardo Soto" style="transform: matrix(1, 0, 0, 1, 937, 403.435);">
                    Leonardo Soto
                </text>
                <text id="Felipe Cortez" style="transform: matrix(1, 0, 0, 1, 937, 422.058);">
                    Felipe Cortez
                </text>
                <text id="Eduardo Castillo" style="transform: matrix(1, 0, 0, 1, 937, 442.188);">
                    Eduardo Castillo
                </text>
                <text id="Jenny Abud" style="transform: matrix(1, 0, 0, 1, 938, 460.826);">
                    Jenny Abud
                </text>
                <text id="Andrea Wechsler*" style="transform: matrix(1, 0, 0, 1, 937, 482.478);" class="asterisco">
                    Andrea Wechsler*
                </text>
                <text id="Rodrigo Dueñas" style="transform: matrix(1, 0, 0, 1, 937, 504.145);">
                    Rodrigo Dueñas
                </text>
                <text id="Rubén Jacob" style="transform: matrix(1, 0, 0, 1, 937, 525.826);">
                    Rubén Jacob
                </text>
                <text id="Verónica Ode" style="transform: matrix(1, 0, 0, 1, 937, 551.029);">
                    Verónica Ode
                </text>
                <text id="Pablo Domínguez" style="transform: matrix(1, 0, 0, 1, 937, 580.319);">
                    Pablo Domínguez
                </text>
            </g>

            <g id="titulos" class="t24">
                <text id="Diseñador/a" style="transform: matrix(1, 0, 0, 1, 139, 200.174);">
                    <tspan x="-63" y="0">Diseñador(a)</tspan>
                </text>
                <text id="Diseñador/a con mención Industri" style="transform: matrix(1, 0, 0, 1, 139, 259.435);">
                    <tspan x="-130" y="0">Diseñador(a) con mención</tspan>
                    <tspan y="0" class="t24"></tspan>
                    <tspan x="-103" y="13">Industrial y Servicios</tspan>
                </text>
                <text id="Diseñador/a con mención en Visua" style="transform: matrix(1, 0, 0, 1, 139, 363.261);">
                    <tspan x="-130" y="0">Diseñador(a) con mención</tspan>
                    <tspan y="0" class="t24"></tspan>
                    <tspan x="-115" y="13">en Visualidad y Medios</tspan>
                </text>
            </g>
        </g>
</svg>