<svg version="1.2" xmlns="http://www.w3.org/2000/svg" viewBox="0 0 1120 610" width="1120" height="610">
    <title>Multi_set_bar_chart</title>
    <style>
        g#viz {
            font-size: 14px;
            fill: #000000;
            font-family: Helvetica, Arial, sans-serif;
        }

        g#reprueban {
            fill: #9b9b9b;
        }

        g#aprueban {
            fill: #189af6;
        }

        g#industriales {
            fill: #125389;
        }

        g#sinmencion {
            fill: #00c3ff;
        }

        .rayita {
            fill: none;
            stroke: #000000;
        }
    </style>
    <g id="viz">
        <g id="reprueban">
            <path d="m95 371.7h49.5v208h-49.5z" />
            <path d="m253.9 307.7h49.5v272h-49.5z" />
            <path d="m412.7 107.7h49.5v472h-49.5z" />
            <path d="m572.6 203.7h49.5v376h-49.5z" />
            <path d="m732.5 235.7h49.5v344h-49.5z" />
            <path d="m892.3 411.7h49.5v168h-49.5z" />
            <path d="m1052.2 171.7h49.5v408h-49.5z" />
        </g>
        <g id="aprueban">
            <path d="m44.6 555.7h49.5v24h-49.5z" />
            <path d="m1001.7 27.7h49.5v552h-49.5c0 0 0-552 0-552z" />
            <path d="m841.9 267.7h49.5v312h-49.5z" />
            <path d="m522.2 419.7h49.5v160h-49.5z" />
            <path d="m203.4 499.7h49.5v80h-49.5z" />
            <path d="m362.3 491.7h49.5v88h-49.5z" />
            <path d="m682 139.7h49.5v440h-49.5z" />
        </g>
        <g id="industriales">
            <path d="m203.4 539.7h49.5v40h-49.5z" />
            <path d="m362.3 547.7h49.5v32h-49.5z" />
            <path d="m522.2 523.7h49.5v56h-49.5z" />
            <path d="m682 395.7h49.5v184h-49.5z" />
            <path d="m841.9 467.7h49.5v112h-49.5z" />
            <path d="m1001.7 347.7h49.5v232h-49.5z" />
        </g>
        <g id="sinmencion">
            <path d="m44.6 555.7h49.5v8h-49.5z" />
            <path d="m522.2 419.7h49.5v32h-49.5z" />
            <path d="m682 139.7h49.5v56c0-0.3-49.5 0-49.5 0z" />
            <path d="m841.9 267.7h49.5v32h-49.5z" />
            <path d="m1001.7 27.7h49.5v64h-49.5z" />
        </g>

        <g id="xAxis">
            <g>
                <path class="rayita" d="m94.6 579.7v6" />
                <text  style="transform: matrix(1, 0, 0, 1, 79.006, 599.776);">2021-2</text>
            </g>
            <g>
                <path class="rayita" d="m253.4 579.7v6" />
                <text style="transform: matrix(1, 0, 0, 1, 237.867, 599.776);">2022-1</text>
            </g>
            <g>
                <path class="rayita" d="m412.3 579.7v6" />
                <text style="transform: matrix(1, 0, 0, 1, 396.727, 599.776);">2022-2</text>
            </g>
            <g>
                <path class="rayita" d="m572.1 579.7v6" />
                <text style="transform: matrix(1, 0, 0, 1, 556.587, 599.776);">2023-1</text>
            </g>
            <g>
                <path class="rayita" d="m732 579.7v6" />
                <text style="transform: matrix(1, 0, 0, 1, 716.447, 599.776);">2023-2</text>
            </g>
            <g>
                <path class="rayita" d="m891.9 579.7v6" />
                <text style="transform: matrix(1, 0, 0, 1, 876.307, 599.776);">2024-1</text>
            </g>
            <g>
                <path class="rayita" d="m1051.7 579.7v6" />
                <text style="transform: matrix(1, 0, 0, 1, 1036.168, 599.776);">2024-2</text>
            </g>
        </g>
        <g id="yAxis">
            <path class="rayita" d="m30.1 580.2v-560" />
            <g>
                <path class="rayita" d="m1119.6 580.2h-1096" />
                <text style="transform: matrix(1, 0, 0, 1, 11.094, 583.376);">0</text>
            </g>
            <g>
                <path class="rayita" d="m29.6 540.2h-6" />
                <text style="transform: matrix(1, 0, 0, 1, 11.094, 543.376);">5</text>
            </g>
            <g>
                <path class="rayita" d="m29.6 500.2h-6" />
                <text style="transform: matrix(1, 0, 0, 1, 5.533, 503.376);">10</text>
            </g>
            <g>
                <path class="rayita" d="m29.6 460.2h-6" />
                <text style="transform: matrix(1, 0, 0, 1, 5.533, 463.376);">15</text>
            </g>
            <g>
                <path class="rayita" d="m29.6 420.2h-6" />
                <text style="transform: matrix(1, 0, 0, 1, 5.533, 423.376);">20</text>
            </g>
            <g>
                <path class="rayita" d="m29.6 380.2h-6" />
                <text style="transform: matrix(1, 0, 0, 1, 5.533, 383.376);">25</text>
            </g>
            <g>
                <path class="rayita" d="m29.6 340.2h-6" />
                <text style="transform: matrix(1, 0, 0, 1, 5.533, 343.376);">30</text>
            </g>
            <g>
                <path class="rayita" d="m29.6 300.2h-6" />
                <text style="transform: matrix(1, 0, 0, 1, 5.533, 303.376);">35</text>
            </g>
            <g>
                <path class="rayita" d="m29.6 260.2h-6" />
                <text style="transform: matrix(1, 0, 0, 1, 5.533, 263.376);">40</text>
            </g>
            <g>
                <path class="rayita" d="m29.6 220.2h-6" />
                <text style="transform: matrix(1, 0, 0, 1, 5.533, 223.376);">45</text>
            </g>
            <g>
                <path class="rayita" d="m29.6 180.2h-6" />
                <text style="transform: matrix(1, 0, 0, 1, 5.533, 183.376);">50</text>
            </g>
            <g>
                <path class="rayita" d="m29.6 140.2h-6" />
                <text style="transform: matrix(1, 0, 0, 1, 5.533, 143.376);">55</text>
            </g>
            <g>
                <path class="rayita" d="m29.6 100.2h-6" />
                <text style="transform: matrix(1, 0, 0, 1, 5.533, 103.376);">60</text>
            </g>
            <g>
                <path class="rayita" d="m29.6 60.2h-6" />
                <text style="transform: matrix(1, 0, 0, 1, 5.533, 63.376);">65</text>
            </g>
            <g>
                <path class="rayita" d="m29.6 20.2h-6" />
                <text style="transform: matrix(1, 0, 0, 1, 5.533, 23.376);">70</text>
            </g>
        </g>
    </g>
</svg>